<svg width="66" height="66" viewBox="0 0 66 66" fill="none" xmlns="http://www.w3.org/2000/svg">
<path d="M61.2707 11.3438C63.3105 11.3438 64.9688 9.6855 64.9688 7.64569C64.9688 7.095 64.7543 6.57731 64.3644 6.1875L59.8125 1.63556C59.4227 1.24575 58.905 1.03125 58.3543 1.03125C56.3145 1.03125 54.6562 2.6895 54.6562 4.72931C54.6562 5.28 54.8707 5.79769 55.2606 6.1875L53.5796 7.86844C52.6587 7.23938 51.4625 7.10325 50.4127 7.44769C50.0569 6.13181 48.8647 5.15625 47.4375 5.15625C45.7318 5.15625 44.3438 6.54431 44.3438 8.25C44.3438 9.52669 45.1213 10.6239 46.2268 11.0963L37.9087 19.4143C37.4364 18.3088 36.3392 17.5312 35.0625 17.5312C35.0388 17.5312 35.0161 17.5374 34.9924 17.5385C37.3869 15.478 38.1562 12.3307 38.1562 10.3125V9.28125H37.125C32.4101 9.28125 29.5278 10.9034 27.8438 12.9381V10.3125C27.8438 6.86503 25.4543 1.03125 16.5 1.03125H15.4688V2.0625C15.4688 5.27278 17.4085 11.3438 24.75 11.3438H25.7812V18.5625V19.1256C24.4643 17.5343 22.4101 16.202 19.3205 15.6956C19.4927 15.3099 19.5938 14.8861 19.5938 14.4375C19.5938 12.7318 18.2057 11.3438 16.5 11.3438C14.7943 11.3438 13.4062 12.7318 13.4062 14.4375C13.4062 15.7977 14.2942 16.9424 15.5162 17.3559C15.8328 20.6786 18.0159 25.7812 24.75 25.7812H25.7812V31.9688H21.6562C20.5188 31.9688 19.5938 32.8938 19.5938 34.0312V36.0938C19.5938 37.2312 20.5188 38.1562 21.6562 38.1562V40.2188H15.4688V38.1562C16.6062 38.1562 17.5312 37.2312 17.5312 36.0938V34.0312C17.5312 32.8938 16.6062 31.9688 15.4688 31.9688H5.15625C4.01878 31.9688 3.09375 32.8938 3.09375 34.0312V36.0938C3.09375 37.2312 4.01878 38.1562 5.15625 38.1562V40.2188H4.125C2.41931 40.2188 1.03125 41.6068 1.03125 43.3125V64.9688H3.09375V43.3125C3.09375 42.7443 3.55678 42.2812 4.125 42.2812H5.15625V55.6875C5.15625 58.5307 7.46934 60.8438 10.3125 60.8438C13.1557 60.8438 15.4688 58.5307 15.4688 55.6875V42.2812H21.6562V55.6875C21.6562 58.5307 23.9693 60.8438 26.8125 60.8438C27.1693 60.8438 27.5179 60.8066 27.8541 60.7375C27.853 60.7736 27.8438 60.8077 27.8438 60.8438V62.9062C27.8438 64.0437 28.7688 64.9688 29.9062 64.9688H58.7812C59.9187 64.9688 60.8438 64.0437 60.8438 62.9062C60.8438 62.039 60.5715 61.2356 60.1126 60.5705L61.7554 57.6139C63.8571 53.8292 64.9688 49.5412 64.9688 45.2131C64.9688 38.3924 62.3123 31.9791 57.4891 27.1559L54.6078 24.2746C54.5026 23.1516 54.0468 22.1378 53.3373 21.3397L57.75 16.9269C58.4152 16.2618 58.7812 15.378 58.7812 14.4375C58.7812 13.7022 58.5513 13.0051 58.1357 12.4163L59.8125 10.7394C60.2023 11.1292 60.72 11.3438 61.2707 11.3438ZM24.75 9.28125C19.2658 9.28125 17.9479 5.14594 17.6313 3.13088C22.9732 3.49284 25.2697 6.42366 25.7039 9.28125H24.75ZM5.15625 34.0312H15.4688L15.4698 36.0938H5.15625V34.0312ZM7.21875 38.1562H13.4062V40.2188H7.21875V38.1562ZM13.4062 55.6875C13.4062 57.3932 12.0182 58.7812 10.3125 58.7812C8.60681 58.7812 7.21875 57.3932 7.21875 55.6875V42.2812H13.4062V55.6875ZM58.3543 3.09375L62.9062 7.64569C62.9062 8.54803 62.173 9.28125 61.2707 9.28125L56.7188 4.72931C56.7188 3.82697 57.452 3.09375 58.3543 3.09375ZM47.4375 7.21875C48.0057 7.21875 48.4688 7.68178 48.4688 8.25C48.4688 8.81822 48.0057 9.28125 47.4375 9.28125C46.8693 9.28125 46.4062 8.81822 46.4062 8.25C46.4062 7.68178 46.8693 7.21875 47.4375 7.21875ZM34.4582 25.7812L35.0625 25.1769L40.8231 30.9375L40.2188 31.5418C39.6763 32.0843 38.6987 32.0843 38.1562 31.5418L34.4582 27.8438C34.187 27.5725 34.0312 27.1961 34.0312 26.8125C34.0312 26.4289 34.187 26.0525 34.4582 25.7812ZM36.0938 20.625C36.0938 21.1932 35.6307 21.6562 35.0625 21.6562C34.4943 21.6562 34.0312 21.1932 34.0312 20.625C34.0312 20.0568 34.4943 19.5938 35.0625 19.5938C35.6307 19.5938 36.0938 20.0568 36.0938 20.625ZM35.9937 11.3809C35.6771 13.398 34.3582 17.5312 28.875 17.5312H27.9221C28.3563 14.6737 30.6518 11.7428 35.9937 11.3809ZM16.5 13.4062C17.0682 13.4062 17.5312 13.8693 17.5312 14.4375C17.5312 15.0057 17.0682 15.4688 16.5 15.4688C15.9318 15.4688 15.4688 15.0057 15.4688 14.4375C15.4688 13.8693 15.9318 13.4062 16.5 13.4062ZM24.75 23.7188C19.2658 23.7188 17.9479 19.5834 17.6313 17.5684C22.9732 17.9303 25.2697 20.8612 25.7039 23.7188H24.75ZM27.8438 25.7812V24.75V19.5938H28.875C30.2404 19.5938 31.417 19.3823 32.4307 19.0204C32.143 19.4896 31.9688 20.0351 31.9688 20.625C31.9688 21.9017 32.7463 22.9989 33.8518 23.4713L33 24.3231C32.3348 24.9882 31.9688 25.872 31.9688 26.8125C31.9688 27.753 32.3348 28.6378 33 29.3019L36.6981 33C37.3632 33.6652 38.247 34.0312 39.1875 34.0312C40.128 34.0312 41.0128 33.6652 41.6769 33L46.0897 28.5873C47.0013 29.3978 48.1872 29.9062 49.5 29.9062C49.8114 29.9062 50.1126 29.8671 50.4085 29.8145L50.8282 30.129C54.517 32.8958 56.7188 37.2993 56.7188 41.91C56.7188 44.3706 56.1031 46.7569 54.944 48.8998C53.7972 47.5798 52.1823 46.6806 50.358 46.463C49.9476 45.2358 48.8008 44.3438 47.4375 44.3438H31.9688V42.2812H36.0938V40.2188H31.9688V38.1562C33.1062 38.1562 34.0312 37.2312 34.0312 36.0938V34.0312C34.0312 32.8938 33.1062 31.9688 31.9688 31.9688H27.8438V25.7812ZM52.5938 24.75C52.5938 26.4557 51.2057 27.8438 49.5 27.8438C47.7943 27.8438 46.4062 26.4557 46.4062 24.75C46.4062 23.0443 47.7943 21.6562 49.5 21.6562C51.2057 21.6562 52.5938 23.0443 52.5938 24.75ZM49.5 58.7812C46.6568 58.7812 44.3438 56.4682 44.3438 53.625C44.3438 50.7818 46.6568 48.4688 49.5 48.4688C52.3432 48.4688 54.6562 50.7818 54.6562 53.625C54.6562 56.4682 52.3432 58.7812 49.5 58.7812ZM44.4572 48.4688H31.9688V46.4062H47.4375C47.6355 46.4062 47.8098 46.4774 47.9665 46.5743C46.6187 46.8672 45.4101 47.5365 44.4572 48.4688ZM31.9688 55.6875V50.5312H42.9877C42.5391 51.4707 42.2812 52.5164 42.2812 53.625C42.2812 55.6442 43.1166 57.4695 44.4572 58.7812H30.9107C31.5655 57.9171 31.9688 56.8528 31.9688 55.6875ZM21.6562 34.0312H31.9688L31.9698 36.0938H21.6562V34.0312ZM23.7188 38.1562H29.9062V40.2188H23.7188V38.1562ZM23.7188 55.6875V42.2812H29.9062V55.6875C29.9062 57.3932 28.5182 58.7812 26.8125 58.7812C25.1068 58.7812 23.7188 57.3932 23.7188 55.6875ZM29.9062 62.9062V60.8438H56.7188C57.8562 60.8438 58.7812 61.7688 58.7823 62.9062H29.9062ZM62.9062 45.2131C62.9062 49.1917 61.8843 53.1341 59.9528 56.6125L58.5111 59.2082C57.9666 58.9432 57.3633 58.7812 56.7188 58.7812H54.5428C55.8834 57.4695 56.7188 55.6442 56.7188 53.625C56.7188 52.6525 56.5228 51.7244 56.1722 50.8767C57.8738 48.1882 58.7812 45.1048 58.7812 41.91C58.7812 36.8662 56.4651 32.043 52.5628 28.874C53.2795 28.3398 53.8612 27.6344 54.2231 26.8053L56.0309 28.6131C60.4642 33.0474 62.9062 38.9431 62.9062 45.2131ZM56.2918 15.4688L51.6708 20.0898C51.0087 19.7794 50.2776 19.5938 49.5 19.5938C46.6568 19.5938 44.3438 21.9068 44.3438 24.75C44.3438 25.5276 44.5294 26.2587 44.8398 26.9208L42.2812 29.4793L36.5207 23.7188L50.5312 9.70819C51.0737 9.16575 52.0513 9.16575 52.5938 9.70819L56.2918 13.4062C56.563 13.6775 56.7188 14.0539 56.7188 14.4375C56.7188 14.8211 56.563 15.1975 56.2918 15.4688ZM56.7188 10.9168L55.0832 9.28125L56.7188 7.64569L58.3543 9.28125L56.7188 10.9168ZM49.5 23.7188C50.0692 23.7188 50.5312 24.1807 50.5312 24.75C50.5312 25.3193 50.0692 25.7812 49.5 25.7812C48.9308 25.7812 48.4688 25.3193 48.4688 24.75C48.4688 24.1807 48.9308 23.7188 49.5 23.7188ZM49.5 50.5312C47.7943 50.5312 46.4062 51.9193 46.4062 53.625C46.4062 55.3307 47.7943 56.7188 49.5 56.7188C51.2057 56.7188 52.5938 55.3307 52.5938 53.625C52.5938 51.9193 51.2057 50.5312 49.5 50.5312ZM49.5 54.6562C48.9318 54.6562 48.4688 54.1932 48.4688 53.625C48.4688 53.0568 48.9318 52.5938 49.5 52.5938C50.0682 52.5938 50.5312 53.0568 50.5312 53.625C50.5312 54.1932 50.0682 54.6562 49.5 54.6562ZM30.9375 7.21875C32.6432 7.21875 34.0312 5.83069 34.0312 4.125C34.0312 2.41931 32.6432 1.03125 30.9375 1.03125C29.2318 1.03125 27.8438 2.41931 27.8438 4.125C27.8438 5.83069 29.2318 7.21875 30.9375 7.21875ZM30.9375 3.09375C31.5057 3.09375 31.9688 3.55678 31.9688 4.125C31.9688 4.69322 31.5057 5.15625 30.9375 5.15625C30.3693 5.15625 29.9062 4.69322 29.9062 4.125C29.9062 3.55678 30.3693 3.09375 30.9375 3.09375ZM14.4375 29.9062C16.1432 29.9062 17.5312 28.5182 17.5312 26.8125C17.5312 25.1068 16.1432 23.7188 14.4375 23.7188C12.7318 23.7188 11.3438 25.1068 11.3438 26.8125C11.3438 28.5182 12.7318 29.9062 14.4375 29.9062ZM14.4375 25.7812C15.0057 25.7812 15.4688 26.2443 15.4688 26.8125C15.4688 27.3807 15.0057 27.8438 14.4375 27.8438C13.8693 27.8438 13.4062 27.3807 13.4062 26.8125C13.4062 26.2443 13.8693 25.7812 14.4375 25.7812ZM5.15625 11.3438C7.43119 11.3438 9.28125 9.49369 9.28125 7.21875C9.28125 4.94381 7.43119 3.09375 5.15625 3.09375C2.88131 3.09375 1.03125 4.94381 1.03125 7.21875C1.03125 9.49369 2.88131 11.3438 5.15625 11.3438ZM5.15625 5.15625C6.29372 5.15625 7.21875 6.08128 7.21875 7.21875C7.21875 8.35622 6.29372 9.28125 5.15625 9.28125C4.01878 9.28125 3.09375 8.35622 3.09375 7.21875C3.09375 6.08128 4.01878 5.15625 5.15625 5.15625ZM3.09375 21.6562C3.09375 23.9312 4.94381 25.7812 7.21875 25.7812C9.49369 25.7812 11.3438 23.9312 11.3438 21.6562C11.3438 19.3813 9.49369 17.5312 7.21875 17.5312C4.94381 17.5312 3.09375 19.3813 3.09375 21.6562ZM9.28125 21.6562C9.28125 22.7937 8.35622 23.7188 7.21875 23.7188C6.08128 23.7188 5.15625 22.7937 5.15625 21.6562C5.15625 20.5188 6.08128 19.5938 7.21875 19.5938C8.35622 19.5938 9.28125 20.5188 9.28125 21.6562Z" fill="url(#paint0_linear_36_37)"/>
<defs>
<linearGradient id="paint0_linear_36_37" x1="33" y1="64.9688" x2="33" y2="1.03125" gradientUnits="userSpaceOnUse">
<stop stop-color="#9F2FFF"/>
<stop offset="1" stop-color="#0BB1D3"/>
</linearGradient>
</defs>
</svg>
