<svg width="60" height="60" viewBox="0 0 60 60" fill="none" xmlns="http://www.w3.org/2000/svg">
<g clip-path="url(#clip0_20_48)">
<path d="M38.4375 10.3125H25.3125V23.4375H38.4375V10.3125ZM36.5625 21.5625H27.1875V12.1875H36.5625V21.5625ZM15.9375 12.1875H12.1875V10.3125H15.9375V12.1875ZM23.4375 12.1875H17.8125V10.3125H23.4375V12.1875ZM23.4375 15.9375H12.1875V14.0625H23.4375V15.9375ZM23.4375 19.6875H12.1875V17.8125H23.4375V19.6875ZM23.4375 23.4375H12.1875V21.5625H23.4375V23.4375ZM38.4375 27.1875H12.1875V25.3125H38.4375V27.1875ZM38.4375 30.9375H12.1875V29.0625H38.4375V30.9375ZM38.4375 34.6875H12.1875V32.8125H38.4375V34.6875ZM25.3125 36.5625H12.1875V49.6875H25.3125V36.5625ZM23.4375 47.8125H14.0625V38.4375H23.4375V47.8125ZM27.1875 40.3125H38.4375V42.1875H27.1875V40.3125ZM27.1875 44.0625H38.4375V45.9375H27.1875V44.0625ZM51.8222 13.3003C49.9941 13.9097 48.6234 15.39 48.1566 17.2603L47.8125 18.6366V3.75C47.8125 2.19937 46.5506 0.9375 45 0.9375H11.25C9.69938 0.9375 8.4375 2.19937 8.4375 3.75V4.6875H7.5C5.94938 4.6875 4.6875 5.94938 4.6875 7.5V12.1875H2.8125C1.77844 12.1875 0.9375 13.0284 0.9375 14.0625V15.9375C0.9375 16.9716 1.77844 17.8125 2.8125 17.8125H4.6875V19.6875H2.8125C1.77844 19.6875 0.9375 20.5284 0.9375 21.5625V23.4375C0.9375 24.4716 1.77844 25.3125 2.8125 25.3125H4.6875V27.1875H2.8125C1.77844 27.1875 0.9375 28.0284 0.9375 29.0625V30.9375C0.9375 31.9716 1.77844 32.8125 2.8125 32.8125H4.6875V34.6875H2.8125C1.77844 34.6875 0.9375 35.5284 0.9375 36.5625V38.4375C0.9375 39.4716 1.77844 40.3125 2.8125 40.3125H4.6875V42.1875H2.8125C1.77844 42.1875 0.9375 43.0284 0.9375 44.0625V45.9375C0.9375 46.9716 1.77844 47.8125 2.8125 47.8125H4.6875V53.7497C4.6875 54.3544 4.88719 54.9534 5.25094 55.4372L7.125 57.9375C7.65281 58.6416 8.49375 59.0625 9.375 59.0625H44.0625V57.5756L49.9931 51.645L49.9941 51.6441C50.3456 51.2925 50.5978 50.8528 50.7225 50.3766L58.8966 19.5C59.0063 19.0847 59.0625 18.6553 59.0625 18.2231C59.0625 17.1516 58.7081 16.0903 58.0659 15.2334C56.625 13.3125 54.1284 12.5316 51.8222 13.3003ZM10.3125 3.75C10.3125 3.23344 10.7325 2.8125 11.25 2.8125H45C45.5175 2.8125 45.9375 3.23344 45.9375 3.75V26.1356L44.0625 33.6347V4.6875H10.3125V3.75ZM42.3413 49.3378L48.0834 50.9034L43.6697 55.3172L42.3413 49.3378ZM2.8125 14.0625H8.4375L8.43844 15.9375H2.8125V14.0625ZM2.8125 21.5625H8.4375L8.43844 23.4375H2.8125V21.5625ZM2.8125 29.0625H8.4375L8.43844 30.9375H2.8125V29.0625ZM2.8125 36.5625H8.4375L8.43844 38.4375H2.8125V36.5625ZM2.8125 44.0625H8.4375L8.43844 45.9375H2.8125V44.0625ZM8.4375 47.8125C9.47156 47.8125 10.3125 46.9716 10.3125 45.9375V44.0625C10.3125 43.0284 9.47156 42.1875 8.4375 42.1875H6.5625V40.3125H8.4375C9.47156 40.3125 10.3125 39.4716 10.3125 38.4375V36.5625C10.3125 35.5284 9.47156 34.6875 8.4375 34.6875H6.5625V32.8125H8.4375C9.47156 32.8125 10.3125 31.9716 10.3125 30.9375V29.0625C10.3125 28.0284 9.47156 27.1875 8.4375 27.1875H6.5625V25.3125H8.4375C9.47156 25.3125 10.3125 24.4716 10.3125 23.4375V21.5625C10.3125 20.5284 9.47156 19.6875 8.4375 19.6875H6.5625V17.8125H8.4375C9.47156 17.8125 10.3125 16.9716 10.3125 15.9375V14.0625C10.3125 13.0284 9.47156 12.1875 8.4375 12.1875H6.5625V7.5C6.5625 6.98344 6.9825 6.5625 7.5 6.5625H42.1875V41.1328L40.4475 48.0938C40.3434 48.5147 40.3369 48.9619 40.4306 49.3856L41.3316 53.4375H6.5625V47.8125H8.4375ZM8.625 56.8125L7.5 55.3125H41.7478L42.1641 57.1875H9.375C9.08156 57.1875 8.80125 57.0478 8.625 56.8125ZM49.0856 49.2337L42.5409 47.4487L46.0556 33.39L52.7934 35.2275L49.0856 49.2337ZM57.0844 19.0191L53.2734 33.4153L46.5112 31.5703L49.9753 17.7141C50.2866 16.4691 51.1997 15.4838 52.4419 15.0703C52.8272 14.9419 53.2219 14.8791 53.6128 14.8791C54.7528 14.8791 55.8544 15.4087 56.5659 16.3584C56.9672 16.8928 57.1875 17.5556 57.1875 18.2231C57.1875 18.4931 57.1528 18.7603 57.0844 19.0191Z" fill="url(#paint0_linear_20_48)"/>
</g>
<defs>
<linearGradient id="paint0_linear_20_48" x1="30" y1="59.0625" x2="30" y2="0.9375" gradientUnits="userSpaceOnUse">
<stop stop-color="#9F2FFF"/>
<stop offset="1" stop-color="#0BB1D3"/>
</linearGradient>
<clipPath id="clip0_20_48">
<rect width="60" height="60" fill="white"/>
</clipPath>
</defs>
</svg>
