<svg width="144" height="144" viewBox="0 0 144 144" fill="none" xmlns="http://www.w3.org/2000/svg">
<path d="M13.5 85.5H39.735C39.5775 86.625 39.42 87.7725 39.2625 88.8975C39.0825 90.27 38.8125 90.945 38.6325 91.2825C37.2825 93.6675 36.4275 96.3 36.135 99H9V90C9 87.525 11.025 85.5 13.5 85.5Z" fill="#374B62"/>
<path d="M135 90V99H76.365C76.05 96.03 75.06 93.15 73.4625 90.5625C72.7875 89.505 72.4275 88.47 72.3375 87.435C72.27 86.805 72.225 86.1525 72.18 85.5H130.5C132.975 85.5 135 87.525 135 90Z" fill="#374B62"/>
<path d="M135 99V135H9V99H36.135C36.045 99.7425 36 100.507 36 101.25C36 112.41 45.09 121.5 56.25 121.5C57.645 121.5 59.04 121.365 60.4125 121.073C68.22 119.475 74.34 113.423 76.0275 105.638C76.5 103.41 76.6125 101.183 76.365 99H135Z" fill="#93C1F9"/>
<path d="M65.8125 95.3325C67.275 97.695 67.905 100.642 67.23 103.747C66.3075 108 62.865 111.397 58.6125 112.275C51.3675 113.76 45 108.247 45 101.272C45 99.27 45.5175 97.38 46.4625 95.7375C47.4525 94.005 47.925 92.0475 48.195 90.0675C49.14 82.8225 50.85 74.385 54.0225 65.2725C59.265 50.175 66.465 38.88 72.0225 31.5225C68.22 40.7475 63.81 54.675 63.0225 72.0225C62.775 77.8725 62.955 83.295 63.3825 88.245C63.6075 90.765 64.485 93.1725 65.835 95.3325H65.8125Z" fill="#0C54AC"/>
<path d="M91.215 93.51C90.9675 93.51 90.6975 93.465 90.45 93.375C89.28 92.9475 88.6725 91.665 89.1 90.495L92.3625 81.4725C92.79 80.3025 94.0725 79.695 95.2425 80.1225C96.4125 80.55 97.02 81.8325 96.5925 83.0025L93.33 92.025C92.9925 92.9475 92.1375 93.51 91.215 93.51Z" fill="#6E88A2"/>
<path d="M112.443 19.4021L120.903 22.4711L113.231 43.6211L104.771 40.5521L112.443 19.4021Z" fill="#85B9DB"/>
<path d="M121.316 34.573L104.396 28.435C103.228 28.0112 101.938 28.6146 101.514 29.7827L87.7037 67.8527C87.2799 69.0208 87.8834 70.3112 89.0514 70.735L105.971 76.873C107.14 77.2967 108.43 76.6933 108.854 75.5252L122.664 37.4552C123.088 36.2871 122.485 34.9967 121.316 34.573Z" fill="#85B9DB"/>
<path d="M97.4475 83.34L91.485 81.18C90.4725 80.82 89.865 79.785 90.0225 78.705L91.17 71.4825L103.86 76.0725L100.125 82.35C99.5625 83.2725 98.4375 83.6775 97.425 83.3175L97.4475 83.34Z" fill="#759DD1"/>
<path d="M128.21 15.5451L111.29 9.40714C110.122 8.9834 108.831 9.58681 108.408 10.7549L106.873 14.9849C106.449 16.153 107.053 17.4434 108.221 17.8671L125.141 24.0051C126.309 24.4289 127.599 23.8255 128.023 22.6574L129.558 18.4274C129.981 17.2593 129.378 15.9689 128.21 15.5451Z" fill="#759DD1"/>
<path d="M123.416 35.3373L102.266 27.6648C101.098 27.2411 99.8074 27.8445 99.3837 29.0126L97.8492 33.2426C97.4254 34.4107 98.0289 35.7011 99.1969 36.1248L120.347 43.7973C121.515 44.2211 122.805 43.6177 123.229 42.4496L124.764 38.2196C125.187 37.0515 124.584 35.7611 123.416 35.3373Z" fill="#759DD1"/>
</svg>
