<svg width="144" height="144" viewBox="0 0 144 144" fill="none" xmlns="http://www.w3.org/2000/svg">
<g clip-path="url(#clip0_20_59)">
<path d="M120.741 119.391C124.397 118.181 126.253 114.075 124.622 110.588C121.5 103.922 120.628 98.8312 120.628 88.1437V59.9906C120.628 26.6625 95.0625 1.77188 63.8438 1.49063C32.0625 1.20938 6.07501 28.2094 6.07501 59.9906V88.1437C6.07501 98.8312 5.20314 103.922 2.08126 110.588C0.450012 114.075 2.33439 118.181 5.96251 119.362C44.2406 131.991 82.4906 131.991 120.741 119.391Z" fill="#93C1F9"/>
<path d="M103.106 102.403C102.234 117.9 82.0688 131.119 70.8188 137.334C66.2062 139.894 60.5531 139.894 55.9406 137.334C44.6625 131.091 24.4969 117.844 23.625 102.403V77.1188C23.625 62.3531 32.9062 49.1906 46.8 44.2406L47.1938 44.1C84.2906 44.1 102.572 63.9 103.106 102.403Z" fill="#EAFEFF"/>
<path d="M47.3906 84.2344C47.3906 86.175 45.8156 87.7219 43.9031 87.7219C41.9906 87.7219 40.4156 86.1469 40.4156 84.2344C40.4156 82.2938 41.9906 80.7469 43.9031 80.7469C45.8156 80.7469 47.3906 82.3219 47.3906 84.2344Z" fill="#B38F4C"/>
<path d="M98.8593 83.5594L129.937 114.638L114.637 129.938L83.5593 98.8594C80.8875 96.1594 80.8875 91.8281 83.5593 89.1281L89.1281 83.5594C91.8281 80.8594 96.1874 80.8594 98.8593 83.5594Z" fill="#93C1F9"/>
<path d="M113.316 134.944C114.328 135.956 115.959 135.956 116.972 134.944L134.944 116.972C135.956 115.959 135.956 114.328 134.944 113.316C133.931 112.303 132.3 112.303 131.287 113.316L113.316 131.287C112.303 132.3 112.303 133.931 113.316 134.944Z" fill="#EAFEFF"/>
<path d="M122.043 129.82L129.798 122.065L139.978 132.246L132.224 140.001L122.043 129.82Z" fill="#EAFEFF"/>
<path d="M33.6937 83.1937C33.075 83.7562 33.0468 84.7125 33.5812 85.3031C34.1437 85.9219 35.1 85.95 35.6906 85.4156C36.7031 84.5156 37.8 83.8125 38.9812 83.2781C38.925 83.5875 38.8968 83.925 38.8968 84.2344C38.8968 86.9906 41.1187 89.2406 43.875 89.2406C46.6312 89.2406 48.8812 86.9906 48.8812 84.2344C48.8812 83.8969 48.8531 83.5875 48.7968 83.2781C49.9781 83.7844 51.075 84.4875 52.0875 85.4156C52.7062 85.9781 53.6625 85.9219 54.1968 85.3031C54.7593 84.6844 54.7031 83.7281 54.0843 83.1937C48.2625 77.9062 39.5156 77.9062 33.6937 83.1937ZM43.875 86.2312C42.7781 86.2312 41.9062 85.3312 41.9062 84.2344C41.9062 83.1375 42.8062 82.2375 43.875 82.2375C44.9718 82.2375 45.8718 83.1375 45.8718 84.2344C45.8718 85.3312 44.9718 86.2312 43.875 86.2312Z" fill="#2F2F7F"/>
<path d="M143.55 128.7C142.959 128.109 142.003 128.109 141.441 128.7L140.006 130.134L131.963 122.062L136.013 118.012C137.616 116.409 137.616 113.822 136.013 112.247C134.409 110.644 131.822 110.644 130.247 112.247L129.966 112.528L124.931 107.494C120.853 97.2281 122.625 89.0437 122.175 59.9906C122.147 26.6343 96.5532 0.281196 63.8719 -5.38139e-05C30.8813 -0.281304 4.58444 27.7593 4.58444 59.9906C3.96569 90.7593 6.32819 97.9031 0.731317 109.969C-1.26556 114.244 1.01257 119.334 5.51257 120.825C16.9594 124.594 28.4626 127.237 39.9938 128.756C45.2532 132.834 50.7938 136.209 55.1813 138.656C60.1876 141.412 66.2907 141.525 71.5219 138.656C75.9376 136.209 81.4782 132.834 86.7376 128.756C93.6282 127.856 100.491 126.534 107.353 124.819L112.528 129.994L112.247 130.275C110.644 131.878 110.644 134.466 112.247 136.041C113.85 137.644 116.438 137.644 118.013 136.041L122.063 131.991L130.106 140.034L128.672 141.469C128.081 142.059 128.081 143.016 128.672 143.578C129.263 144.169 130.219 144.169 130.781 143.578C131.063 143.297 144.253 130.106 143.522 130.837C144.141 130.219 144.141 129.291 143.55 128.7ZM6.44069 117.956C3.68444 117.056 2.19382 113.934 3.43132 111.234C9.45007 98.3249 6.91882 90.8437 7.56569 59.9906C7.56569 29.7562 32.1188 3.00932 63.3657 3.00932H63.8438C94.8376 3.26245 119.138 28.2937 119.138 59.9906C119.363 85.7531 118.491 94.6687 120.347 102.937L102.994 85.5843C97.7626 57.5156 79.5657 43.0874 48.6844 42.6374V24.6937C48.6844 23.8781 48.0094 23.2031 47.1938 23.2031C46.3782 23.2031 45.7032 23.8781 45.7032 24.6937V43.0874C31.5844 48.4031 22.1344 61.9874 22.1344 77.1187L22.1626 102.487C22.6407 110.925 28.4344 118.659 35.5782 125.072C25.8469 123.497 16.1157 121.162 6.44069 117.956ZM70.0876 136.012C65.8688 138.347 60.8626 138.347 56.6719 136.012C45.2532 129.712 25.9876 116.944 25.1719 102.403L25.1438 77.1187C25.1438 63.0281 34.0594 50.3718 47.3626 45.6468L47.4751 45.5906C76.1344 45.6749 93.1501 57.6281 99.1126 81.8156C96.5532 79.8187 93.1219 79.3968 90.0282 81.0843C87.2719 79.5937 84.2344 79.0593 81.4501 79.3124L70.4251 68.2874C69.8344 67.6968 68.8782 67.6968 68.3157 68.2874C67.7251 68.8781 67.7251 69.8343 68.3157 70.3968L77.9626 80.0437C76.0501 80.6906 74.2501 81.7312 72.6469 83.1937C72.0282 83.7562 72.0001 84.7124 72.5344 85.3031C73.0969 85.9218 74.0532 85.9499 74.6438 85.4156C76.2751 83.9249 78.1876 82.9968 80.1844 82.5468C78.9188 84.9093 79.4251 87.6374 81.1688 89.3812L81.3376 89.5499C79.3126 92.7843 79.6782 97.1156 82.4907 99.9281L96.9188 114.356C90.3376 123.722 78.2157 131.512 70.0876 136.012ZM87.2719 83.3062L83.3063 87.2718C82.2094 86.1749 82.2094 84.4031 83.3063 83.3062C84.5438 82.0687 86.4844 82.5468 87.2719 83.3062ZM99.0563 116.466L104.906 122.316C100.322 123.412 95.7376 124.341 91.1532 125.072C94.0782 122.4 96.8344 119.531 99.0563 116.466ZM110.194 123.384L112.809 120.769C113.4 120.178 113.4 119.222 112.809 118.659C112.219 118.069 111.263 118.069 110.7 118.659L108.084 121.275L105.638 118.828L108.253 116.212C108.844 115.622 108.844 114.666 108.253 114.103C107.663 113.512 106.706 113.512 106.144 114.103L103.528 116.719L101.081 114.272L103.697 111.656C104.288 111.066 104.288 110.109 103.697 109.547C103.106 108.956 102.15 108.956 101.588 109.547L98.9719 112.162L96.5251 109.716L99.1407 107.1C99.7313 106.509 99.7313 105.553 99.1407 104.991C98.5501 104.4 97.5938 104.4 97.0313 104.991L94.4157 107.606L91.9688 105.159L94.5844 102.544C95.1751 101.953 95.1751 100.997 94.5844 100.434C93.9938 99.8437 93.0376 99.8437 92.4751 100.434L89.8594 103.05L87.4126 100.603L90.0282 97.9874C90.6188 97.3968 90.6188 96.4406 90.0282 95.8781C89.4376 95.2874 88.4813 95.2874 87.9188 95.8781L85.3032 98.4937L84.6563 97.8468C82.5751 95.7656 82.5469 92.3906 84.6282 90.2531L90.2532 84.6281C92.3626 82.5468 95.7376 82.5749 97.8188 84.6562L127.828 114.694L114.638 127.884L110.194 123.384ZM115.903 133.875C115.481 134.297 114.778 134.297 114.356 133.875C113.934 133.453 113.934 132.75 114.356 132.328C114.497 132.187 133.566 113.119 132.328 114.356C132.75 113.934 133.453 113.934 133.875 114.356C134.297 114.778 134.297 115.481 133.875 115.903C133.509 116.269 116.213 133.566 115.903 133.875ZM124.2 129.825L129.853 124.172L137.897 132.216L132.244 137.869L124.2 129.825Z" fill="#2F2F7F"/>
<path d="M19.6313 32.9906C18.9281 32.5406 18.7312 31.6125 19.1812 30.9094C25.2844 21.3469 34.3125 13.8094 44.5781 9.67501C45.3375 9.36563 46.2094 9.73126 46.5187 10.5188C46.8281 11.2781 46.4625 12.15 45.675 12.4594C36 16.3688 27.4781 23.4844 21.6844 32.5125C21.2344 33.2156 20.3063 33.4125 19.6313 32.9906Z" fill="white"/>
<path d="M38.8688 119.925C32.2313 113.766 28.5188 107.691 28.1531 102.319C28.0969 101.503 28.7156 100.772 29.5594 100.716C30.4031 100.659 31.1063 101.278 31.1625 102.122C31.4719 106.706 34.8469 112.106 40.9219 117.731C41.5406 118.294 41.5688 119.25 41.0063 119.841C40.4156 120.431 39.4594 120.488 38.8688 119.925Z" fill="white"/>
<path d="M120.403 115.706L110.7 106.003C110.109 105.413 110.109 104.456 110.7 103.894C111.291 103.303 112.247 103.303 112.809 103.894L122.512 113.597C123.103 114.188 123.103 115.144 122.512 115.706C121.95 116.297 120.994 116.297 120.403 115.706Z" fill="white"/>
<path d="M89.4094 83.3063L83.3062 89.4094L82.2375 88.3406C80.55 86.6531 80.55 83.9531 82.2375 82.2656C83.8969 80.6063 86.625 80.5781 88.3406 82.2656L89.4094 83.3063Z" fill="white"/>
</g>
<defs>
<clipPath id="clip0_20_59">
<rect width="144" height="144" fill="white"/>
</clipPath>
</defs>
</svg>
