<svg width="66" height="66" viewBox="0 0 66 66" fill="none" xmlns="http://www.w3.org/2000/svg">
<path d="M44.3407 23.1874C44.3407 23.5433 44.0522 23.8319 43.6962 23.8319H29.4935C29.1375 23.8319 28.849 23.5433 28.849 23.1874C28.849 22.8315 29.1375 22.5429 29.4935 22.5429H43.6962C44.0522 22.5429 44.3407 22.8315 44.3407 23.1874ZM33.8252 14.2401H43.6962C44.0522 14.2401 44.3407 13.9515 44.3407 13.5956C44.3407 13.2397 44.0522 12.9511 43.6962 12.9511H33.8252C33.4691 12.9511 33.1806 13.2397 33.1806 13.5956C33.1806 13.9515 33.4691 14.2401 33.8252 14.2401ZM43.6962 27.3388H28.4939C28.1378 27.3388 27.8493 27.6274 27.8493 27.9834C27.8493 28.3393 28.1378 28.6279 28.4939 28.6279H43.6962C44.0522 28.6279 44.3407 28.3393 44.3407 27.9834C44.3407 27.6274 44.0522 27.3388 43.6962 27.3388ZM13.2917 47.8115H37.6395C37.9955 47.8115 38.284 47.5228 38.284 47.1669C38.284 46.811 37.9955 46.5224 37.6395 46.5224H13.2917C12.9356 46.5224 12.6471 46.811 12.6471 47.1669C12.6471 47.5228 12.9356 47.8115 13.2917 47.8115ZM31.9092 19.0361H43.6962C44.0522 19.0361 44.3407 18.7475 44.3407 18.3916C44.3407 18.0357 44.0522 17.747 43.6962 17.747H31.9092C31.5532 17.747 31.2647 18.0357 31.2647 18.3916C31.2647 18.7475 31.5532 19.0361 31.9092 19.0361ZM13.2917 33.4238H43.696C44.0521 33.4238 44.3406 33.1352 44.3406 32.7793C44.3406 32.4234 44.0521 32.1348 43.696 32.1348H13.2917C12.9356 32.1348 12.6471 32.4234 12.6471 32.7793C12.6471 33.1352 12.9356 33.4238 13.2917 33.4238ZM13.2917 38.2198H43.696C44.0521 38.2198 44.3406 37.9312 44.3406 37.5753C44.3406 37.2194 44.0521 36.9307 43.696 36.9307H13.2917C12.9356 36.9307 12.6471 37.2194 12.6471 37.5753C12.6471 37.9312 12.9356 38.2198 13.2917 38.2198ZM38.1114 51.3185H13.2917C12.9356 51.3185 12.6471 51.6071 12.6471 51.963C12.6471 52.3189 12.9356 52.6075 13.2917 52.6075H38.1114C38.4675 52.6075 38.756 52.3189 38.756 51.963C38.756 51.6071 38.4675 51.3185 38.1114 51.3185ZM13.2917 43.0158H40.2353C40.5913 43.0158 40.8798 42.7271 40.8798 42.3712C40.8798 42.0153 40.5913 41.7267 40.2353 41.7267H13.2917C12.9356 41.7267 12.6471 42.0153 12.6471 42.3712C12.6471 42.7271 12.9356 43.0158 13.2917 43.0158ZM14.9974 18.5536C13.8957 17.0167 12.6471 15.2747 12.6471 12.2609C12.6471 9.83503 13.5991 7.7947 15.3999 6.36062C16.9703 5.11023 19.0738 4.42161 21.3231 4.42161C23.5723 4.42161 25.6758 5.11023 27.246 6.36062C29.047 7.7947 29.9988 9.83503 29.9988 12.2609C29.9988 15.2747 28.7501 17.0167 27.6486 18.5536C26.7549 19.8003 25.9831 20.877 25.9831 22.4715V25.2543C25.9831 26.3248 25.1612 27.2062 24.1156 27.3026V27.4537C24.1156 28.4055 23.3411 29.18 22.3892 29.18H20.2567C19.3049 29.18 18.5304 28.4057 18.5304 27.4537V27.3027C17.4846 27.2063 16.6627 26.325 16.6627 25.2544V22.4716C16.6627 20.8771 15.8909 19.8005 14.9972 18.5537L14.9974 18.5536ZM17.9519 23.9904H24.6942V23.2466H17.9519V23.9904ZM21.9895 17.2504C21.7715 17.276 21.5488 17.2892 21.3229 17.2892C21.0971 17.2892 20.8746 17.276 20.6566 17.2504V21.9575H21.9896L21.9895 17.2504ZM22.8265 27.4536V27.3121H19.8196V27.4536C19.8196 27.6905 20.0198 27.8908 20.2569 27.8908H22.3894C22.6264 27.8908 22.8265 27.6906 22.8265 27.4536ZM24.6929 25.2794H17.9532C17.9666 25.6917 18.3054 26.0232 18.7208 26.0232H23.9253C24.3407 26.0232 24.6795 25.6918 24.6929 25.2794ZM13.9362 12.2608C13.9362 14.8603 15.0083 16.356 16.0451 17.8025C16.9 18.9952 17.779 20.2266 17.9275 21.9575H19.3674V17.1407C19.3674 17.0712 19.367 17.0029 19.3661 16.9351C18.2038 16.4901 17.2626 15.6463 16.7381 14.5219C16.123 13.2031 16.125 12.024 16.7439 11.368C17.1467 10.9408 17.7362 10.8244 18.3211 11.0565C19.3238 11.455 20.3878 12.9463 20.6129 15.9393C21.0993 16.022 21.5461 16.0221 22.0328 15.9393C22.2579 12.9462 23.3219 11.4549 24.3246 11.0565C24.9095 10.8244 25.4988 10.9408 25.9018 11.368C26.5207 12.024 26.5227 13.203 25.9076 14.5219C25.3832 15.6463 24.4418 16.4899 23.2796 16.9349C23.2787 17.0027 23.2783 17.0712 23.2783 17.1405V21.9574H24.7182C24.8667 20.2266 25.7457 18.9951 26.6006 17.8023C27.6374 16.3559 28.7095 14.8602 28.7095 12.2607C28.7095 7.76016 24.8805 5.71042 21.3227 5.71042C17.7649 5.71042 13.9357 7.76016 13.9357 12.2607L13.9362 12.2608ZM24.7397 13.977C25.186 13.0203 25.1144 12.4115 24.9644 12.2525C24.9565 12.2443 24.9425 12.2292 24.9059 12.2292C24.8819 12.2292 24.8485 12.2357 24.8009 12.2545C24.3105 12.4493 23.6282 13.4528 23.3768 15.4611C23.9306 15.1397 24.4218 14.6586 24.7397 13.977ZM17.8454 12.2546C17.7979 12.2358 17.7643 12.2293 17.7405 12.2293C17.7039 12.2293 17.6897 12.2443 17.682 12.2527C17.5321 12.4116 17.4604 13.0204 17.9067 13.9772C18.2245 14.6588 18.7157 15.1399 19.2696 15.4614C19.0182 13.4529 18.3359 12.4494 17.8454 12.2546ZM57.4788 53.9398C57.6644 55.0345 57.4015 55.9199 56.6748 56.6467C56.4576 56.8639 56.226 57.0388 55.9791 57.1735L58.4532 62.3972C58.5628 62.6283 58.5251 62.9025 58.3574 63.0956C58.1896 63.2888 57.924 63.3645 57.6793 63.2885L55.1107 62.4892L53.8627 64.8722C53.751 65.0855 53.5303 65.2177 53.2918 65.2177C53.2771 65.2177 53.2623 65.2172 53.2472 65.2161C52.992 65.1985 52.7714 65.0315 52.685 64.7907L50.7333 59.3492C50.4569 59.433 50.1618 59.4749 49.8463 59.4749C49.5391 59.4749 49.2516 59.4347 48.9817 59.3554L47.0375 64.7987C46.9514 65.0396 46.731 65.207 46.4759 65.2249C46.4607 65.2259 46.4455 65.2266 46.4304 65.2266C46.1922 65.2266 45.9717 65.0948 45.86 64.8819L44.6088 62.5005L42.0414 63.303C41.7966 63.3795 41.5308 63.3039 41.3629 63.1111C41.1949 62.9181 41.1568 62.6441 41.2661 62.4128L42.8617 59.0324H7.14117C6.78514 59.0324 6.49664 58.7437 6.49664 58.3878V1.41797C6.49664 1.06206 6.78514 0.773438 7.14117 0.773438H42.0728C42.2438 0.773438 42.4077 0.841371 42.5285 0.962156L50.3022 8.73598C50.4231 8.85689 50.4911 9.02073 50.4911 9.19179V40.2262C51.2214 40.3778 51.8272 40.7999 52.3291 41.5068C52.7144 42.0495 53.3122 42.2968 53.968 42.1856C55.063 42.0001 55.9484 42.2629 56.6751 42.9897C57.4015 43.7161 57.6646 44.6016 57.4791 45.6965C57.3678 46.3529 57.6153 46.9502 58.1579 47.3355C59.0633 47.9786 59.5034 48.7908 59.5034 49.8183C59.5034 50.8458 59.0633 51.6579 58.1579 52.3009C57.6152 52.6863 57.3677 53.2837 57.4788 53.9399V53.9398ZM42.7174 8.54713H48.2902L42.7174 2.97413V8.54713ZM43.4704 57.7433L43.734 57.1849C43.4795 57.0487 43.2411 56.8697 43.018 56.6466C42.2916 55.9203 42.0285 55.0348 42.214 53.9398C42.3251 53.2835 42.0776 52.686 41.535 52.3007C40.6297 51.6576 40.1895 50.8456 40.1895 49.8181C40.1895 48.7906 40.6297 47.9785 41.535 47.3355C42.0777 46.9501 42.3252 46.3528 42.214 45.6966C42.0285 44.6018 42.2915 43.7164 43.0178 42.9897C43.7444 42.2632 44.6299 42.0002 45.7249 42.1856C46.3809 42.2966 46.9786 42.0492 47.3639 41.5067C47.8659 40.7997 48.4716 40.3777 49.202 40.2261V9.83619H42.0728C41.7168 9.83619 41.4283 9.54757 41.4283 9.19166V2.0625H7.78571V57.7433H43.4704ZM47.8495 58.6935C47.6778 58.531 47.5159 58.3437 47.3638 58.1295C46.9784 57.5871 46.3818 57.3396 45.7249 57.4507C45.4749 57.4931 45.2363 57.5109 45.0076 57.5062L43.0591 61.6343L44.7372 61.1098C45.0347 61.0169 45.3556 61.1496 45.5001 61.4251L46.3178 62.9815L47.8495 58.6933V58.6935ZM54.7102 57.506C54.474 57.5124 54.227 57.4945 53.9679 57.4507C53.312 57.3397 52.7142 57.5869 52.3289 58.1295C52.182 58.3363 52.0261 58.5174 51.8611 58.6759L53.4023 62.9728L54.2179 61.4152C54.3622 61.1395 54.6824 61.006 54.9803 61.0989L56.6591 61.6212L54.71 57.506H54.7102ZM58.2142 49.8181C58.2142 49.2142 57.9742 48.7861 57.4113 48.3864C56.4635 47.7134 56.0137 46.6273 56.2079 45.4811C56.3232 44.8006 56.1901 44.328 55.7633 43.9011C55.3365 43.4741 54.8633 43.3406 54.1833 43.4565C53.037 43.6505 51.951 43.2007 51.278 42.2532C50.8783 41.6903 50.4502 41.4502 49.8464 41.4502C49.2426 41.4502 48.8144 41.6903 48.4148 42.2532C47.7415 43.2009 46.6556 43.6504 45.5096 43.4565C44.8283 43.3412 44.3562 43.4744 43.9293 43.9011C43.5024 44.328 43.3695 44.8006 43.4849 45.4811C43.6791 46.6271 43.2293 47.7132 42.2815 48.3864C41.7187 48.7861 41.4786 49.2143 41.4786 49.8181C41.4786 50.4219 41.7187 50.85 42.2815 51.2498C43.2291 51.9228 43.679 53.0088 43.4849 54.1549C43.3696 54.8356 43.5027 55.3081 43.9295 55.7349C44.3564 56.162 44.8291 56.2948 45.5095 56.1795C45.6853 56.1498 45.8598 56.1351 46.0315 56.1351C46.9793 56.1351 47.8449 56.5806 48.4148 57.3829C48.8145 57.9457 49.2426 58.1858 49.8464 58.1858C50.4502 58.1858 50.8784 57.9457 51.278 57.3829C51.9512 56.4352 53.0375 55.9855 54.1832 56.1795C54.8633 56.2948 55.3364 56.1619 55.7632 55.7349C56.1903 55.3079 56.3233 54.8354 56.2078 54.1551C56.0137 53.0087 56.4635 51.9227 57.4114 51.2496C57.9741 50.85 58.2142 50.4219 58.2142 49.8181ZM54.8302 49.8181C54.8302 52.5662 52.5944 54.8019 49.8464 54.8019C47.0984 54.8019 44.8626 52.5662 44.8626 49.8181C44.8626 47.0701 47.0984 44.8344 49.8464 44.8344C52.5944 44.8344 54.8302 47.0701 54.8302 49.8181ZM53.5411 49.8181C53.5411 47.7809 51.8838 46.1234 49.8464 46.1234C47.809 46.1234 46.1517 47.7809 46.1517 49.8181C46.1517 51.8554 47.809 53.5129 49.8464 53.5129C51.8838 53.5129 53.5411 51.8554 53.5411 49.8181Z" fill="url(#paint0_linear_36_34)"/>
<defs>
<linearGradient id="paint0_linear_36_34" x1="33" y1="65.2266" x2="33" y2="0.773438" gradientUnits="userSpaceOnUse">
<stop stop-color="#8D3FFF"/>
<stop offset="1" stop-color="#00B4D1"/>
</linearGradient>
</defs>
</svg>
