<svg width="144" height="144" viewBox="0 0 144 144" fill="none" xmlns="http://www.w3.org/2000/svg">
<g clip-path="url(#clip0_20_171)">
<path d="M-0.4375 137.812C0.929688 128.041 10.5 127.991 10.5 118.125C10.5 109.375 6.125 109.375 6.125 98.4375C6.125 88.5784 14.875 87.5 14.875 78.75C14.875 68.8866 10.5 70 10.5 59.0625C10.5 24.0625 32.375 2.1875 63 2.1875C93.625 2.1875 115.5 24.0625 115.5 59.0625C115.5 70 111.125 68.8866 111.125 78.75C111.125 87.5 119.875 88.5784 119.875 98.4375C119.875 109.375 115.5 109.375 115.5 118.125C115.5 127.991 125.07 128.041 126.438 137.812H-0.4375Z" fill="#93C1F9"/>
<path d="M126.438 137.812H117.688C116.309 128.034 106.75 127.991 106.75 118.125C106.75 109.375 111.125 109.375 111.125 98.4375C111.125 88.5719 102.375 87.5 102.375 78.75C102.375 68.8844 106.75 70 106.75 59.0625C106.75 25.7469 86.9312 4.33125 58.625 2.3625C60.0688 2.23125 61.5125 2.1875 63 2.1875C93.625 2.1875 115.5 24.0625 115.5 59.0625C115.5 70 111.125 68.8844 111.125 78.75C111.125 87.5 119.875 88.5719 119.875 98.4375C119.875 109.375 115.5 109.375 115.5 118.125C115.5 127.991 125.059 128.034 126.438 137.812Z" fill="#90B4E0"/>
<path d="M87.0625 137.812C76.125 133.687 76.125 117.187 76.125 117.187V113.75H49.875V117.187C49.875 117.187 49.875 133.687 38.9375 137.812H87.0625Z" fill="#FFD29D"/>
<path d="M71.75 30.625C71.75 30.625 78.3125 52.5 102.375 52.5C102.375 52.5 102.375 118.125 63 118.125C23.625 118.125 23.625 52.5 23.625 52.5C23.625 52.5 60.8125 50.3125 71.75 30.625Z" fill="#FFD29D"/>
<path d="M102.375 52.5C102.375 52.5 102.375 118.125 63 118.125C61.9037 118.133 60.8079 118.075 59.7188 117.95C95.8125 114.428 95.8125 52.5 95.8125 52.5C90.0634 52.6267 84.3913 51.1614 79.4229 48.266C74.4545 45.3707 70.3834 41.1581 67.6594 36.0938C69.2603 34.4611 70.636 32.6219 71.75 30.625C71.75 30.625 78.3125 52.5 102.375 52.5Z" fill="#FFC08D"/>
<path d="M76.3219 120.006C72.0867 121.699 67.5609 122.547 63 122.5C58.4391 122.547 53.9133 121.699 49.6781 120.006C49.7925 119.07 49.8582 118.128 49.875 117.184V115.237C53.9892 117.139 58.4675 118.124 63 118.124C67.5325 118.124 72.0108 117.139 76.125 115.237V117.184C76.1418 118.128 76.2075 119.07 76.3219 120.006Z" fill="#FFC08D"/>
<path d="M104.562 118.125C103.982 118.125 103.426 117.894 103.016 117.484L89.8909 104.359C89.4925 103.946 89.272 103.394 89.277 102.82C89.2819 102.247 89.512 101.698 89.9176 101.293C90.3232 100.887 90.8718 100.657 91.4454 100.652C92.0189 100.647 92.5715 100.867 92.9841 101.266L106.109 114.391C106.415 114.697 106.623 115.087 106.708 115.511C106.792 115.935 106.749 116.375 106.583 116.775C106.418 117.174 106.137 117.516 105.778 117.756C105.418 117.997 104.995 118.125 104.562 118.125Z" fill="#909AB3"/>
<path d="M99.0693 117.031L105.631 110.469L120.941 125.778L114.379 132.34L99.0693 117.031Z" fill="#7C8AAE"/>
<path d="M76.125 111.562C90.6225 111.562 102.375 99.81 102.375 85.3125C102.375 70.815 90.6225 59.0625 76.125 59.0625C61.6275 59.0625 49.875 70.815 49.875 85.3125C49.875 99.81 61.6275 111.562 76.125 111.562Z" fill="#7C8AAE"/>
<path d="M76.125 107.188C88.2062 107.188 98 97.3937 98 85.3125C98 73.2313 88.2062 63.4375 76.125 63.4375C64.0438 63.4375 54.25 73.2313 54.25 85.3125C54.25 97.3937 64.0438 107.188 76.125 107.188Z" fill="#FFD29D"/>
<path d="M65.1875 80.9375C66.3956 80.9375 67.375 79.9581 67.375 78.75C67.375 77.5419 66.3956 76.5625 65.1875 76.5625C63.9794 76.5625 63 77.5419 63 78.75C63 79.9581 63.9794 80.9375 65.1875 80.9375Z" fill="#FFAA8D"/>
<path d="M63 94.0625C64.2081 94.0625 65.1875 93.0831 65.1875 91.875C65.1875 90.6669 64.2081 89.6875 63 89.6875C61.7919 89.6875 60.8125 90.6669 60.8125 91.875C60.8125 93.0831 61.7919 94.0625 63 94.0625Z" fill="#FFAA8D"/>
<path d="M76.125 102.812C77.3331 102.812 78.3125 101.833 78.3125 100.625C78.3125 99.4169 77.3331 98.4375 76.125 98.4375C74.9169 98.4375 73.9375 99.4169 73.9375 100.625C73.9375 101.833 74.9169 102.812 76.125 102.812Z" fill="#FFAA8D"/>
<path d="M89.25 91.875C90.4581 91.875 91.4375 90.8956 91.4375 89.6875C91.4375 88.4794 90.4581 87.5 89.25 87.5C88.0419 87.5 87.0625 88.4794 87.0625 89.6875C87.0625 90.8956 88.0419 91.875 89.25 91.875Z" fill="#FFAA8D"/>
<path d="M84.875 76.5625C86.0831 76.5625 87.0625 75.5831 87.0625 74.375C87.0625 73.1669 86.0831 72.1875 84.875 72.1875C83.6669 72.1875 82.6875 73.1669 82.6875 74.375C82.6875 75.5831 83.6669 76.5625 84.875 76.5625Z" fill="#FFAA8D"/>
<path d="M76.125 87.5C77.3331 87.5 78.3125 86.5206 78.3125 85.3125C78.3125 84.1044 77.3331 83.125 76.125 83.125C74.9169 83.125 73.9375 84.1044 73.9375 85.3125C73.9375 86.5206 74.9169 87.5 76.125 87.5Z" fill="#FFAA8D"/>
</g>
<defs>
<clipPath id="clip0_20_171">
<rect width="144" height="144" fill="white"/>
</clipPath>
</defs>
</svg>
