<svg width="248" height="12" viewBox="0 0 248 12" fill="none" xmlns="http://www.w3.org/2000/svg">
<mask id="mask0_273_694" style="mask-type:alpha" maskUnits="userSpaceOnUse" x="0" y="0" width="248" height="12">
<rect width="248" height="12" transform="matrix(-1 0 0 1 248 0)" fill="#C4C4C4"/>
</mask>
<g mask="url(#mask0_273_694)">
<path d="M327.172 -47.5377L326.231 -47.6959L328.062 -47.9227L327.184 -48.0887C326.304 -48.0872 325.164 -47.8384 324.543 -47.9706C324.467 -48.0985 325.426 -48.1396 325.67 -48.2416C325.887 -48.3461 326.063 -48.4499 326.198 -48.5518C325.719 -48.5507 325.192 -48.526 324.648 -48.4793C323.918 -48.4029 323.201 -48.3658 322.577 -48.372C321.302 -48.3514 320.069 -48.372 318.683 -48.3675L319.144 -48.6754L317.357 -48.6034C317.167 -48.5799 316.942 -48.6176 316.756 -48.5886C315.207 -48.343 314.551 -48.4769 313.808 -48.5878C313.655 -48.6165 313.472 -48.638 313.262 -48.6516C311.196 -48.5928 309.332 -48.2485 307.472 -48.0718C307.121 -48.0267 306.786 -47.9688 306.488 -47.9022C305.841 -47.7727 305.121 -47.667 304.394 -47.5947C303.667 -47.5224 302.957 -47.4859 302.328 -47.4885C300.937 -47.4913 299.365 -47.4057 297.765 -47.2398C297.289 -47.1852 296.813 -47.1492 296.366 -47.134C295.92 -47.1189 295.514 -47.1249 295.174 -47.1518L294.092 -46.976C293.623 -47.0474 293.028 -47.0865 292.344 -47.0911C291.66 -47.0956 290.9 -47.0655 290.111 -47.0026C289.271 -46.9343 288.417 -46.8883 287.545 -46.8161C285.743 -46.6781 283.99 -46.5937 282.339 -46.5655C279.881 -46.482 277.479 -46.4175 274.999 -46.3134C273.448 -46.2631 271.936 -46.2355 270.473 -46.2306C268.721 -46.2109 266.826 -46.1158 264.879 -45.9498C264.971 -45.794 265.825 -45.84 266.398 -45.8453C268.247 -45.8712 270.138 -45.9383 272.04 -45.9887C272.897 -46.0084 273.73 -46.0158 274.535 -46.011C275.88 -46.0174 277.298 -46.0589 278.765 -46.1348C281.082 -46.2183 283.325 -46.2584 285.471 -46.2547C285.639 -46.2486 285.794 -46.2376 285.931 -46.2221C285.96 -46.2087 285.965 -46.1917 285.948 -46.1729C285.93 -46.1541 285.889 -46.134 285.829 -46.1146C285.769 -46.0952 285.692 -46.0771 285.605 -46.0621C285.519 -46.047 285.425 -46.0356 285.334 -46.0287C284.482 -45.9232 283.566 -45.8098 282.762 -45.7938C282.731 -45.7926 282.698 -45.7899 282.665 -45.7858C282.633 -45.7818 282.601 -45.7765 282.573 -45.7704C280.773 -45.5475 279.294 -45.5852 277.892 -45.5489C275.565 -45.4509 273.321 -45.4052 271.196 -45.4123C270.874 -45.4118 270.527 -45.3991 270.167 -45.3745C267.941 -45.2751 265.859 -45.264 264.019 -45.3417C263.262 -45.3614 262.558 -45.4056 261.745 -45.4063C261.243 -45.4093 260.807 -45.4375 260.462 -45.4892C260.117 -45.5409 259.87 -45.615 259.736 -45.707C259.393 -45.6585 259.044 -45.6154 258.695 -45.578C258.486 -45.5566 258.285 -45.5509 258.134 -45.5621C257.983 -45.5733 257.892 -45.6005 257.879 -45.6383C257.817 -45.744 258.294 -45.797 258.707 -45.8423C258.458 -45.865 258.177 -45.8783 257.871 -45.882C256.147 -45.9062 254.297 -45.8777 252.363 -45.7971C250.862 -45.7007 249.663 -45.7792 248.083 -45.6432C247.894 -45.6198 247.738 -45.6542 247.563 -45.6625C247.109 -45.706 246.542 -45.7158 245.913 -45.691C245.285 -45.6661 244.612 -45.6075 243.954 -45.52C243.135 -45.7589 241.365 -45.486 240.058 -45.4614C239.655 -45.3399 240.117 -45.3613 240.137 -45.3279C240.157 -45.2945 240.137 -45.3279 240.295 -45.3475C241.6 -45.1754 243.388 -45.1379 245.408 -45.2402C245.781 -45.2398 246.137 -45.2319 246.472 -45.2167C246.979 -45.1953 247.551 -45.1974 248.163 -45.2231C248.831 -45.2419 249.445 -45.233 249.974 -45.1967C250.279 -45.1972 250.537 -45.179 250.724 -45.1437C250.911 -45.1084 251.02 -45.0571 251.043 -44.9946C250.839 -44.9464 250.614 -44.9023 250.375 -44.864C249.127 -44.713 247.883 -44.6505 246.887 -44.6888C245.153 -44.7548 243.09 -44.6904 241.247 -44.7129C240.001 -44.7221 238.675 -44.6961 237.294 -44.6354C237.294 -44.6354 237.33 -44.5742 237.334 -44.5687C237.17 -44.5422 236.999 -44.5209 236.829 -44.5061C236.829 -44.5061 236.829 -44.5061 236.812 -44.5339C236.888 -44.5606 236.99 -44.5858 237.108 -44.6064L237.518 -44.6572C237.24 -44.6705 236.979 -44.7099 236.688 -44.6858C236.076 -44.6411 235.49 -44.6222 234.967 -44.6303C234.444 -44.6384 233.994 -44.6732 233.644 -44.7328C233.024 -44.8092 232.254 -44.8439 231.381 -44.8347C230.713 -44.8431 230.069 -44.861 229.452 -44.8884C229.452 -44.8884 229.412 -44.9551 229.12 -44.9906C229.397 -45.0344 229.685 -45.0701 229.972 -45.0962C231.222 -45.1613 232.474 -45.2209 233.701 -45.2654C234.154 -45.2702 234.579 -45.2628 234.968 -45.2432C236.048 -45.2203 237.262 -45.2528 238.538 -45.3389C238.538 -45.3389 238.79 -45.3701 238.917 -45.3858C238.558 -45.5325 237.324 -45.3856 236.825 -45.485C236.521 -45.4832 235.986 -45.4707 236.004 -45.4969C236.046 -45.5318 236.051 -45.5642 236.019 -45.5918C235.987 -45.6195 235.918 -45.6416 235.819 -45.6567C235.719 -45.6717 235.591 -45.6794 235.443 -45.679C235.294 -45.6786 235.13 -45.6702 234.962 -45.6544C233.557 -45.5692 232.233 -45.5455 231.072 -45.5848C230.632 -45.584 230.139 -45.5587 229.702 -45.5524C229.435 -45.5448 229.191 -45.549 228.983 -45.5649C227.928 -45.6816 226.508 -45.6901 224.936 -45.5892C224.177 -45.5529 223.467 -45.548 222.844 -45.5749C222.4 -45.5797 222.212 -45.4967 221.896 -45.4576L220.556 -45.3751L222.278 -45.2719C221.91 -45.0352 221.617 -44.9571 221.016 -44.9424C220.139 -44.9201 219.284 -44.9101 218.458 -44.9123C217.847 -44.9142 217.342 -44.9652 216.515 -44.8747C216.369 -44.8599 216.228 -44.8551 216.116 -44.8611C215.147 -44.9415 213.981 -44.9599 212.696 -44.9152C212.03 -45.0657 210.897 -44.9194 209.849 -44.8015C209.51 -44.9148 210.123 -44.9669 210.489 -45.0361C209.612 -45.029 208.729 -45.033 207.823 -45.0165C207.551 -45.0225 207.24 -45.0122 206.914 -44.9863C206.589 -44.9605 206.257 -44.9199 205.946 -44.8676C205.795 -44.8338 205.612 -44.8084 205.436 -44.7966C205.26 -44.7848 205.104 -44.7875 205.001 -44.8042C204.531 -44.8536 203.779 -44.8081 203.391 -44.8914C203.253 -44.9106 203.055 -44.9133 202.834 -44.899C202.613 -44.8847 202.382 -44.8544 202.183 -44.8135C202.401 -44.8008 202.595 -44.7807 202.76 -44.7537C203.355 -44.666 203.136 -44.5196 202.382 -44.3066C201.222 -44.3183 200.038 -44.315 198.964 -44.3552C198.365 -44.3912 197.632 -44.3799 196.845 -44.3226C196.059 -44.2653 195.252 -44.1643 194.514 -44.0309C194.247 -43.9796 193.942 -43.9441 193.661 -43.9313C193.38 -43.9186 193.142 -43.9297 192.996 -43.9623C192.904 -44 192.876 -44.0478 192.913 -44.1014L193.671 -44.1952C193.671 -44.1952 193.641 -44.2453 193.634 -44.2564L192.545 -44.2648C191.969 -44.2651 191.368 -44.2504 190.823 -44.2546C190.023 -44.2825 189.109 -44.267 188.139 -44.2088C187.244 -44.1492 186.364 -44.1042 185.508 -44.0741C184.679 -44.0431 184.078 -44.1419 183.29 -44.1576C182.693 -44.1695 182.037 -44.1568 181.346 -44.12C180.153 -44.0547 179.058 -44.0546 178.161 -44.1197C177.115 -43.7691 176.607 -43.7121 175.636 -43.8069L175.179 -43.8339L175.054 -43.7587L174.706 -43.7753C174.053 -43.79 173.4 -43.8047 172.719 -43.81C171.773 -43.7774 170.75 -43.6899 169.752 -43.556C169.563 -43.5325 169.305 -43.4528 169.139 -43.3904C168.972 -43.328 168.61 -43.1397 168.343 -43.0172C168.634 -42.9277 168.955 -42.8421 169.186 -42.7393C169.209 -42.7217 169.207 -42.7008 169.179 -42.6781C169.152 -42.6555 169.1 -42.6318 169.028 -42.6089C168.956 -42.586 168.865 -42.5646 168.764 -42.5464C168.663 -42.5282 168.553 -42.5137 168.444 -42.5041C168.232 -42.4834 168.023 -42.4695 167.825 -42.4632C166.849 -42.4523 165.915 -42.4604 165.031 -42.4875C164.709 -42.5258 164.267 -42.5294 163.776 -42.4978C163.285 -42.4663 162.774 -42.4013 162.322 -42.3132C161.166 -42.3661 159.822 -42.3505 158.384 -42.2674C156.863 -42.3179 155.026 -42.2158 153.605 -42.3264C153.638 -42.2708 153.491 -42.175 153.287 -42.1198C152.964 -42.036 152.597 -41.9583 152.203 -41.8901L149.198 -41.7568C149.086 -41.6883 148.946 -41.6189 148.779 -41.5496C148.665 -41.4948 148.466 -41.4412 148.225 -41.4002C147.983 -41.3592 147.718 -41.3339 147.486 -41.3297C146.888 -41.3094 146.387 -41.3548 145.674 -41.2426C146.772 -41.1366 148.253 -41.1507 149.852 -41.2824C151.355 -41.3826 152.801 -41.4326 154.136 -41.4307C154.576 -41.4315 155.156 -41.4256 155.293 -41.365C155.598 -41.1938 156.395 -41.2208 157.325 -41.2524C158.056 -41.287 158.723 -41.2831 159.273 -41.2411C159.822 -41.1991 160.237 -41.1201 160.485 -41.0107C160.547 -40.905 160.397 -40.8148 159.756 -40.7532L157.09 -40.5066C156.697 -40.5383 156.324 -40.5758 155.972 -40.6191C155.381 -40.6764 154.65 -40.6922 153.837 -40.6651C153.025 -40.638 152.152 -40.5687 151.287 -40.4627C150.845 -40.408 150.403 -40.3533 150.083 -40.3793C149.801 -40.4092 149.542 -40.4449 149.308 -40.4863C149.26 -40.5141 149.241 -40.546 149.251 -40.5809C149.081 -40.5647 148.911 -40.5436 148.746 -40.5183C147.43 -40.2239 146.41 -40.229 145.484 -40.3054C145.233 -40.3281 145.042 -40.3642 144.788 -40.3924C144.534 -40.4207 144.445 -40.4574 144.214 -40.4467C142.374 -40.3501 141.844 -40.6727 140.292 -40.6597C140.217 -40.6723 140.17 -40.6911 140.156 -40.7145C140.142 -40.7378 140.162 -40.7649 140.213 -40.7932C140.323 -40.8188 140.45 -40.8408 140.582 -40.8572C140.714 -40.8736 140.848 -40.8839 140.971 -40.8871C141.685 -40.9285 142.315 -40.9158 142.754 -40.8512C143.065 -40.8248 143.395 -40.8037 143.741 -40.7882L145.294 -41.2553C143.789 -41.2124 142.366 -41.2127 141.057 -41.2561C140.772 -41.2804 140.288 -41.2385 139.886 -41.2305L136.93 -41.1869C136.322 -41.1832 135.804 -41.2565 134.957 -41.0858C134.957 -41.0858 134.397 -41.0582 134.248 -41.0816C134.098 -41.1049 133.436 -41.2498 133.041 -41.3442C132.583 -41.3173 131.948 -41.2447 131.663 -41.269C131.164 -41.3288 130.732 -41.4055 130.375 -41.4977L128.589 -41.3661C128.591 -41.2492 128.656 -41.1392 128.784 -41.0379C128.923 -40.9401 128.918 -40.8227 128.77 -40.6954C128.622 -40.568 128.334 -40.4343 127.93 -40.3051L126.167 -39.6209C125.879 -39.5751 125.573 -39.5442 125.288 -39.5326C125.004 -39.5209 124.757 -39.5289 124.579 -39.5556C123.821 -39.6349 122.971 -39.6968 122.212 -39.776C121.233 -39.6548 121.485 -39.459 120.773 -39.2873L118.469 -39.0019C118.117 -38.7374 117.759 -38.484 118.828 -38.3955C119.041 -38.38 118.897 -38.2786 119.091 -38.237C118.26 -38.0385 117.347 -37.979 116.504 -37.8568C116.172 -37.7689 115.894 -37.6758 115.684 -37.5821C115.454 -37.4409 114.986 -37.2968 114.383 -37.1807C113.78 -37.0647 113.089 -36.986 112.46 -36.9617C111.404 -36.8874 110.324 -36.7758 109.266 -36.6319C108.905 -36.5819 108.534 -36.5454 108.178 -36.525C107.822 -36.5046 107.489 -36.5007 107.202 -36.5136C106.179 -36.5362 105.313 -36.6141 104.66 -36.7422C104.015 -36.8509 103.145 -36.9033 102.13 -36.8947C100.394 -36.6796 100.043 -36.3556 98.9926 -36.0702L100.808 -36.0382C100.874 -35.9269 100.753 -35.7866 101.497 -35.7892C102.241 -35.7917 101.864 -35.6853 101.623 -35.5777C101.538 -35.5237 101.372 -35.468 101.153 -35.4203C100.934 -35.3725 100.676 -35.3355 100.423 -35.3156L98.8775 -35.178C98.3296 -35.1256 97.7994 -35.1033 97.345 -35.1134C96.8906 -35.1235 96.5297 -35.1657 96.302 -35.2353C96.0405 -35.3014 95.6795 -35.3461 95.2414 -35.3667C94.683 -35.4206 94.2237 -35.5008 93.8807 -35.6042L91.6995 -35.4535C91.6066 -35.5575 91.3069 -35.6304 90.851 -35.6599C90.3951 -35.6894 89.8111 -35.6737 89.1975 -35.6154L87.7274 -35.5229C86.0928 -35.422 85.7342 -35.4552 85.2556 -35.7483L87.2158 -36.2718C86.9308 -36.4096 86.6557 -36.5308 86.3805 -36.652C86.869 -36.8245 87.5205 -36.9876 88.2691 -37.1248C88.9677 -37.2722 89.686 -37.415 90.4215 -37.5526C91.2193 -37.6932 92.0618 -37.8155 93.0522 -37.974C93.2252 -38.0253 93.4764 -38.1161 93.7972 -38.2036C94.1184 -38.2887 94.4535 -38.3721 94.8014 -38.4534C94.7354 -38.5647 94.6761 -38.6648 94.8028 -38.794C94.1929 -38.7528 93.5627 -38.6807 92.9691 -38.5842C92.3755 -38.4878 91.8372 -38.37 91.4026 -38.2415C91.3297 -38.2187 91.2401 -38.1973 91.14 -38.1787C91.04 -38.1601 90.9317 -38.1448 90.8226 -38.1338C89.7511 -38.0549 89.2389 -37.8899 88.715 -37.6877C88.3621 -37.5843 87.9073 -37.4924 87.4135 -37.4249C86.4664 -37.3076 85.5391 -37.157 84.6334 -37.0269C84.3563 -36.9835 84.0682 -36.9478 83.7811 -36.9213C82.8344 -36.8369 81.8816 -36.7189 80.9713 -36.5733C80.6742 -36.5363 80.389 -36.4873 80.1397 -36.4305C79.8905 -36.3736 79.6843 -36.3106 79.5384 -36.2465C79.7638 -36.1764 79.8854 -36.0879 79.896 -35.9863C79.9355 -35.9195 79.2706 -35.7834 78.9563 -35.6847C78.642 -35.5861 79.2584 -35.6326 79.4676 -35.6227C80.3261 -35.6036 80.4853 -35.5636 79.9712 -35.3446C79.7995 -35.2758 79.6855 -35.2069 79.6363 -35.1423C79.5872 -35.0776 79.604 -35.0186 79.6856 -34.9689C79.8076 -34.763 80.1788 -34.594 80.4337 -34.3927C80.0379 -34.26 79.3764 -34.1184 79.3042 -33.9542C79.2696 -33.9178 79.1964 -33.8792 79.0899 -33.8412C78.9835 -33.8032 78.8465 -33.7668 78.6889 -33.7346C78.2733 -33.6651 77.8954 -33.582 77.5845 -33.4918C77.2737 -33.4015 77.0382 -33.3064 76.8963 -33.214C76.8499 -33.1758 76.7377 -33.1353 76.5824 -33.1005C76.427 -33.0657 76.2398 -33.0394 76.0585 -33.0267C75.8418 -33.011 75.6478 -33.0131 75.5165 -33.0324C75.3852 -33.0517 75.3268 -33.0868 75.3532 -33.1304C75.3479 -33.2123 75.3765 -33.2977 75.4389 -33.3859C75.4027 -33.4471 75.3664 -33.5083 75.5096 -33.6096C74.8626 -33.5726 74.1833 -33.4985 73.5454 -33.3953C72.9075 -33.2921 72.3357 -33.1637 71.8918 -33.0242C71.4013 -32.8798 70.9489 -32.7282 70.4051 -32.5594C70.5172 -32.3702 70.5172 -32.3702 69.3599 -32.0358L63.2213 -31.8727L61.9632 -31.6512C60.7899 -31.4581 60.511 -31.4713 59.774 -31.5711L59.278 -31.665C58.2362 -31.5359 57.0365 -31.3874 56.3849 -31.6291C56.1733 -31.4715 56.0352 -31.4186 56.0833 -31.3947C56.3942 -31.1621 56.9347 -30.9648 57.6833 -30.8105C57.8741 -30.7745 58.0084 -30.7194 58.2308 -30.6873C58.9478 -30.5057 59.1141 -30.225 58.6957 -29.9028C58.488 -29.7602 58.1864 -29.6142 57.8004 -29.4694C58.3653 -29.2686 59.1136 -29.1021 60.0253 -28.9746C60.799 -28.8759 61.4361 -28.7438 61.9184 -28.582C62.3514 -28.4189 62.9999 -28.2963 63.8266 -28.2212C64.246 -28.1892 64.552 -28.1263 64.7142 -28.0385C64.7625 -27.8009 64.6516 -27.5464 64.3839 -27.2809C64.3334 -27.2001 64.1902 -27.1128 63.9653 -27.0259C63.7405 -26.939 63.4403 -26.8549 63.088 -26.78C63.088 -26.78 62.9184 -26.7232 62.8369 -26.6892C62.7689 -26.4015 63.0232 -26.1479 63.5826 -25.9455C63.6743 -25.8881 63.8618 -25.8466 64.1251 -25.8255C64.3883 -25.8045 64.7173 -25.8046 65.0766 -25.826C65.8357 -25.8603 66.5449 -25.8645 67.279 -25.8837C68.0701 -25.911 68.7669 -25.8895 69.2961 -25.8216C69.8254 -25.7537 70.1675 -25.6418 70.2865 -25.4978C70.2943 -25.457 70.3174 -25.418 70.3558 -25.381C70.3781 -25.3619 70.3902 -25.3414 70.392 -25.3198L68.7061 -24.8482L70.6134 -24.6604C70.7255 -24.4713 69.8099 -24.3579 69.351 -24.2174L69.6346 -24.1391C69.9998 -24.0947 70.4917 -24.1795 70.937 -24.2287L71.379 -24.2835L71.4318 -24.1944C71.7069 -24.0732 72.7105 -24.2095 73.102 -24.1206C73.4936 -24.0318 73.2141 -23.9315 72.6275 -23.8349C72.2197 -23.7632 71.7818 -23.7059 71.3467 -23.6676C70.9116 -23.6292 70.4907 -23.6107 70.1156 -23.6134C69.8916 -23.6229 69.7058 -23.6446 69.5695 -23.6771C68.7778 -23.8158 67.9032 -23.9349 66.9522 -24.0338C66.223 -24.1225 65.31 -24.1603 64.2772 -24.1444C63.9742 -24.1511 63.6087 -24.1301 63.2449 -24.085C62.8812 -24.04 62.5426 -23.9738 62.2884 -23.8981L61.7535 -23.8856C61.7535 -23.8856 61.461 -23.8075 61.5024 -23.7948C61.706 -23.5635 61.4694 -23.2809 60.8279 -22.9886L61.3858 -22.9622C62.183 -22.9892 61.6775 -22.8132 61.7967 -22.7264C62.363 -22.7428 63.099 -22.816 63.3676 -22.706L63.7695 -22.7139L63.6117 -22.6944L63.4208 -22.7305L62.6711 -22.566C63.0264 -22.5383 63.2837 -22.5045 63.5975 -22.4896C63.7708 -22.4766 63.9088 -22.4538 64.0031 -22.4224C64.0975 -22.3909 64.1462 -22.3516 64.1464 -22.3068C64.1455 -22.2377 64.239 -22.1796 64.4179 -22.138C64.5967 -22.0964 64.8552 -22.0727 65.1684 -22.069C65.542 -22.0675 65.7559 -21.9925 65.975 -21.9659L65.0231 -21.5136C65.0231 -21.5136 65.4967 -21.5722 65.2389 -21.4925L65.2059 -21.5482L64.6292 -21.4349C64.2136 -21.3357 63.9229 -21.3116 63.6774 -21.3827C63.432 -21.4539 63.4879 -21.3593 63.3701 -21.3865C63.413 -21.3142 63.6802 -21.2636 63.9091 -21.2203C64.1739 -21.1863 64.4727 -21.1613 64.8006 -21.1456C64.2097 -20.8276 64.1814 -20.8181 65.0446 -20.7339C65.9078 -20.6497 65.61 -20.5233 66.3323 -20.5052C67.0547 -20.4872 66.2333 -20.272 65.7499 -20.23C65.3915 -20.2025 65.0261 -20.1595 64.6787 -20.1041C64.3313 -20.0487 64.0101 -19.9822 63.7374 -19.9091L63.8825 -19.6643C64.0951 -19.6846 64.308 -19.711 64.5139 -19.7425C65.2137 -19.877 65.8502 -20.0036 66.4726 -19.9254L66.1762 -19.7394L68.3489 -19.8473C68.2927 -19.7079 67.9615 -19.5491 67.4253 -19.4044C67.5061 -19.3249 67.5556 -19.2413 67.5737 -19.154C67.6099 -19.0928 67.8244 -19.1313 67.9638 -19.1247C68.4615 -19.1145 68.8697 -19.073 69.1529 -19.004C69.4361 -18.9349 69.5856 -18.8404 69.5879 -18.7287C69.644 -18.6341 68.8792 -18.4379 68.4009 -18.4443C67.2068 -18.4255 65.9156 -18.3527 64.597 -18.23C63.7932 -18.214 63.6797 -18.4627 62.357 -18.293C62.3307 -18.1781 62.5002 -18.0851 62.8396 -18.0281C63.1791 -17.971 63.6703 -17.9529 64.2389 -17.9766C63.9156 -17.7216 62.1251 -17.6551 62.0458 -17.3885C62.4917 -17.4073 62.9685 -17.4516 63.429 -17.517C63.8894 -17.5824 64.3177 -17.6667 64.6714 -17.7614C64.7477 -17.7848 64.8435 -17.8063 64.95 -17.824C65.0565 -17.8417 65.1702 -17.8551 65.2805 -17.8628C65.3908 -17.8705 65.4942 -17.8723 65.5812 -17.8681C65.6681 -17.8639 65.7357 -17.8538 65.7778 -17.8388C65.5299 -17.7424 65.257 -17.6309 64.946 -17.5267C64.635 -17.4225 64.5601 -17.3774 64.3358 -17.3556C62.6626 -17.1484 61.8671 -16.7751 60.4196 -16.5302C60.0408 -16.4832 59.9936 -16.3341 60.3225 -16.3509C60.6354 -16.3678 60.9186 -16.3656 61.1406 -16.3446C61.3625 -16.3235 61.5144 -16.2845 61.5792 -16.2319C61.822 -16.1704 62.1243 -16.1216 62.4786 -16.0865C60.9941 -15.7035 59.224 -15.365 57.3346 -15.103C56.9767 -15.0512 56.6035 -15.0196 56.2696 -15.0129C55.2149 -15.0125 54.0957 -14.9821 52.9346 -14.9223C52.5228 -14.906 52.1422 -14.9075 51.8137 -14.9268C50.7361 -14.9725 49.8803 -14.8725 49.0986 -14.5905L47.8046 -14.1436C47.8475 -14.0713 48.0647 -13.9907 48.2319 -13.88L47.2212 -13.6414L39.508 -14.191L37.9596 -13.6589L35.7394 -13.6884C35.5692 -13.6731 35.3982 -13.6519 35.2343 -13.6259C34.7852 -13.4687 34.4341 -13.3178 33.9469 -13.1678C33.4596 -13.0179 32.5894 -12.9997 31.9825 -12.823C31.3756 -12.6463 30.7677 -12.6427 30.0166 -12.5377C29.946 -12.401 30.019 -12.2779 30.231 -12.1761C30.3002 -12.0593 30.6819 -11.9871 30.7478 -11.8758C30.7406 -11.7634 30.8823 -11.6679 31.1604 -11.5981C31.4385 -11.5282 31.8441 -11.4862 32.3403 -11.4759C33.73 -11.2364 35.4057 -11.0659 37.3169 -10.9695C37.4848 -10.9625 37.624 -10.9463 37.7259 -10.922C37.8277 -10.8976 37.8901 -10.8656 37.9091 -10.8279C37.9065 -10.7187 38.034 -10.6244 38.2822 -10.5518C38.5304 -10.4792 38.8932 -10.4302 39.3439 -10.4084C39.4639 -10.404 39.5545 -10.3903 39.6043 -10.369C39.7753 -10.3552 39.8999 -10.3289 39.9659 -10.2926C40.032 -10.2563 40.0373 -10.2112 39.9815 -10.1616C39.9257 -10.1121 39.8106 -10.0598 39.6473 -10.0098C39.484 -9.9598 39.278 -9.91379 39.0492 -9.87621C38.7174 -9.81569 38.3785 -9.75777 38.0338 -9.70267C38.0536 -9.66929 38.3956 -9.66388 38.3457 -9.63381C38.2106 -9.53781 38.1794 -9.44789 38.2543 -9.37113C38.3292 -9.29438 38.5082 -9.23291 38.7772 -9.19159L36.9338 -8.41386C35.8149 -8.30613 34.7173 -8.12344 33.8494 -7.90046C33.8482 -7.86393 33.8982 -7.83331 33.9942 -7.81167C34.0903 -7.79004 34.2291 -7.77814 34.3968 -7.77716C34.8468 -7.76123 35.2719 -7.73027 35.7567 -7.71268C36.0531 -7.69954 36.2996 -7.67062 36.4822 -7.62762C36.6648 -7.58461 36.7796 -7.52838 36.8201 -7.46218L35.7377 -7.17286C36.0845 -7.10234 36.3418 -7.06851 36.5708 -7.02521C36.441 -6.93429 36.2178 -6.84024 35.9185 -6.75036C35.6192 -6.66047 35.2518 -6.57716 34.8447 -6.50686C34.7356 -6.49237 34.6242 -6.48178 34.5172 -6.4757C34.4102 -6.46963 34.3097 -6.46821 34.2218 -6.47152C33.3835 -6.57074 32.403 -6.39556 31.4507 -6.22984C30.4984 -6.06412 29.9815 -5.96426 29.2784 -5.83538L27.9332 -5.81807C27.5928 -5.75706 27.2889 -5.68531 27.0461 -5.60856C26.8032 -5.53182 26.6281 -5.45222 26.5347 -5.37612C26.6072 -5.25372 27.2452 -5.3208 27.6254 -5.30817C28.5275 -5.23199 29.7136 -5.24824 30.9869 -5.35423C31.3026 -5.39334 31.6263 -5.36176 31.9335 -5.35801C32.5962 -5.34279 33.2331 -5.31799 33.8413 -5.28375C34.2418 -5.25189 34.6161 -5.21247 34.9617 -5.16573C35.0541 -5.00995 33.6004 -4.88963 34.4254 -4.81266C34.1413 -4.77747 34.0349 -4.72845 33.8888 -4.74619C32.9529 -4.64502 32.0308 -4.59501 31.2294 -4.60195C29.6915 -4.62344 27.9452 -4.55245 26.1335 -4.39481C24.1779 -4.2315 22.3021 -4.16292 20.6607 -4.19474C20.0355 -4.1966 19.3367 -4.16316 18.6176 -4.09697C17.7683 -4.00527 16.925 -3.94762 16.1424 -3.92777C15.8833 -3.92707 15.5945 -3.91146 15.2998 -3.88221C15.005 -3.85297 14.7125 -3.81092 14.4461 -3.75948C14.4692 -3.72053 14.7231 -3.69226 14.6666 -3.67332C13.8565 -3.38189 13.5281 -3.07845 12.2813 -2.7807C11.4289 -2.67513 10.4502 -2.55392 9.89285 -2.6939C9.33545 -2.83389 9.53522 -2.95418 10.6444 -3.31252C10.4037 -3.31769 10.1138 -3.30094 9.8253 -3.26521C9.53682 -3.22948 9.26807 -3.17703 9.06596 -3.11702L8.10661 -2.8489L7.24196 -2.59252C7.3178 -2.46455 7.37715 -2.36441 7.4398 -2.2587C7.53876 -2.14642 7.43016 -2.00976 7.12923 -1.86789C6.94764 -1.79043 6.78958 -1.71296 6.6565 -1.63616C6.11599 -1.32904 5.95946 -1.03875 6.20448 -0.797852C6.67402 -0.45149 7.3278 -0.132806 8.15833 0.154544C9.03562 0.434065 9.51575 0.786663 10.2385 1.0913C10.6072 1.23001 11.0549 1.35435 11.577 1.46299C12.5674 1.70462 13.6525 1.93451 14.6462 2.1817C15.6398 2.42889 16.7618 2.60645 17.8653 2.81018C19.5083 3.05197 21.2843 3.26079 23.1834 3.43548C24.3585 3.58854 25.5652 3.73768 26.6522 3.9136C27.936 4.1119 29.4442 4.2543 31.1392 4.33726C32.6363 4.43658 33.9739 4.58345 35.1263 4.77507C35.2472 4.79579 35.3426 4.82217 35.4099 4.85342C35.6174 5.04883 36.1989 5.18655 37.0656 5.24554C37.0129 5.30275 36.9456 5.36093 36.8639 5.41982C36.7436 5.49 36.7186 5.55568 36.7921 5.60833C36.8656 5.66099 37.0342 5.6982 37.2761 5.71515C37.9694 5.76354 38.5456 5.84575 38.9789 5.9581C39.1382 5.98629 39.2368 6.02735 39.2667 6.07774C39.2966 6.12812 39.2567 6.18634 39.1504 6.24741C39.0563 6.31027 39.0494 6.36809 39.1306 6.41339C39.2118 6.4587 39.3774 6.4894 39.606 6.50153C40.1928 6.56101 40.8211 6.60887 41.4869 6.6448C42.9037 6.72402 44.5516 6.72308 46.3312 6.64202C46.5206 6.61856 46.7114 6.65465 46.9324 6.62728C48.1908 6.53644 49.3596 6.52238 50.2971 6.58678C51.3964 6.61187 52.5456 6.60689 53.7047 6.6186C55.3794 6.61074 56.9241 6.65851 58.296 6.76062C59.8641 6.66195 60.7452 6.83351 62.0688 6.8368C63.2907 6.85442 64.4489 6.89669 65.5324 6.9632C67.2791 7.05144 69.0191 7.12856 70.7408 7.23183C72.356 7.28108 73.8431 7.37516 75.177 7.5125C75.6882 7.57459 76.6136 7.4779 76.9618 7.60796C77.31 7.73803 78.0125 7.72267 78.5803 7.76582L80.3718 7.8724C80.6798 7.89776 81.0186 7.91383 81.3828 7.92036C83.0485 7.92905 84.2019 8.10271 85.7479 8.13817L85.9058 8.11861C88.6507 8.37678 91.792 8.51846 95.237 8.5395C97.2494 8.61872 99.4499 8.61492 101.585 8.67293C102.095 8.789 103.298 8.64599 103.936 8.75199C104.575 8.85799 105.619 8.7885 106.442 8.80593C107.266 8.82336 108.071 8.86696 108.951 8.86544C109.716 8.86594 110.361 8.91328 110.829 9.00315C111.897 9.15172 113.198 9.23907 114.676 9.26128C116.63 9.29989 118.478 9.38752 120.466 9.36824C120.438 9.47652 120.56 9.56864 120.819 9.63512C121.079 9.70161 121.467 9.74006 121.944 9.74654C124.07 9.78786 125.997 9.89549 128.151 9.92734L128.727 9.92764L135.169 9.98978C136.904 10.0018 138.576 10.0216 140.347 10.0353C141.01 9.95316 141.026 10.0945 141.484 10.0676C141.612 9.99795 141.764 9.96727 141.989 10.005L142.039 10.0885L149.39 10.1992C152.268 10.2801 155.296 10.3044 158.447 10.2718C159.195 10.28 159.893 10.3076 160.529 10.3543C161.12 10.3714 161.735 10.3789 162.373 10.3769C163.234 10.3558 164.076 10.3452 164.895 10.3451C167.049 10.3769 169.309 10.3598 171.668 10.3364C174.026 10.3131 175.813 10.3545 177.912 10.3514C179.333 10.3485 180.748 10.3345 182.22 10.3015C182.922 10.2862 183.788 10.2028 184.515 10.1725C185.243 10.1421 185.48 10.1425 185.577 10.1903C185.893 10.3243 186.689 10.2377 187.325 10.2246C188.566 10.2023 188.742 10.1566 189.079 9.81031L187.557 9.70026C187.184 9.66475 186.714 9.6585 186.194 9.68214C185.674 9.70577 185.12 9.75849 184.587 9.8352C184.377 9.86808 184.157 9.89406 183.941 9.91163C183.724 9.92921 183.515 9.93805 183.326 9.93761C181.79 9.91884 180.275 9.87947 178.799 9.84731L178.583 9.82627L178.57 9.51741C178.765 9.48709 178.968 9.46201 179.17 9.44313L186.574 9.24271C188.273 9.19352 190.037 9.08252 191.705 9.03723C193.372 8.99194 194.271 8.96426 195.565 8.91747C196.111 8.89082 196.667 8.8558 197.231 8.81265C197.198 8.7829 197.179 8.75128 197.175 8.71807C197.145 8.668 197.105 8.60123 197.345 8.54769C197.606 8.47211 197.955 8.40756 198.322 8.36694C198.667 8.3401 199.001 8.32491 199.312 8.32196C200.814 8.29609 202.529 8.13294 204.092 7.86733L204.637 8.0446C206.984 7.94503 209.366 7.84709 211.818 7.75248C212.309 7.72668 212.824 7.67716 213.325 7.60764C213.861 7.54117 214.355 7.40238 214.92 7.32644C215.478 7.27179 216.033 7.22916 216.573 7.19935C216.427 7.15373 216.234 7.11727 216.001 7.0911C215.771 7.08193 215.604 7.05343 215.523 7.00974C215.442 6.96605 215.452 6.90945 215.552 6.84811C215.726 6.74286 215.803 6.64376 215.423 6.63114C215.072 6.60713 214.82 6.55517 214.699 6.48137C214.577 6.40758 214.59 6.31502 214.736 6.21462C214.8 6.15593 214.845 6.09847 214.871 6.04261L215.029 6.02305C215.55 5.81523 216.589 5.74019 217.336 5.57011C217.688 5.52079 218.053 5.49243 218.372 5.48949C219.198 5.45294 220.002 5.43699 220.856 5.39097C221.263 5.36979 221.69 5.33118 222.11 5.27742C222.71 5.20313 222.773 5.1953 223.121 4.92524C222.58 4.92996 222.152 4.88961 221.907 4.81103C221.663 4.73245 221.619 4.62046 221.781 4.49401C222.227 4.21778 222.699 3.92651 224.717 3.73025C224.059 3.72057 223.425 3.70135 222.819 3.67268C222.643 3.66651 222.511 3.64621 222.441 3.61452C222.371 3.58282 222.366 3.54125 222.427 3.49534C222.489 3.44944 222.613 3.40139 222.784 3.35766C222.954 3.31391 223.163 3.27657 223.382 3.25059C224.448 3.09432 225.559 2.98974 226.592 2.9486C227.463 2.9304 228.248 2.94061 229.264 2.94014L230.464 2.79156C230.444 2.75818 230.62 2.71247 230.576 2.69412C230.271 2.52286 229.935 2.3555 229.588 2.17145C230.141 2.07207 230.62 1.9521 230.971 1.82527C231.321 1.69844 231.529 1.56988 231.569 1.45432C231.599 1.41946 231.591 1.38769 231.546 1.36126C231.501 1.33484 231.42 1.3144 231.309 1.3014C230.993 1.27905 230.75 1.23636 230.597 1.17661C230.444 1.11686 230.386 1.04165 230.427 0.956771L231.36 0.644146C234.169 0.421081 236.928 0.261716 239.584 0.169004L241.983 0.0988948C242.272 0.0152849 242.182 -0.0214034 241.91 -0.0235046C241.638 -0.0256059 240.872 -0.00243198 240.337 0.0100561C239.875 0.0264584 239.465 0.0156883 239.147 -0.0212154C238.828 -0.0581211 238.611 -0.119907 238.518 -0.200582L239.323 -0.557112C239.284 -0.623877 239.228 -0.718466 238.791 -0.71214C238.493 -0.719873 238.273 -0.753476 238.167 -0.807543C238.061 -0.861605 238.075 -0.93297 238.208 -1.01015C238.228 -1.06598 238.198 -1.11682 238.119 -1.16037C237.473 -1.16397 236.83 -1.16201 236.244 -1.17899C235.971 -1.18462 235.74 -1.2053 235.568 -1.2396C235.396 -1.2739 235.285 -1.32102 235.245 -1.37776C235.224 -1.43314 235.275 -1.49623 235.395 -1.56192C235.515 -1.62762 235.701 -1.69408 235.936 -1.75595C236.854 -1.83249 237.695 -1.83348 238.272 -1.75869C238.478 -1.70008 238.809 -1.66806 239.221 -1.66686C239.633 -1.66565 240.107 -1.69533 240.581 -1.75196C241.123 -1.81724 241.664 -1.84594 242.106 -1.83288C242.549 -1.81982 242.864 -1.76586 242.995 -1.68071C243.552 -1.7138 244.045 -1.73908 244.532 -1.77547C245.106 -1.82139 245.648 -1.83491 246.101 -1.81459C246.825 -1.80024 247.606 -1.80864 248.425 -1.83959C250.785 -1.91692 253.148 -1.98868 255.433 -2.0209C256.038 -2.03008 256.561 -2.00528 257.159 -2.02559C257.757 -2.0459 258.23 -1.99102 258.978 -2.10155C259.12 -2.11872 259.264 -2.12976 259.396 -2.13378C259.529 -2.1378 259.648 -2.1347 259.743 -2.12472C261.057 -2.03731 262.596 -2.02495 264.272 -2.0884C266.567 -2.10392 268.947 -2.14786 271.246 -2.15782C271.92 -2.14926 272.557 -2.12627 273.15 -2.08913C273.602 -2.06669 274.075 -2.05149 274.566 -2.04359C274.943 -2.03654 275.304 -2.0573 275.24 -1.93595C275.177 -1.8146 275.742 -1.89054 276.067 -1.91295C277.186 -1.9718 278.329 -2.05145 279.484 -2.15103C280.622 -2.25926 281.738 -2.32223 282.763 -2.33619C283.504 -2.34432 284.268 -2.3135 285.22 -2.47923C285.184 -2.54042 285.148 -2.60163 284.94 -2.66553C285.717 -2.84136 286.603 -2.99264 287.525 -3.10687C288.447 -3.2211 289.379 -3.29499 290.244 -3.32242L291.436 -3.6552C291.73 -3.69427 292.029 -3.72274 292.317 -3.73885C292.604 -3.75495 292.874 -3.75838 293.109 -3.74891C293.29 -3.74408 293.512 -3.75646 293.732 -3.78375C293.952 -3.81104 294.157 -3.85143 294.309 -3.89749C294.535 -3.9561 294.811 -4.00663 295.103 -4.0428C295.395 -4.07897 295.69 -4.09915 295.95 -4.10081C296.769 -4.13701 297.644 -4.22057 298.484 -4.34295C298.702 -4.41469 298.838 -4.48881 298.877 -4.55617C298.915 -4.62353 298.854 -4.68118 298.7 -4.72201C298.451 -4.79413 298.312 -4.88601 298.29 -4.99208C298.268 -5.09815 298.364 -5.21621 298.571 -5.33913C298.677 -5.41458 298.713 -5.48602 298.676 -5.54913C298.638 -5.61223 298.529 -5.66571 298.353 -5.70632C297.7 -5.89412 297.875 -5.99938 298.944 -6.31095C299.118 -6.3629 299.327 -6.41146 299.559 -6.45353C299.791 -6.49559 300.04 -6.53025 300.29 -6.55533C300.878 -6.60611 301.458 -6.64388 302.019 -6.66798C302.335 -6.70708 302.659 -6.67551 303.023 -6.69071C304.841 -6.76667 305.108 -6.88922 305.697 -7.15328L306.126 -7.3438C306.922 -7.49813 307.793 -7.6263 308.675 -7.71909C309.558 -7.81188 310.43 -7.86696 311.23 -7.88038C311.548 -7.88139 311.913 -7.90776 312.27 -7.95544C313.431 -8.10123 314.607 -8.20212 315.72 -8.25142C316.414 -8.27917 317.162 -8.35098 317.874 -8.45822C318.585 -8.56545 319.231 -8.70357 319.734 -8.85596C320.185 -8.99324 320.775 -9.11646 321.422 -9.20845C322.18 -9.30229 322.25 -9.4125 321.827 -9.49745C321.404 -9.5824 320.695 -9.69171 320.066 -9.78102C319.848 -9.81136 319.712 -9.86073 319.675 -9.9236C319.637 -9.98647 319.7 -10.0604 319.855 -10.1371C319.955 -10.2684 319.973 -10.3929 319.907 -10.5077C319.872 -10.5555 319.896 -10.6102 319.978 -10.6682C320.06 -10.7262 320.197 -10.7862 320.381 -10.8441C320.565 -10.902 320.792 -10.9564 321.045 -11.0038C321.298 -11.0511 321.572 -11.0903 321.849 -11.1186C323.017 -11.2632 324.154 -11.404 325.345 -11.5097C325.844 -11.5596 326.343 -11.6213 326.829 -11.6935C327.824 -11.872 328.888 -12.02 329.959 -12.129C330.468 -12.1777 330.965 -12.2629 331.344 -12.3662C332.537 -12.6443 333.637 -12.9367 334.623 -13.2381C334.86 -13.3315 335.171 -13.4227 335.536 -13.5059C335.901 -13.5891 336.311 -13.6625 336.742 -13.7215C337.089 -13.7645 337.372 -13.8593 337.64 -13.9223C337.834 -14.0682 337.855 -14.2032 337.7 -14.3146C337.545 -14.4259 337.22 -14.5101 336.754 -14.5591C336.312 -14.6179 335.899 -14.6861 335.518 -14.7583C335.058 -14.8166 334.511 -14.8517 333.897 -14.8622C333.171 -14.8935 332.633 -14.983 332.355 -15.1191C334.344 -15.3654 336.236 -15.7191 337.979 -15.6365L339.304 -15.8602C339.251 -15.9493 339.205 -16.0271 339.162 -16.0995C338.847 -16.2311 338.749 -16.3972 338.875 -16.5835C338.98 -16.6737 338.97 -16.7557 338.848 -16.8213C338.726 -16.8869 338.495 -16.9338 338.179 -16.9572C336.309 -17.1973 334.145 -17.3593 332.391 -17.6318C331.841 -17.6829 331.197 -17.7061 330.487 -17.7005C329.799 -17.7168 329.828 -17.8398 330.619 -17.9916C331.063 -18.0709 331.516 -18.1468 331.975 -18.2192C334.001 -18.2313 334.827 -17.8677 337.139 -17.969L338.211 -18.4481C338.5 -18.4555 338.782 -18.4584 339.053 -18.4568L342.929 -18.2621C343.252 -18.2524 343.504 -18.2191 343.655 -18.166C343.806 -18.113 343.851 -18.0423 343.785 -17.962C343.759 -17.8638 343.812 -17.7737 343.943 -17.6949C344.028 -17.6398 343.974 -17.5666 343.793 -17.4912C343.385 -17.3213 343.908 -17.2965 344.239 -17.2538C344.323 -17.2496 344.42 -17.25 344.525 -17.2551C344.63 -17.2601 344.74 -17.2696 344.848 -17.2831C344.957 -17.2965 345.062 -17.3137 345.158 -17.3335C345.254 -17.3533 345.338 -17.3754 345.407 -17.3984C345.989 -17.5601 346.498 -17.7306 347.07 -17.909C346.664 -18.0796 347.141 -18.3598 346.508 -18.5142C346.437 -18.545 346.408 -18.5826 346.424 -18.6246C346.44 -18.6667 346.5 -18.7122 346.6 -18.7585C346.858 -18.8781 346.981 -18.9947 346.956 -19.0965C346.932 -19.1983 346.761 -19.2817 346.46 -19.3384L346.424 -19.3996C347.217 -19.6053 347.006 -19.7883 347.318 -20.006L348.081 -20.1483C349.979 -20.4908 349.982 -20.4853 351.616 -20.4727C351.946 -20.603 351.527 -20.6229 351.213 -20.6377L348.585 -20.784C346.867 -20.8817 345.098 -20.9494 343.179 -20.9863C341.259 -21.0233 339.119 -21.1464 337.135 -21.2351C337.035 -21.242 336.958 -21.2556 336.911 -21.2747C336.864 -21.2938 336.849 -21.318 336.866 -21.3452C336.945 -21.3745 337.048 -21.4029 337.168 -21.4281C337.288 -21.4532 337.422 -21.4747 337.56 -21.4907C338.191 -21.5689 338.839 -21.6193 339.512 -21.6847L340.766 -21.7983L341.152 -21.9476C341.403 -22.0384 341.575 -22.1493 341.909 -22.2145C342.184 -22.2632 342.483 -22.3001 342.774 -22.3215C343.066 -22.3429 343.339 -22.3479 343.565 -22.336C344.193 -22.3063 344.76 -22.2631 345.36 -22.2239C345.959 -22.1847 346.289 -22.142 346.809 -22.1227C347.865 -22.114 348.885 -22.0908 349.866 -22.0534C350.692 -21.965 351.456 -21.8601 352.153 -21.7395C352.588 -21.6918 352.995 -21.6347 353.737 -21.6968C354.09 -21.7532 354.393 -21.8271 354.595 -21.9057C354.797 -21.9842 354.883 -22.0622 354.838 -22.1259C354.799 -22.1757 354.686 -22.2152 354.511 -22.2405C354.336 -22.2659 354.104 -22.2762 353.838 -22.2706C353.092 -22.2798 352.403 -22.3107 351.784 -22.3626C350.922 -22.4567 349.873 -22.4973 348.697 -22.482C348.298 -22.4684 348.031 -22.519 347.683 -22.5355C347.334 -22.552 347.039 -22.5931 346.65 -22.5628C345.442 -22.4849 344.863 -22.6043 344.139 -22.6819C343.894 -22.7163 343.743 -22.7719 343.701 -22.8426C343.659 -22.9132 343.728 -22.9963 343.902 -23.0825C344.236 -23.2542 344.645 -23.4269 345.121 -23.5978C345.367 -23.6818 345.681 -23.7616 346.04 -23.8309C346.399 -23.9002 346.792 -23.9571 347.189 -23.9972C347.427 -24.1024 347.554 -24.2058 347.558 -24.2981C347.562 -24.3904 347.444 -24.4687 347.215 -24.5259C346.629 -24.6564 346.11 -24.7892 344.797 -24.7162C344.181 -24.6884 343.6 -24.683 343.079 -24.7004C341.923 -24.7242 340.589 -24.6721 339.204 -24.5489C338.845 -24.5174 338.493 -24.4959 338.157 -24.485C335.762 -24.4093 333.48 -24.3716 331.192 -24.3449C329.979 -24.3321 328.757 -24.336 327.491 -24.2987C324.523 -24.2177 321.821 -24.2594 318.957 -24.233C317.456 -24.2194 316.113 -24.2739 314.998 -24.3937C314.781 -24.4338 314.595 -24.4807 314.441 -24.5337C315.18 -24.6728 315.992 -24.7829 316.798 -24.8535C317.605 -24.9242 318.379 -24.9529 319.048 -24.937C319.415 -24.8981 319.89 -24.891 320.419 -24.9165C320.949 -24.942 321.512 -24.9991 322.046 -25.0814L320.493 -25.128C319.464 -25.1498 318.409 -25.1565 317.408 -25.1878C315.817 -25.2416 314.343 -25.3278 312.696 -25.3626C311.366 -25.3947 310.176 -25.4766 309.163 -25.6059C308.431 -25.7001 307.595 -25.767 306.673 -25.8051C306.017 -25.8253 306.017 -25.8253 305.597 -26.0183C305.93 -26.1431 306.36 -26.1605 306.766 -26.1629C309.195 -26.2414 311.507 -26.2552 313.654 -26.2039C314.738 -26.1994 315.699 -26.1465 316.492 -26.0477C316.686 -26.0061 317.183 -26.0258 317.581 -26.0393C318.831 -26.0599 320.025 -26.054 321.15 -26.0215C322.705 -25.9674 324.437 -25.9802 326.278 -26.0595C326.627 -26.1565 326.226 -26.1485 326.206 -26.1819C324.78 -26.2441 323.381 -26.3158 321.927 -26.3686C321.529 -26.3874 321.104 -26.3967 320.657 -26.3964C318.985 -26.3637 317.593 -26.4543 316.674 -26.6555C316.628 -26.7334 316.023 -26.7242 315.756 -26.7748C315.624 -26.8185 315.537 -26.87 315.496 -26.9277C315.885 -27.0714 316.325 -27.0722 316.664 -27.0724C317.647 -27.0563 318.593 -27.0259 319.497 -26.9813C320.337 -26.9388 321.267 -26.9274 322.262 -26.9475C322.996 -26.9668 323.623 -26.937 324.364 -26.9451C324.766 -26.9622 325.182 -26.9897 325.603 -27.0269C325.134 -27.1271 324.496 -27.1888 323.734 -27.2075C323.156 -27.2673 322.434 -27.2854 322.342 -27.4411C322.615 -27.5526 322.919 -27.5544 323.163 -27.5428C323.671 -27.5432 324.161 -27.5362 324.632 -27.5218C325.631 -27.4901 326.712 -27.4897 327.852 -27.5205C328.453 -27.532 329.023 -27.5285 329.553 -27.5101C330.753 -27.4856 331.904 -27.4311 333.003 -27.406C335.255 -27.3803 337.309 -27.2883 339.473 -27.2398C339.954 -27.2277 340.386 -27.1857 341.021 -27.2583C341.655 -27.3309 341.683 -27.3404 341.758 -27.3855C341.936 -27.4608 341.99 -27.5337 341.909 -27.5893C341.783 -27.6411 341.538 -27.67 341.217 -27.6708C339.282 -27.7533 337.448 -27.8691 335.724 -28.0177C334.966 -28.0475 334.301 -28.1082 333.754 -28.1977C333.32 -28.2593 332.805 -28.3001 332.225 -28.3188C331.382 -28.3634 330.503 -28.3961 329.592 -28.4167C329.168 -28.4278 328.807 -28.4608 328.531 -28.5138C328.255 -28.5668 328.07 -28.6388 327.985 -28.7254L329.103 -29.013C329.278 -29.0264 329.452 -29.038 329.624 -29.0478L338.897 -28.8406L339.815 -28.8349C340.821 -28.852 341.067 -28.8944 342.022 -29.2277C339.843 -29.3061 338.131 -29.5346 337.054 -29.8904C337.313 -29.9287 337.578 -29.9615 337.844 -29.9882C339.585 -30.0723 341.231 -30.0947 342.718 -30.0544C343.602 -30.0504 344.51 -30.0613 345.422 -30.0668C345.155 -30.2308 344.134 -30.1819 343.468 -30.2189C341.877 -30.2768 340.47 -30.3963 339.293 -30.5737C338.887 -30.6429 338.379 -30.6871 337.792 -30.7044C337.205 -30.7103 336.715 -30.7522 336.364 -30.8263C336.012 -30.9004 335.811 -31.0046 335.778 -31.1297C335.723 -31.243 335.603 -31.3483 335.422 -31.444C335.743 -31.5798 336.252 -31.7098 336.854 -31.8096C337.456 -31.9095 338.11 -31.9724 338.693 -31.9864C339.937 -32.0423 341.227 -32.1338 342.53 -32.2586C343.179 -32.3216 343.816 -32.3577 344.399 -32.3647C344.913 -32.37 345.497 -32.4155 346.062 -32.4941C346.627 -32.5728 347.143 -32.6802 347.53 -32.8002C348.052 -32.9485 348.539 -33.0984 349.026 -33.2483C349.513 -33.3982 350.079 -33.5877 350.648 -33.7716C351.149 -33.8004 351.637 -33.8189 352.106 -33.8268C352.47 -33.8201 352.896 -33.8401 353.332 -33.8846C353.768 -33.9291 354.196 -33.9961 354.566 -34.0778C354.349 -34.1584 354.104 -34.2295 353.845 -34.3229C354.2 -34.4462 354.458 -34.572 354.602 -34.6925C354.746 -34.813 354.774 -34.9258 354.683 -35.0239C354.631 -35.113 355.017 -35.2623 355.15 -35.3803C355.322 -35.4821 355.354 -35.577 355.243 -35.6528C355.131 -35.7285 354.881 -35.7814 354.526 -35.8046C354.085 -35.8475 353.726 -35.912 353.464 -35.9956C353.377 -36.0173 353.333 -36.047 353.335 -36.082C353.338 -36.117 353.387 -36.1562 353.478 -36.196C353.569 -36.2358 353.699 -36.2749 353.856 -36.3098C354.014 -36.3446 354.193 -36.3741 354.379 -36.3956C354.947 -36.4564 355.511 -36.4958 356.038 -36.5116C356.947 -36.5405 357.818 -36.5587 358.649 -36.5662C359.569 -36.5774 360.592 -36.6464 361.614 -36.7662C362.53 -36.8796 363.351 -36.9813 363.798 -37.198C364.246 -37.4146 364.962 -37.4077 365.512 -37.5655C365.203 -37.7077 364.654 -37.8065 363.919 -37.8519C363.439 -37.8681 363.037 -37.9107 362.741 -37.9769C362.445 -38.043 362.261 -38.1314 362.2 -38.2362L363.871 -38.6761C365.206 -38.8831 365.944 -38.7238 367.386 -38.8068L365.9 -38.9692C365.87 -38.9852 365.859 -39.0041 365.867 -39.0248C366.012 -39.3532 366.241 -39.4234 367.76 -39.6055L368.612 -39.7111L369.961 -39.8364C370.177 -39.9037 370.327 -39.9739 370.394 -40.0399C370.462 -40.106 370.446 -40.1656 370.348 -40.2128C370.15 -40.2921 370.09 -40.3935 370.173 -40.5076C370.304 -40.5832 370.315 -40.6529 370.204 -40.7046C370.093 -40.7563 369.867 -40.7867 369.565 -40.7906C369.324 -40.7966 369.306 -40.884 369.175 -40.9335C369.045 -41.0017 368.822 -41.054 368.522 -41.0869C368.222 -41.1198 367.852 -41.1325 367.436 -41.1241C366.21 -41.1173 365.059 -41.1429 364.002 -41.2004L364.191 -41.2239C363.09 -41.1734 362.06 -41.1672 361.152 -41.2058C360.242 -41.2544 359.075 -41.2232 358.108 -41.2528C357.322 -41.246 356.723 -41.3132 356.438 -41.4402C356.163 -41.5614 355.163 -41.5331 354.398 -41.5099C353.944 -41.4949 353.506 -41.4886 353.087 -41.4909C352.526 -41.5184 351.823 -41.4925 351.097 -41.4177C350.88 -41.3947 350.665 -41.3825 350.475 -41.3823C348.629 -41.3509 346.788 -41.3139 344.967 -41.2974C344.547 -41.3069 344.055 -41.2852 343.547 -41.235C343.334 -41.2132 343.126 -41.2042 342.953 -41.2091C340.076 -41.259 336.831 -41.1318 334.011 -41.2006C333.67 -41.2168 333.291 -41.2202 332.887 -41.2106C331.979 -41.1702 331.19 -41.1962 330.64 -41.2847C330.344 -41.3318 329.964 -41.3577 329.524 -41.3609C329.085 -41.3641 328.596 -41.3443 328.088 -41.303C327.243 -41.2483 326.462 -41.2424 325.828 -41.2859C324.591 -41.326 323.29 -41.3425 321.935 -41.3353C321.52 -41.3282 321.155 -41.3438 320.869 -41.3809C320.583 -41.4179 320.383 -41.4753 320.284 -41.5488C320.617 -41.6736 320.98 -41.6888 321.326 -41.6778C322.664 -41.7062 324 -41.7402 325.313 -41.7536C326.489 -41.7919 327.617 -41.8036 328.681 -41.7886C329.21 -41.7716 329.869 -41.8103 330.515 -41.8963C331.307 -42.0051 332.123 -42.0592 332.798 -42.0476C333.298 -42.0447 333.826 -42.0541 334.374 -42.0756C334.725 -42.1015 335.084 -42.146 335.416 -42.2046C335.547 -42.23 335.69 -42.2514 335.836 -42.2674C335.982 -42.2834 336.126 -42.2936 336.261 -42.2973C336.396 -42.3011 336.518 -42.2984 336.619 -42.2894C336.721 -42.2803 336.799 -42.2651 336.849 -42.2448C337.356 -42.0747 338.491 -42.1615 339.463 -42.1803C340.919 -42.4681 342.002 -42.2978 343.363 -42.4603C343.471 -42.4711 343.577 -42.4777 343.675 -42.4795C343.773 -42.4814 343.86 -42.4785 343.933 -42.4712C346.566 -42.3733 349.636 -42.4549 352.4 -42.4211C352.705 -42.4162 353.059 -42.4331 353.422 -42.47C355.792 -42.7141 358.071 -42.7834 359.813 -42.6644C360.025 -42.6536 360.266 -42.6532 360.526 -42.663C361.717 -42.76 362.856 -42.7987 363.848 -42.7758C365.402 -42.7832 366.897 -42.7772 368.476 -42.7997C369.565 -42.8316 370.52 -42.7975 371.246 -42.7008C371.269 -42.6618 371.752 -42.7038 372.123 -42.7079C372.336 -42.8059 372.52 -42.8945 372.74 -42.9814C372.936 -43.0889 373.23 -43.1977 373.602 -43.3004C373.974 -43.4032 374.415 -43.4974 374.895 -43.5767C375.715 -43.6784 375.798 -43.8259 375.223 -43.8802C373.743 -44.0597 371.881 -44.1332 369.775 -44.0953C368.015 -44.0922 366.223 -44.0853 364.438 -44.0672C363.396 -44.0517 362.299 -44.0173 361.286 -44.0112C360.944 -43.998 360.593 -43.9785 360.236 -43.9529C359.798 -43.9158 359.373 -43.8955 358.983 -43.8933C357.733 -43.9245 356.337 -43.8973 354.863 -43.8129C354.323 -43.7945 353.804 -43.7883 353.315 -43.7944C352.157 -43.8173 350.902 -43.8005 349.583 -43.7443C348.763 -43.7126 347.968 -43.6961 347.206 -43.6948C346.937 -43.6913 346.718 -43.7179 346.459 -43.6978C344.178 -43.4869 342.563 -43.6392 340.51 -43.5581C339.512 -43.5355 338.559 -43.5355 337.663 -43.5579C335.916 -43.5569 334.12 -43.5337 332.282 -43.4887C329.853 -43.4147 327.601 -43.4404 325.281 -43.4098C324.823 -43.4034 324.38 -43.4045 323.957 -43.4131C321.898 -43.47 319.662 -43.4579 317.303 -43.3772C316.767 -43.3655 316.286 -43.3798 315.889 -43.4191C315.493 -43.4583 315.19 -43.5218 314.999 -43.6054C314.918 -43.6628 314.97 -43.7374 315.146 -43.8147C315.437 -43.9135 315.766 -44.0103 316.127 -44.1034L329.259 -44.4161C329.811 -44.4324 330.349 -44.4412 330.87 -44.4425C332.404 -44.4452 333.985 -44.4695 335.605 -44.5153C337.206 -44.5583 338.736 -44.5507 340.287 -44.5637C340.744 -44.568 341.213 -44.5782 341.692 -44.5943C344.931 -44.7218 348.089 -44.7997 351.144 -44.8274C352.429 -44.8313 353.818 -44.8899 355.128 -44.9088C356.439 -44.9278 358.231 -44.9347 359.785 -44.9421L364.598 -44.941C365.544 -44.9448 366.466 -44.9335 367.384 -44.9278C368.499 -45.3346 368.883 -45.4299 370.37 -45.6081C370.879 -45.6739 371.396 -45.7131 371.862 -45.7212C373.338 -45.6891 375.19 -45.8229 376.59 -45.8052C377.435 -45.8139 378.151 -45.7687 378.667 -45.6743C379.114 -45.6001 379.626 -45.5414 380.194 -45.4991C381.75 -45.8471 381.887 -46.0731 380.717 -46.161C380.4 -46.1815 379.963 -46.1752 379.734 -46.2185C379.602 -46.2448 379.423 -46.2599 379.21 -46.2625C378.996 -46.2651 378.755 -46.2552 378.505 -46.2335C377.715 -46.1765 376.975 -46.1631 376.359 -46.1946C375.779 -46.2363 375.068 -46.2347 374.295 -46.1898C373.727 -46.1194 373.227 -46.2188 372.736 -46.2475C372.244 -46.2762 371.841 -46.3278 371.073 -46.2507C370.933 -46.2353 370.793 -46.2261 370.665 -46.2237C370.538 -46.2213 370.425 -46.2259 370.336 -46.237C369.512 -46.2866 368.528 -46.2814 367.465 -46.2217C365.834 -46.163 364.304 -46.1608 362.928 -46.2152C362.104 -46.2628 361.401 -46.3472 360.848 -46.4652C360.697 -46.5047 360.473 -46.5283 360.197 -46.5339C358.812 -46.5093 357.309 -46.4167 355.783 -46.262C355.209 -46.2 354.635 -46.151 354.074 -46.116C352.921 -46.0381 351.806 -45.9945 350.762 -45.9864C349.245 -45.9852 347.665 -45.9552 346.037 -45.8969C345.032 -45.8644 344.064 -45.8524 343.144 -45.8611C342.198 -45.8651 341.188 -45.8404 340.138 -45.7873C339.093 -45.7441 338.172 -45.769 337.486 -45.859C337.26 -45.9075 337.078 -45.9651 336.943 -46.0307C338.474 -46.2442 340.056 -46.3527 341.372 -46.3344C341.872 -46.3485 342.287 -46.3343 342.814 -46.4174L342.831 -46.3896C342.935 -46.3716 343.094 -46.3673 343.275 -46.3776C343.456 -46.388 343.648 -46.4122 343.814 -46.4457C343.751 -46.5514 343.692 -46.6516 343.649 -46.7239C342.646 -46.7111 341.672 -46.7122 340.733 -46.727C339.941 -46.7483 338.866 -46.5614 338.18 -46.6318C336.843 -46.5438 335.991 -46.6653 334.792 -46.6302C333.593 -46.5952 332.272 -46.4794 331.073 -46.4443C330.027 -46.4251 329.011 -46.4209 328.031 -46.4318C327.692 -46.4471 327.302 -46.4435 326.885 -46.4212C326.298 -46.3794 325.751 -46.3724 325.309 -46.401C324.866 -46.4296 324.545 -46.4928 324.383 -46.5831C324.536 -46.6678 324.742 -46.777 324.98 -46.89C324.542 -46.983 323.878 -47.0221 323.084 -47.0016L321.963 -47.0061C321.666 -47.0036 321.439 -47.0288 321.329 -47.0762C321.219 -47.1237 321.234 -47.19 321.371 -47.2613C323.497 -47.6201 323.575 -47.6596 325.135 -47.4288L327.207 -47.5361L327.172 -47.5377ZM299.155 -46.5521L299.313 -46.5716L299.155 -46.5521ZM41.0222 -8.37678L41.0585 -8.31558L41.0189 -8.38234L40.6717 -8.33934L40.6487 -8.37828L41.0222 -8.37678ZM91.4427 -35.2008C91.9334 -35.2675 92.429 -35.3289 92.9265 -35.3845C93.0567 -35.3932 93.1785 -35.3951 93.2817 -35.3902C93.3849 -35.3853 93.4664 -35.3737 93.5192 -35.3564C93.5588 -35.2897 93.2812 -35.2433 93.0287 -35.2121C92.7102 -35.17 92.3848 -35.1432 92.0861 -35.1346C91.7875 -35.1259 91.5262 -35.1357 91.3295 -35.1629L91.044 -35.1872L91.4427 -35.2008ZM344.263 -18.9289C343.939 -18.9176 343.633 -18.9158 343.351 -18.9234C342.099 -18.9774 340.9 -19.0559 339.617 -19.1059C337.997 -19.233 336.136 -19.2847 334.104 -19.2592C333.31 -19.2468 332.639 -19.2879 332.17 -19.378C331.889 -19.4263 331.526 -19.4545 331.104 -19.461L325.731 -19.6076C325.398 -19.6381 325.111 -19.6808 324.876 -19.7347C325.349 -19.7933 325.665 -19.8324 325.854 -19.8559C326.247 -19.8625 326.585 -19.8446 326.834 -19.804C327.101 -19.7353 327.553 -19.7081 328.099 -19.7278C328.651 -19.7442 329.189 -19.7529 329.71 -19.7542C330.695 -19.7507 331.686 -19.7362 332.674 -19.7271C333.059 -19.5359 334.194 -19.6227 335.165 -19.6415L335.916 -19.6329C338.369 -19.5338 340.713 -19.3974 342.935 -19.2243C343.365 -19.1951 343.735 -19.1484 344.034 -19.0857C344.147 -19.0368 344.183 -18.9759 344.14 -18.9077L344.297 -18.9272L344.263 -18.9289ZM234.699 -0.641256C234.103 -0.628224 233.484 -0.601472 232.848 -0.561383C232.359 -0.520447 231.881 -0.495595 231.435 -0.487822C228.932 -0.444946 226.325 -0.345927 223.647 -0.192089C223.296 -0.168794 222.96 -0.157358 222.65 -0.158234L220.458 -0.197302C219.767 -0.219244 219.754 -0.2415 220.257 -0.536679C220.674 -0.593958 221.096 -0.646219 221.52 -0.693078C221.772 -0.724358 222.183 -0.77518 222.279 -0.727367C222.864 -0.596857 223.933 -0.681382 224.831 -0.709063C227.432 -0.780377 230.115 -0.885673 232.741 -0.972026C233.296 -0.993134 233.834 -1.00381 234.348 -1.00394C234.668 -1.00836 234.959 -1.00003 235.21 -0.979288C235.283 -0.977165 235.345 -0.970984 235.39 -0.961162C235.436 -0.951337 235.464 -0.938098 235.473 -0.922313C235.483 -0.906525 235.473 -0.888552 235.444 -0.869601C235.416 -0.850645 235.37 -0.831144 235.309 -0.812382C235.094 -0.746667 234.846 -0.683715 234.572 -0.625612L234.699 -0.641256ZM215.645 -43.483L213.083 -43.518C212.776 -43.5217 212.515 -43.5611 212.186 -43.5443C210.432 -43.4909 208.808 -43.5058 207.382 -43.5883C206.897 -43.6219 206.329 -43.6287 205.71 -43.6081C203.814 -43.5471 202.026 -43.5446 200.394 -43.6006C199.339 -43.6119 198.352 -43.6496 197.447 -43.7134C197.377 -43.7282 197.334 -43.7482 197.319 -43.7722C197.305 -43.7962 197.32 -43.8236 197.364 -43.8524C197.376 -43.8707 197.407 -43.8903 197.455 -43.9099C197.504 -43.9295 197.568 -43.9488 197.645 -43.9662C197.722 -43.9836 197.808 -43.9989 197.899 -44.0109C197.99 -44.023 198.082 -44.0315 198.171 -44.0359C199.314 -44.1222 200.399 -44.1522 201.338 -44.1236C202.208 -44.0894 203.145 -44.0794 204.134 -44.0937C205.081 -44.0975 205.723 -43.986 206.893 -44.0711C207.387 -44.0991 207.824 -44.0899 208.128 -44.0449C208.741 -43.9705 209.596 -43.9663 210.541 -44.0333C211.107 -44.0671 211.647 -44.0817 212.142 -44.0763C213.343 -44.0518 214.49 -44.0028 215.603 -43.9554C215.953 -43.9445 216.329 -43.943 216.723 -43.9509L222.294 -44.0437C223.633 -44.0721 224.968 -44.1061 226.282 -44.1195C227.356 -44.1486 228.356 -44.1395 229.246 -44.0925C230.195 -44.0431 231.23 -44.023 232.331 -44.0327C234.041 -44.0056 235.742 -43.9953 237.604 -43.9989C238.791 -43.9967 240.007 -44.0039 241.247 -44.0262C241.875 -44.0549 242.408 -44.0315 242.743 -43.9607C242.947 -43.9023 243.427 -43.9499 243.826 -43.9634C245.952 -44.0939 247.946 -44.1248 249.669 -44.054C249.889 -44.0425 250.13 -44.0383 250.388 -44.0415C252.047 -44.044 253.766 -44.0598 255.358 -44.06C255.778 -44.0545 256.172 -44.0394 256.537 -44.0149C256.498 -43.9749 256.387 -43.9316 256.226 -43.8939C256.065 -43.8562 255.868 -43.827 255.674 -43.8125C254.168 -43.7008 252.714 -43.6418 251.373 -43.638C249.14 -43.6522 246.801 -43.6202 244.381 -43.5424C242.502 -43.4639 240.79 -43.4804 239.37 -43.5907C238.261 -43.673 236.817 -43.642 235.288 -43.5031C234.634 -43.4368 233.998 -43.4103 233.469 -43.4272C232.96 -43.4494 232.376 -43.444 231.75 -43.4114C230.432 -43.3493 229.164 -43.3205 227.972 -43.3256C226.806 -43.3484 225.719 -43.4108 224.521 -43.4297C223.324 -43.4487 221.501 -43.4378 220.025 -43.47C218.548 -43.5021 217.089 -43.5065 215.645 -43.483ZM321.818 -46.7372C321.682 -46.5652 321.204 -46.4581 320.689 -46.4123C318.913 -46.2086 317.158 -46.1219 315.717 -46.1668C314.939 -46.2294 313.902 -46.2053 312.809 -46.0992C311.537 -45.989 310.347 -45.9707 309.451 -46.0476C309.231 -46.061 309.063 -46.0895 308.961 -46.1303C308.941 -46.1637 308.905 -46.2249 308.899 -46.236C308.993 -46.2642 309.108 -46.2904 309.236 -46.3124C309.364 -46.3345 309.501 -46.3519 309.636 -46.3632L315.518 -46.5601L316.543 -46.6035C318.415 -46.717 320.199 -46.7622 321.818 -46.7372ZM310.249 -44.0145C309.331 -43.7336 309.328 -43.7392 308.858 -43.6749C306.589 -43.4082 304.322 -43.2642 302.326 -43.2601C301.882 -43.2609 301.506 -43.2881 301.229 -43.3392C301.086 -43.3461 300.995 -43.3681 300.976 -43.4005C300.957 -43.4328 301.011 -43.4727 301.126 -43.5117L301.856 -43.7096C303.182 -43.7952 304.488 -43.8633 305.768 -43.9134C307.258 -43.9725 308.578 -43.9748 310.123 -43.9989L310.249 -44.0145ZM234.809 -1.8851C233.954 -1.49849 233.95 -1.50405 232.518 -1.40434C231.52 -1.33367 230.552 -1.2922 229.643 -1.28114C228.532 -1.26895 227.393 -1.24728 226.285 -1.22952C226.014 -1.21719 225.785 -1.22741 225.642 -1.2582C225.498 -1.28899 225.451 -1.33813 225.508 -1.3961C225.654 -1.45902 225.881 -1.51988 226.154 -1.56881C226.426 -1.61773 226.728 -1.65185 227.009 -1.66559L227.614 -1.67477C228.348 -1.69403 229.11 -1.72277 229.819 -1.72699C230.28 -1.71097 230.813 -1.72336 231.377 -1.7632C231.941 -1.80305 232.521 -1.86926 233.072 -1.95665L234.809 -1.8851ZM305.682 -46.2317C305.453 -46.1648 305.195 -46.1007 304.914 -46.0411C303.824 -45.8759 302.671 -45.7821 301.681 -45.778C301.213 -45.7678 300.784 -45.8043 300.307 -45.7512C299.452 -45.6803 298.623 -45.6425 297.866 -45.6399C297.866 -45.6399 297.653 -45.6554 297.583 -45.6587L297.438 -45.9035C297.797 -45.9602 298.171 -46.0066 298.543 -46.0404C299.792 -46.1055 301.02 -46.15 302.244 -46.2001C303.468 -46.2502 303.895 -46.2732 304.696 -46.2947C305.053 -46.2829 305.383 -46.2618 305.682 -46.2317ZM332.732 -15.7988L331.097 -15.2977C330.568 -15.2542 330.074 -15.2463 329.69 -15.2753C329.306 -15.3042 329.053 -15.3684 328.969 -15.4581C328.835 -15.5001 328.821 -15.5623 328.932 -15.6317C329.042 -15.701 329.268 -15.7722 329.562 -15.8302C329.845 -15.8989 330.168 -15.9606 330.511 -16.0113C330.854 -16.062 331.21 -16.1006 331.556 -16.1249L332.732 -15.7988ZM319.122 -18.2935C320.191 -18.3784 321.214 -18.4132 322.112 -18.395C322.677 -18.3453 323.444 -18.3612 324.254 -18.4394C325.727 -18.5953 327.148 -18.6384 328.215 -18.5598C328.215 -18.5598 328.255 -18.493 328.436 -18.4736C328.617 -18.4542 327.899 -18.4071 327.741 -18.3876C326.584 -18.3398 325.419 -18.3031 324.413 -18.2859C323.788 -18.2866 323.127 -18.2709 322.441 -18.2388C321.498 -18.1894 320.603 -18.1734 319.792 -18.1914C319.792 -18.1914 319.479 -18.2063 319.125 -18.2879L319.122 -18.2935ZM204.941 -44.3907C205.452 -44.4851 206.006 -44.5618 206.561 -44.6151C207.116 -44.6683 207.659 -44.6968 208.148 -44.6983C208.522 -44.7032 208.825 -44.6783 209.009 -44.6275C209.192 -44.5767 209.246 -44.5029 209.161 -44.4177C208.782 -44.3708 208.277 -44.3082 207.993 -44.273C207.008 -44.2765 206.168 -44.3217 204.941 -44.3907ZM109.347 -36.4389C109.757 -36.5148 110.208 -36.5729 110.65 -36.6065C111.091 -36.64 111.505 -36.6477 111.844 -36.6287C112.018 -36.6204 111.9 -36.5341 111.93 -36.484C111.949 -36.4727 111.949 -36.4585 111.929 -36.4431C111.909 -36.4277 111.87 -36.4116 111.817 -36.3964C111.764 -36.3813 111.697 -36.3676 111.625 -36.357C111.553 -36.3463 111.478 -36.339 111.407 -36.3357C110.963 -36.303 110.543 -36.2933 110.186 -36.3074C109.829 -36.3215 109.545 -36.359 109.36 -36.4166L109.347 -36.4389ZM102.942 -35.353C103.005 -35.3978 103.14 -35.4445 103.322 -35.4846C103.504 -35.5246 103.72 -35.5553 103.931 -35.571C104.304 -35.5731 104.643 -35.5607 104.936 -35.5342C105.253 -35.5137 105.025 -35.384 104.596 -35.307C104.414 -35.2761 104.22 -35.252 104.029 -35.2366C103.838 -35.2212 103.655 -35.2149 103.495 -35.2183C103.336 -35.2217 103.203 -35.2346 103.108 -35.2561C103.013 -35.2775 102.958 -35.3069 102.949 -35.3418L102.942 -35.353ZM289.055 -45.755C290.01 -45.9151 290.746 -45.8748 291.555 -45.9392C292.364 -46.0036 292.563 -46.0104 292.455 -45.9073C292.346 -45.8043 291.792 -45.8252 291.444 -45.7822C290.975 -45.7252 290.503 -45.6924 290.081 -45.6876C289.659 -45.6828 289.304 -45.7061 289.055 -45.755ZM89.9295 -18.6562C90.4356 -18.6922 90.9314 -18.7176 91.4094 -18.732C91.4723 -18.7171 91.5117 -18.6976 91.5253 -18.6747C91.5389 -18.6518 91.5264 -18.6259 91.4885 -18.5985C91.4885 -18.5985 91.1644 -18.5166 90.975 -18.4931C90.2771 -18.4126 90.2428 -18.5278 89.9295 -18.6562ZM18.3918 -3.73458C18.0492 -3.62646 17.8895 -3.55293 17.6153 -3.50105C17.4893 -3.48304 17.359 -3.46995 17.2342 -3.46276C17.1095 -3.45558 16.9933 -3.45448 16.8944 -3.45954C16.7738 -3.49069 16.7456 -3.53835 16.8152 -3.59306C16.8152 -3.59306 17.1643 -3.69005 17.2972 -3.69456C17.6763 -3.71747 18.0437 -3.73091 18.3918 -3.73458ZM305.32 -46.6707C306.046 -46.7606 306.741 -46.8466 307.243 -46.7417C306.09 -46.6287 306.09 -46.6287 305.32 -46.6707ZM293.56 -45.6441C294.293 -45.8364 294.723 -45.8539 295.075 -45.8318C295.15 -45.8262 295.199 -45.8138 295.216 -45.7964C295.233 -45.7791 295.216 -45.7577 295.168 -45.7355C295.119 -45.7134 295.043 -45.6916 294.949 -45.6736C294.856 -45.6556 294.75 -45.6423 294.649 -45.6357C294.267 -45.6301 293.902 -45.6329 293.56 -45.6441ZM255.823 -45.5627C255.807 -45.5906 255.787 -45.6239 255.976 -45.6474C256.026 -45.6593 256.084 -45.6696 256.145 -45.6771C256.206 -45.6847 256.268 -45.6892 256.324 -45.6904C256.324 -45.6904 256.343 -45.657 256.357 -45.6348L255.823 -45.5627ZM229.618 0.621008L230.04 0.646418L229.85 0.669877L229.351 0.684015L229.618 0.621008ZM81.1323 -35.787C81.2901 -35.8066 81.448 -35.8261 81.4711 -35.7872C81.5044 -35.7812 81.525 -35.7725 81.5313 -35.7618C81.5376 -35.7512 81.5294 -35.7389 81.5073 -35.726C81.5073 -35.726 81.2863 -35.6986 81.1916 -35.6869L81.1323 -35.787ZM105.716 -35.4756C105.82 -35.4778 105.913 -35.4752 105.991 -35.4679L106.011 -35.4345L105.696 -35.3954L105.716 -35.4756ZM319.956 -27.5219C320.078 -27.5421 320.207 -27.5581 320.335 -27.5688L320.492 -27.5883C320.492 -27.5883 320.323 -27.5315 320.228 -27.5198C320.133 -27.508 320.057 -27.5225 319.956 -27.5219Z" fill="#FFBE21"/>
</g>
</svg>
