<svg width="88" height="57" viewBox="0 0 88 57" fill="none" xmlns="http://www.w3.org/2000/svg">
<path d="M57.7769 56.8069C60.1598 52.8582 62.5074 48.9748 64.862 45.08C64.6855 44.98 64.5337 45.0185 64.3925 45.0185C61.766 45.0185 59.1396 45.0108 56.5131 45.0261C56.1919 45.0261 56.0966 44.9339 56.1107 44.584C56.1354 43.9496 56.1248 43.3152 56.1107 42.6846C56.1072 42.4347 56.139 42.3193 56.4143 42.3193C60.0151 42.3309 63.6158 42.3232 67.2201 42.327C67.6331 42.327 68.025 42.4347 68.3392 42.7577C68.7875 43.2229 68.8299 43.8573 68.4521 44.4802C67.1283 46.6679 65.8045 48.8518 64.4807 51.0357C63.3722 52.8659 62.2602 54.6922 61.1588 56.5262C61.0353 56.7338 60.9082 56.8184 60.6752 56.8146C59.7326 56.7992 58.7901 56.8069 57.7769 56.8069Z" fill="#A88750"/>
<path d="M83.4492 52.0583C83.4845 50.7818 83.0362 49.7745 82.0619 49.0516C81.9665 48.9786 81.843 48.944 81.9277 48.7517C82.3019 47.9212 82.2031 47.0254 82.2066 46.1487C82.2066 44.1109 80.8616 42.5499 78.9836 42.3846C77.6598 42.2654 76.3324 42.3538 75.0086 42.3269C74.5356 42.3154 74.059 42.3654 73.6036 42.4961C72.3257 42.8613 71.3055 43.6034 70.9842 45.076C70.7407 46.1987 70.7301 47.356 71.0866 48.4672C71.189 48.7863 71.1607 48.9555 70.8889 49.1324C70.6348 49.2977 70.4547 49.5668 70.2747 49.8283C69.4945 50.9625 69.611 52.2698 69.664 53.5617C69.6816 54.0038 69.7981 54.4229 70.0099 54.8151C70.7371 56.1647 71.888 56.7222 73.2541 56.7914C74.3626 56.8491 75.4746 56.8029 76.5831 56.8029C77.7198 56.8029 78.8565 56.826 79.9932 56.7952C81.6665 56.7491 83.0432 55.5341 83.3927 53.8231C83.5128 53.2426 83.4386 52.6504 83.4563 52.0622L83.4492 52.0583ZM73.653 45.9911C73.6672 45.3798 73.9743 45.0337 74.532 45.0222C75.1957 45.0068 75.8594 45.0222 76.5195 45.0222C77.1549 45.0222 77.7904 45.0145 78.4258 45.0222C79.1283 45.0299 79.439 45.3721 79.446 46.1257C79.446 46.4948 79.4531 46.8639 79.446 47.2291C79.4354 47.8289 79.1283 48.2134 78.5741 48.2211C77.222 48.2442 75.8664 48.2442 74.5144 48.2211C73.9566 48.2134 73.6601 47.8405 73.6495 47.2291C73.6424 46.8177 73.6389 46.4025 73.6495 45.9911H73.653ZM80.671 52.9696C80.6639 53.7655 80.3109 54.1461 79.566 54.15C78.5635 54.15 77.5609 54.15 76.5619 54.15C75.5628 54.15 74.5568 54.15 73.5577 54.15C72.7599 54.15 72.4034 53.7539 72.3998 52.885C72.3998 52.5774 72.3928 52.266 72.3998 51.9584C72.4175 51.4009 72.6893 51.051 73.1941 50.9548C73.3671 50.9202 73.5436 50.9087 73.7166 50.9087C75.6123 50.9087 77.508 50.9087 79.4037 50.9087C80.3674 50.9087 80.671 51.2355 80.671 52.266C80.671 52.5005 80.671 52.7389 80.671 52.9734V52.9696Z" fill="#A88750"/>
<path d="M54.8285 52.0775C54.8356 50.3127 53.9565 49.0246 52.4103 48.4864C51.7149 48.2441 51.0053 48.2249 50.2852 48.2288C48.2271 48.2364 46.169 48.2326 44.1109 48.2288C43.9945 48.2288 43.7826 48.3287 43.7756 48.1173C43.7509 47.2983 43.6556 46.4524 44.2733 45.7911C44.7852 45.2451 45.41 45.0221 46.1125 45.0183C47.1539 45.0144 48.1989 45.0183 49.2403 45.0183C50.3523 45.0183 51.4607 45.0106 52.5727 45.026C52.8163 45.026 52.901 44.9683 52.894 44.6876C52.8763 44.0263 52.8693 43.3611 52.894 42.6998C52.9081 42.3691 52.7916 42.323 52.5233 42.323C50.4123 42.3345 48.2977 42.323 46.1867 42.3345C45.2759 42.3422 44.3863 42.5114 43.5567 42.9536C42.014 43.7725 41.0644 45.0529 41.0221 46.9792C40.9868 48.6863 41.0044 50.3973 41.0044 52.1044C41.0044 52.758 41.1244 53.3886 41.3998 53.9769C42.2929 55.8878 43.8568 56.676 45.696 56.7836C47.5846 56.8913 49.4874 56.8375 51.3795 56.799C52.9822 56.7683 54.2919 55.634 54.712 54.0192C54.8779 53.3809 54.825 52.735 54.8285 52.089V52.0775ZM52.0503 53.0618C52.0256 53.7346 51.6725 54.1422 51.0583 54.146C49.3391 54.1576 47.6199 54.1806 45.9043 54.1384C44.7711 54.1114 43.6944 53.2809 43.7615 51.7084C43.7968 50.9048 43.7615 50.901 44.5099 50.901C45.523 50.901 46.5397 50.901 47.5528 50.901C48.6507 50.901 49.7451 50.901 50.8394 50.901C51.7608 50.901 52.0538 51.2239 52.0538 52.2198C52.0538 52.5004 52.0609 52.7811 52.0538 53.0579L52.0503 53.0618Z" fill="#A88750"/>
<path d="M37.0066 14.7207C37.0066 13.5288 36.4841 12.6214 35.6969 11.887C34.2884 10.572 32.6151 9.90687 30.7829 9.7377C28.1 9.49163 26.688 9.6608 24.0015 9.63773C21.1315 9.61082 23.5355 9.64542 20.6655 9.61851C20.1678 9.61466 20.1289 9.80691 20.2137 10.2491C20.4361 11.4525 20.9656 12.5829 21.8481 13.2673C23.3908 14.4669 24.8629 14.7745 28.619 14.786C28.6719 14.786 28.746 14.7937 28.8449 14.8014C29.2191 14.8245 29.3532 14.886 29.3497 15.3282C29.3426 17.5467 29.3391 19.7613 29.3391 21.9798H29.3109C29.3109 24.2137 29.3109 26.4476 29.3109 28.6815C29.3109 28.8314 29.3568 28.9968 29.2261 29.2159C28.8908 28.3239 28.4495 27.6011 27.8 27.0436C26.0808 25.571 24.0898 25.0327 21.9434 24.9942C21.6328 24.9865 21.601 25.1442 21.601 25.4172C21.6116 26.4937 21.5763 27.5742 21.6151 28.6469C21.6328 29.1506 21.4704 29.2275 21.0574 29.2236C16.7718 29.2082 12.4826 29.2044 8.19702 29.2198C7.80517 29.2198 7.66043 29.1313 7.66396 28.6661C7.67102 26.4322 7.67808 24.2022 7.67808 21.9683H7.66749C7.66749 19.7729 7.66749 17.5774 7.65337 15.382C7.65337 14.8975 7.77693 14.7937 8.20408 14.7937C16.5317 14.7937 18.152 14.7937 19.8995 14.813C20.2596 14.813 20.3302 14.7168 20.2807 14.3208C20.1113 13.0212 19.3947 12.1484 18.4662 11.4371C17.1318 10.4106 15.628 9.87227 14.0076 9.72616C11.6213 9.51085 2.77823 9.68387 0.388317 9.62235C0.0670729 9.61466 0.00353015 9.74923 0.00353015 10.0607C0.00706031 14.0324 0.00353015 18.0004 0.00353015 21.9721H0C0 24.3983 0 26.8244 0 29.2467C0 29.9541 0.183568 30.5886 0.540113 31.1691C0.882538 31.7305 1.3344 32.1688 1.83568 32.5571C3.64665 33.9567 5.71885 34.3566 7.87224 34.3681C12.292 34.3912 16.7117 34.3796 21.1315 34.3681C21.4775 34.3681 21.6257 34.4565 21.661 34.8449C21.7281 35.6254 22.0599 36.2867 22.5577 36.8327C24.3439 38.7897 26.5891 39.4241 29.0355 39.4741C29.3568 39.4818 29.3144 39.2588 29.3144 39.0473C29.3144 37.7362 29.3144 36.4251 29.3144 35.1178C29.3144 34.3412 29.3144 34.345 30.0381 34.3181C31.9232 34.245 33.6741 33.7068 35.2133 32.4841C36.2406 31.669 36.9607 30.6539 36.9607 29.1775C36.9607 26.8167 36.9607 24.456 36.9607 22.0913H37.0031C37.0031 19.6345 37.0031 17.1776 37.0031 14.7207H37.0066Z" fill="#2F2F7F"/>
<path d="M64.1842 25.0594C66.387 24.9479 68.5439 24.9441 70.7044 24.9517C72.8754 24.9594 74.9229 24.5134 76.7374 23.1293C77.7682 22.3449 78.5519 21.3568 78.5978 19.9342C78.6578 18.0694 78.6401 16.2008 78.6084 14.336C78.5943 13.5324 78.3083 12.798 77.807 12.1829C76.4091 10.4642 74.5663 9.72982 72.5471 9.41838C71.0221 9.18384 69.4865 9.31457 67.9544 9.31072C61.3918 9.29919 54.8293 9.28765 48.2632 9.3261C46.371 9.33764 44.5953 9.93744 43.0244 11.137C41.7924 12.0752 41.1429 13.3094 41.1605 14.9973C41.1993 18.5346 41.1711 26.9088 41.1711 30.4461C41.1711 31.5227 41.1711 32.5992 41.1711 33.6758C41.1711 33.9219 41.1923 34.0834 41.4818 34.0757C43.7128 34.0219 45.7885 33.4528 47.5466 31.8841C48.5138 31.019 49.001 29.9155 48.9798 28.5044C48.9374 25.6323 48.9727 17.9194 48.9586 15.0473C48.9586 14.6705 49.0504 14.5667 49.3964 14.5667C56.3896 14.5782 63.3793 14.5782 70.3725 14.5667C70.7114 14.5667 70.8279 14.6628 70.8209 15.0473C70.7997 16.393 70.7926 17.7387 70.8209 19.0844C70.835 19.6035 70.6938 19.7458 70.2172 19.7419C66.1434 19.7227 62.0696 19.7227 57.9993 19.7342C55.8495 19.7381 53.862 20.3225 52.1428 21.7836C51.3697 22.441 50.8119 23.2485 50.6249 24.3404C50.5437 24.8056 50.6566 24.9902 51.0485 25.1709C56.5979 27.7624 62.1437 30.3615 67.679 32.9837C69.3523 33.7758 71.0503 34.414 72.9001 34.4179C74.1039 34.4179 75.3077 34.4179 76.5115 34.4179C79.0002 34.4179 81.489 34.4179 83.9777 34.4179C83.9848 34.3833 83.9919 34.3487 83.9989 34.3141C77.3905 31.2266 70.782 28.1353 64.17 25.0479L64.1842 25.0594Z" fill="#2F2F7F"/>
<path d="M81.8295 8.09659V4.9517H83.4233C83.5511 4.9517 83.6903 4.98864 83.8409 5.0625C83.9915 5.13352 84.1193 5.24432 84.2244 5.39489C84.3324 5.54261 84.3864 5.73011 84.3864 5.95739C84.3864 6.1875 84.331 6.38352 84.2202 6.54545C84.1094 6.70455 83.9744 6.82528 83.8153 6.90767C83.6591 6.99006 83.5114 7.03125 83.3722 7.03125H82.2216V6.51989H83.1591C83.2528 6.51989 83.3537 6.47301 83.4616 6.37926C83.5724 6.28551 83.6278 6.14489 83.6278 5.95739C83.6278 5.7642 83.5724 5.63352 83.4616 5.56534C83.3537 5.49716 83.2585 5.46307 83.1761 5.46307H82.5199V8.09659H81.8295ZM83.7301 6.61364L84.5142 8.09659H83.7557L82.9886 6.61364H83.7301ZM83.0227 9.97159C82.5511 9.97159 82.1094 9.88352 81.6974 9.70739C81.2855 9.53125 80.9233 9.28693 80.6108 8.97443C80.2983 8.66193 80.054 8.29972 79.8778 7.88778C79.7017 7.47585 79.6136 7.03409 79.6136 6.5625C79.6136 6.09091 79.7017 5.64915 79.8778 5.23722C80.054 4.82528 80.2983 4.46307 80.6108 4.15057C80.9233 3.83807 81.2855 3.59375 81.6974 3.41761C82.1094 3.24148 82.5511 3.15341 83.0227 3.15341C83.4943 3.15341 83.9361 3.24148 84.348 3.41761C84.7599 3.59375 85.1222 3.83807 85.4347 4.15057C85.7472 4.46307 85.9915 4.82528 86.1676 5.23722C86.3438 5.64915 86.4318 6.09091 86.4318 6.5625C86.4318 7.03409 86.3438 7.47585 86.1676 7.88778C85.9915 8.29972 85.7472 8.66193 85.4347 8.97443C85.1222 9.28693 84.7599 9.53125 84.348 9.70739C83.9361 9.88352 83.4943 9.97159 83.0227 9.97159ZM83.0227 9.15341C83.5 9.15341 83.9347 9.03693 84.3267 8.80398C84.7188 8.57102 85.0313 8.25852 85.2642 7.86648C85.4972 7.47443 85.6136 7.03977 85.6136 6.5625C85.6136 6.08523 85.4972 5.65057 85.2642 5.25852C85.0313 4.86648 84.7188 4.55398 84.3267 4.32102C83.9347 4.08807 83.5 3.97159 83.0227 3.97159C82.5455 3.97159 82.1108 4.08807 81.7188 4.32102C81.3267 4.55398 81.0142 4.86648 80.7812 5.25852C80.5483 5.65057 80.4318 6.08523 80.4318 6.5625C80.4318 7.03977 80.5483 7.47443 80.7812 7.86648C81.0142 8.25852 81.3267 8.57102 81.7188 8.80398C82.1108 9.03693 82.5455 9.15341 83.0227 9.15341Z" fill="#2F2F7F"/>
</svg>
