<svg width="36" height="36" viewBox="0 0 36 36" fill="none" xmlns="http://www.w3.org/2000/svg">
<path d="M23.162 11.3038L21.2339 9.37568C20.6311 8.77289 19.6537 8.77289 19.0509 9.37568L8.36815 20.0585L4.56312 16.2534C3.96033 15.6506 2.98299 15.6506 2.3802 16.2534L0.452092 18.1815C-0.150697 18.7843 -0.150697 19.7617 0.452092 20.3645L6.31264 26.2249C6.8802 26.7926 7.62418 27.0764 8.36815 27.0764C9.11206 27.0764 9.85604 26.7926 10.4237 26.2249L23.162 13.4867C23.7648 12.8839 23.7648 11.9066 23.162 11.3038Z" fill="#00CD89"/>
<path d="M35.5478 11.3526L33.6197 9.4245C33.0169 8.82171 32.0396 8.82171 31.4368 9.4245L18.3478 22.5134C17.7451 23.1162 17.7451 24.0935 18.3478 24.6963L20.2759 26.6243C20.8787 27.2271 21.856 27.2271 22.4588 26.6243L35.5478 13.5355C36.1506 12.9327 36.1506 11.9554 35.5478 11.3526Z" fill="#00CD89"/>
<path d="M20.4754 20.3857L18.3478 22.5133C17.7451 23.116 17.7451 24.0934 18.3478 24.6962L20.276 26.6243C20.8787 27.2271 21.8561 27.2271 22.4589 26.6243L26.5594 22.5238C24.3557 22.2331 22.2952 21.4883 20.4754 20.3857Z" fill="#00C06F"/>
<path d="M14.5116 13.915L8.36808 20.0585L4.56312 16.2535C3.96033 15.6507 2.98299 15.6507 2.3802 16.2535L0.452092 18.1816C-0.150697 18.7844 -0.150697 19.7617 0.452092 20.3645L6.31264 26.225C6.8802 26.7926 7.62418 27.0764 8.36815 27.0764C9.11206 27.0764 9.85604 26.7926 10.4237 26.225L18.0608 18.5879C16.6053 17.272 15.3968 15.6884 14.5116 13.915Z" fill="#00C06F"/>
</svg>
