<svg width="50" height="50" viewBox="0 0 50 50" fill="none" xmlns="http://www.w3.org/2000/svg">
<g clip-path="url(#clip0_1009_205)">
<path d="M49.1668 25C49.1668 38.86 37.5085 49.9892 23.4602 49.1191C11.4235 48.3733 1.62683 38.5766 0.881834 26.54C0.0110003 12.4916 11.1402 0.833313 25.0002 0.833313C28.8068 0.833313 32.411 1.71165 35.6168 3.28415C36.476 3.70581 36.791 4.77581 36.3168 5.60748L36.3135 5.61331C35.8752 6.38165 34.9185 6.66748 34.1252 6.27665C30.9435 4.70998 27.306 3.94748 23.4668 4.22165C13.3835 4.94081 5.1485 13.0283 4.251 23.0975C3.13433 35.63 13.1777 46.1492 25.5535 45.8258C36.1518 45.5491 44.9985 37.1441 45.7743 26.5708C45.976 23.8241 45.6452 21.165 44.8585 18.7133C44.6093 17.9358 44.9718 17.0966 45.7018 16.7316C46.6135 16.2758 47.731 16.7316 48.0402 17.7025C48.7718 20.0033 49.1668 22.455 49.1668 25Z" fill="#2F2F7F"/>
<path d="M12.842 18.7267L26.0203 36.5575C27.0153 37.9042 29.0403 37.7875 29.8794 36.3359L48.9228 3.37086C49.9144 1.65419 47.6519 -0.0716396 46.3028 1.37336L26.4628 22.625L14.9511 16.2534C13.3953 15.3925 11.7786 17.2875 12.842 18.7267Z" fill="#B38F4C"/>
</g>
<defs>
<clipPath id="clip0_1009_205">
<rect width="50" height="50" fill="white"/>
</clipPath>
</defs>
</svg>
