<svg width="56" height="56" viewBox="0 0 56 56" fill="none" xmlns="http://www.w3.org/2000/svg">
<path fill-rule="evenodd" clip-rule="evenodd" d="M27.9999 0.328247C43.2825 0.328247 55.6717 12.7143 55.6717 28.0039C55.6717 43.2857 43.2825 55.6718 27.9999 55.6718C12.7172 55.6718 0.328125 43.2863 0.328125 28.0039C0.328125 12.7143 12.7181 0.328247 27.9999 0.328247Z" fill="#4CAF50"/>
<path fill-rule="evenodd" clip-rule="evenodd" d="M30.4412 18.9524C31.3087 18.9523 32.1679 19.1232 32.9694 19.4552C33.771 19.7872 34.4993 20.2738 35.1128 20.8873C35.7262 21.5008 36.2128 22.2292 36.5448 23.0307C36.8767 23.8323 37.0475 24.6914 37.0474 25.559C37.0499 25.7814 37.14 25.9937 37.2981 26.15C37.4562 26.3063 37.6695 26.394 37.8918 26.394C38.1142 26.394 38.3275 26.3063 38.4856 26.15C38.6437 25.9937 38.7338 25.7814 38.7363 25.559C38.7353 23.3594 37.8611 21.2502 36.3056 19.6949C34.7501 18.1396 32.6408 17.2655 30.4412 17.2647C30.3295 17.2635 30.2188 17.2844 30.1153 17.3262C30.0119 17.368 29.9177 17.43 29.8383 17.5085C29.759 17.5869 29.696 17.6804 29.653 17.7834C29.61 17.8863 29.5878 17.9968 29.5878 18.1085C29.5878 18.2201 29.61 18.3306 29.653 18.4336C29.696 18.5366 29.759 18.63 29.8383 18.7085C29.9177 18.7869 30.0119 18.8489 30.1153 18.8907C30.2188 18.9326 30.3295 18.9534 30.4412 18.9522V18.9524ZM29.1664 24.3547C29.0548 24.3559 28.9441 24.335 28.8406 24.2932C28.7371 24.2514 28.643 24.1894 28.5636 24.111C28.4842 24.0325 28.4212 23.939 28.3782 23.8361C28.3352 23.7331 28.3131 23.6226 28.3131 23.511C28.3131 23.3993 28.3352 23.2888 28.3782 23.1858C28.4212 23.0829 28.4842 22.9894 28.5636 22.9109C28.643 22.8325 28.7371 22.7705 28.8406 22.7287C28.9441 22.6869 29.0548 22.666 29.1664 22.6672C29.7356 22.6669 30.2993 22.7788 30.8253 22.9964C31.3512 23.2141 31.8292 23.5333 32.2317 23.9357C32.6342 24.3382 32.9535 24.816 33.1713 25.3419C33.3891 25.8678 33.5011 26.4315 33.5009 27.0007C33.4984 27.223 33.4083 27.4354 33.2503 27.5917C33.0922 27.748 32.8788 27.8357 32.6565 27.8357C32.4341 27.8357 32.2208 27.748 32.0627 27.5917C31.9046 27.4354 31.8145 27.223 31.812 27.0007C31.8121 26.6532 31.7438 26.3092 31.6109 25.9882C31.4781 25.6671 31.2832 25.3754 31.0376 25.1297C30.792 24.884 30.5004 24.6891 30.1794 24.5561C29.8584 24.4231 29.5144 24.3547 29.167 24.3547H29.1664ZM34.6601 45.232C31.9927 44.7609 29.3604 43.5372 27.0628 42.1338C24.405 40.5085 21.9224 38.4827 19.7204 36.2799C17.5183 34.0772 15.4916 31.5963 13.8663 28.936C12.4641 26.6387 11.2371 24.0056 10.7686 21.3396C10.6561 20.7432 10.69 20.1284 10.8675 19.548C11.0562 18.9735 11.3796 18.4525 11.8108 18.0285L15.329 14.5113C15.4938 14.3476 15.7166 14.2557 15.9488 14.2557C16.1811 14.2557 16.4039 14.3476 16.5687 14.5113L22.8888 20.8301C23.0522 20.9952 23.1438 21.2181 23.1438 21.4504C23.1438 21.6826 23.0522 21.9055 22.8888 22.0707L19.5299 25.4305C19.2906 25.6681 19.1438 25.9832 19.1158 26.3192C19.0878 26.6552 19.1804 26.9903 19.377 27.2642C20.6763 29.0598 22.1217 30.745 23.6983 32.3029C25.2552 33.8802 26.9404 35.3254 28.7366 36.6236C29.0101 36.8206 29.345 36.9136 29.6809 36.8857C30.0168 36.8578 30.3318 36.7109 30.569 36.4715L33.9307 33.1119C34.0117 33.0305 34.1081 32.966 34.2142 32.9221C34.3204 32.8783 34.4342 32.8559 34.549 32.8564C34.7818 32.856 35.0053 32.9479 35.1704 33.1119L41.4898 39.4311C41.6531 39.5961 41.7448 39.819 41.7448 40.0512C41.7448 40.2834 41.6531 40.5063 41.4898 40.6713L37.9715 44.1889C37.5504 44.6253 37.0268 44.9493 36.4484 45.1315C35.8701 45.3137 35.2553 45.3483 34.6601 45.232ZM30.4412 12.3923C30.2174 12.3923 30.0029 12.3035 29.8447 12.1453C29.6865 11.9871 29.5976 11.7725 29.5976 11.5488C29.5976 11.3251 29.6865 11.1106 29.8447 10.9524C30.0029 10.7942 30.2174 10.7053 30.4412 10.7053C32.3918 10.7052 34.3234 11.0894 36.1255 11.8358C37.9277 12.5822 39.5652 13.6763 40.9445 15.0557C42.3238 16.435 43.4179 18.0725 44.1643 19.8747C44.9108 21.6768 45.2949 23.6084 45.2948 25.559C45.2948 25.783 45.2058 25.9978 45.0474 26.1562C44.889 26.3146 44.6742 26.4036 44.4502 26.4036C44.2262 26.4036 44.0114 26.3146 43.8531 26.1562C43.6947 25.9978 43.6057 25.783 43.6057 25.559C43.606 22.0673 42.2191 18.7185 39.7503 16.2493C37.2815 13.78 33.9329 12.3926 30.4412 12.3923Z" fill="white"/>
</svg>
