<svg width="62" height="62" viewBox="0 0 62 62" fill="none" xmlns="http://www.w3.org/2000/svg">
<g clip-path="url(#clip0_833_200)">
<path d="M35.7792 3.1V22.2167C35.7792 23.8959 34.3584 25.3167 32.6792 25.3167H16.275L4.13329 31.6458V25.3166H3.1C1.42079 25.3166 0 23.8958 0 22.2166V3.1C0 1.42079 1.42079 0 3.1 0H32.8083C34.4875 0 35.7792 1.42079 35.7792 3.1Z" fill="#F3705A"/>
<path d="M8.39589 16.0166C10.2506 16.0166 11.7542 14.5131 11.7542 12.6583C11.7542 10.8036 10.2506 9.30005 8.39589 9.30005C6.54116 9.30005 5.0376 10.8036 5.0376 12.6583C5.0376 14.5131 6.54116 16.0166 8.39589 16.0166Z" fill="white"/>
<path d="M17.9545 16.0166C19.8092 16.0166 21.3128 14.5131 21.3128 12.6583C21.3128 10.8036 19.8092 9.30005 17.9545 9.30005C16.0998 9.30005 14.5962 10.8036 14.5962 12.6583C14.5962 14.5131 16.0998 16.0166 17.9545 16.0166Z" fill="white"/>
<path d="M27.5126 16.0166C29.3673 16.0166 30.8709 14.5131 30.8709 12.6583C30.8709 10.8036 29.3673 9.30005 27.5126 9.30005C25.6579 9.30005 24.1543 10.8036 24.1543 12.6583C24.1543 14.5131 25.6579 16.0166 27.5126 16.0166Z" fill="white"/>
<path d="M26.2207 10.7208V29.7084C26.2207 31.3876 27.6415 32.8084 29.3207 32.8084H45.854L57.9957 39.1376V32.8084H58.8999C60.5791 32.8084 61.9999 31.3876 61.9999 29.7084V10.7208C61.9999 9.04164 60.5791 7.62085 58.8999 7.62085H29.1916C27.5124 7.62085 26.2207 9.04176 26.2207 10.7208Z" fill="#FFD15C"/>
<path d="M53.6044 23.6375C55.4591 23.6375 56.9627 22.1339 56.9627 20.2792C56.9627 18.4245 55.4591 16.9209 53.6044 16.9209C51.7497 16.9209 50.2461 18.4245 50.2461 20.2792C50.2461 22.1339 51.7497 23.6375 53.6044 23.6375Z" fill="white"/>
<path d="M44.0458 23.6375C45.9005 23.6375 47.4041 22.1339 47.4041 20.2792C47.4041 18.4245 45.9005 16.9209 44.0458 16.9209C42.1911 16.9209 40.6875 18.4245 40.6875 20.2792C40.6875 22.1339 42.1911 23.6375 44.0458 23.6375Z" fill="white"/>
<path d="M34.4877 23.6375C36.3424 23.6375 37.846 22.1339 37.846 20.2792C37.846 18.4245 36.3424 16.9209 34.4877 16.9209C32.633 16.9209 31.1294 18.4245 31.1294 20.2792C31.1294 22.1339 32.633 23.6375 34.4877 23.6375Z" fill="white"/>
<path d="M44.9501 33.5833V52.7C44.9501 54.3792 43.5293 55.8 41.8501 55.8H31.6459L26.9959 62L22.3459 55.6708H12.2709C10.5917 55.6708 9.1709 54.25 9.1709 52.5708V33.5833C9.1709 31.9041 10.5917 30.4833 12.2709 30.4833H41.9792C43.6584 30.4833 44.9501 31.9042 44.9501 33.5833Z" fill="#66C6B9"/>
<path d="M36.5541 46.5C38.4088 46.5 39.9124 44.9965 39.9124 43.1417C39.9124 41.287 38.4088 39.7834 36.5541 39.7834C34.6994 39.7834 33.1958 41.287 33.1958 43.1417C33.1958 44.9965 34.6994 46.5 36.5541 46.5Z" fill="white"/>
<path d="M27.1249 46.5C28.9796 46.5 30.4832 44.9965 30.4832 43.1417C30.4832 41.287 28.9796 39.7834 27.1249 39.7834C25.2702 39.7834 23.7666 41.287 23.7666 43.1417C23.7666 44.9965 25.2702 46.5 27.1249 46.5Z" fill="white"/>
<path d="M17.5668 46.5C19.4215 46.5 20.9251 44.9965 20.9251 43.1417C20.9251 41.287 19.4215 39.7834 17.5668 39.7834C15.7121 39.7834 14.2085 41.287 14.2085 43.1417C14.2085 44.9965 15.7121 46.5 17.5668 46.5Z" fill="white"/>
</g>
<defs>
<clipPath id="clip0_833_200">
<rect width="62" height="62" fill="white"/>
</clipPath>
</defs>
</svg>
