<svg width="28" height="30" viewBox="0 0 28 30" fill="none" xmlns="http://www.w3.org/2000/svg">
<path d="M22.0547 19.3625C21.2255 19.82 20.53 18.5607 21.3595 18.1021L24.9864 16.0949C25.8446 15.6197 25.8446 14.3802 24.9864 13.9051L4.22709 2.41474C3.27925 1.89033 2.16027 2.72833 2.4005 3.78743L4.90741 14.8416C4.93257 14.9539 4.93009 15.0659 4.90458 15.1704L2.4005 26.2125C2.16027 27.2716 3.27925 28.1096 4.22709 27.5852L17.6276 20.1679C18.4561 19.7101 19.153 20.9694 18.3228 21.4283L4.92229 28.8455C2.8824 29.9744 0.480016 28.1603 0.993445 25.8961L3.46421 15L0.993445 4.10385C0.480016 1.83966 2.8824 0.0254723 4.92229 1.15438L25.6816 12.6447C27.5419 13.6744 27.5419 16.3255 25.6816 17.3552L22.0547 19.3625ZM5.8627 7.76943C5.65435 6.84356 7.0607 6.52607 7.26975 7.45301L8.9454 14.8416C8.97055 14.9539 8.96807 15.0659 8.94256 15.1704L7.26975 22.5469C7.0607 23.4742 5.65364 23.1557 5.8627 22.2305L7.5022 15L5.8627 7.76943Z" fill="#2FAB73"/>
</svg>
