<svg width="102" height="102" viewBox="0 0 102 102" fill="none" xmlns="http://www.w3.org/2000/svg">
<g clip-path="url(#clip0_308_12561)">
<path d="M81.9399 2.00794C79.2529 -0.560051 75.0214 -0.560051 72.3346 2.00794C69.6826 4.66071 69.6826 8.96066 72.3346 11.6132L75.1826 14.4612L67.7698 21.8724L62.9654 17.0681C60.3048 14.4273 56.0121 14.4273 53.3517 17.0681L52.163 18.2568C49.9806 20.4531 49.5594 23.8472 51.139 26.5103L46.175 31.4727L46.158 31.4828L46.146 31.4998L40.158 37.4811H40.1479V37.4912L34.1445 43.4928L12.3214 65.3037C11.3596 66.2595 10.8197 67.5599 10.822 68.916V88.429L0.518636 98.7305C0.0771488 99.1568 -0.0998914 99.7883 0.0554993 100.382C0.21089 100.976 0.674634 101.44 1.26848 101.595C1.86232 101.751 2.49359 101.573 2.92011 101.132L13.2303 90.8236H32.7298C34.0867 90.8256 35.3878 90.2852 36.3437 89.3223L52.6674 72.9699V75.4205C52.6674 82.594 52.6674 92.4184 73.3436 101.625C74.2365 102.016 75.2528 102.016 76.1457 101.625C96.822 92.4117 96.822 82.5871 96.822 75.4205V52.723C96.82 51.7425 96.3943 50.8109 95.6545 50.1675C94.9148 49.5241 93.9331 49.2317 92.9619 49.3655C89.9757 49.8217 86.9349 49.7833 83.9612 49.2518L84.7493 48.4637C86.0298 47.1908 86.7499 45.4599 86.7499 43.6543C86.7499 41.8486 86.0298 40.1177 84.7493 38.8448L79.7784 33.8808L87.1912 26.4696L90.3211 29.5995C92.0265 31.3654 94.5522 32.0736 96.9274 31.4518C99.3024 30.8301 101.157 28.9753 101.779 26.6003C102.401 24.2254 101.692 21.6997 99.9266 19.994L81.9399 2.00794ZM14.2185 70.9607L30.6915 87.4337H14.2185V70.9607ZM34.4616 86.3994L15.2441 67.1836L17.3261 65.1032L22.1339 69.9092C22.5602 70.3507 23.1917 70.5277 23.7856 70.3723C24.3794 70.2169 24.8429 69.7532 24.9985 69.1594C25.1541 68.5655 24.9769 67.9342 24.5354 67.5077L19.7294 62.7017L23.3313 59.1015L28.1391 63.9058C28.8054 64.5494 29.8646 64.5401 30.5198 63.8852C31.1749 63.2302 31.184 62.1708 30.5404 61.5045L25.7344 56.7002L29.3381 53.0965L34.1425 57.9024C34.8088 58.5461 35.868 58.5367 36.5231 57.8818C37.1783 57.2267 37.1874 56.1674 36.5438 55.5012L31.7394 50.6968L35.3448 47.0949L40.1491 51.8976C40.8154 52.5413 41.8746 52.532 42.5298 51.877C43.1849 51.2219 43.194 50.1627 42.5504 49.4964L37.746 44.6936L41.3514 41.0917L46.1523 45.8945C46.5764 46.3461 47.2129 46.531 47.813 46.3768C48.4131 46.2227 48.8815 45.7538 49.0353 45.1535C49.1891 44.5532 49.0038 43.9171 48.552 43.4932L43.751 38.6905L47.3548 35.0885L52.1575 39.8895C52.8211 40.5525 53.8965 40.5521 54.5596 39.8887C55.2226 39.225 55.2222 38.1496 54.5588 37.4864L49.7595 32.6871L53.3666 29.0833L71.5057 47.2394C66.8644 49.5176 61.6191 50.2622 56.527 49.3657C55.5559 49.2319 54.5741 49.5243 53.8344 50.1677C53.0947 50.8111 52.669 51.7429 52.667 52.7232V68.1621L34.4616 86.3994ZM93.4252 52.723V75.4201C93.4252 82.354 93.4252 90.212 74.7223 98.5165C56.0635 90.2035 56.0635 82.3473 56.0635 75.4201V68.8988V68.8411L56.0481 52.7349C66.0561 54.1698 72.4754 50.787 74.729 49.2653C80.3279 52.6669 86.98 53.8971 93.4252 52.723ZM83.3461 43.6628C83.3451 44.5674 82.9831 45.4342 82.3407 46.0709L81.135 47.2766C80.7565 47.6448 80.2953 47.9174 79.7899 48.0714C78.672 47.6361 77.6017 47.0874 76.5955 46.4343C76.1085 46.1211 75.5484 45.9402 74.9702 45.9094L62.1161 33.0452L62.1041 33.0282L54.5638 25.4879C53.9162 24.854 53.551 23.986 53.551 23.0798C53.551 22.1735 53.916 21.3055 54.5638 20.6716L55.7525 19.4829C57.0869 18.1637 59.2342 18.1637 60.5688 19.4829L66.5483 25.4624L66.5653 25.4863L76.1724 35.0934L76.1929 35.1088L82.3405 41.2548C82.9831 41.8915 83.3449 42.7583 83.3461 43.6628ZM77.3767 31.4796L70.1711 24.2739L77.5839 16.8627L84.7895 24.0684L77.3767 31.4796ZM97.5247 27.1982C96.181 28.4818 94.0656 28.4818 92.7219 27.1982L88.5102 22.9865C88.4811 22.9367 88.4493 22.8886 88.4151 22.8422C88.3726 22.8016 88.3166 22.7846 88.2708 22.7471L78.9067 13.383C78.8693 13.3371 78.8523 13.2794 78.81 13.2353C78.7619 13.1999 78.7121 13.1671 78.6605 13.1368L74.7444 9.21216C73.8614 8.35933 73.5073 7.09658 73.8181 5.9091C74.1289 4.72161 75.0564 3.79412 76.2439 3.48334C77.4313 3.17256 78.6943 3.52664 79.5469 4.40962L97.5247 22.3959C98.8508 23.722 98.8508 25.8719 97.5247 27.1982Z" fill="#A88750"/>
<path fill-rule="evenodd" clip-rule="evenodd" d="M64.0573 75.2386C63.391 74.595 62.3318 74.6043 61.6766 75.2593C61.0215 75.9144 61.0124 76.9736 61.656 77.6399L68.4489 84.433C69.0898 85.0744 70.1215 85.099 70.7925 84.489L89.4733 67.5065C90.1673 66.8752 90.2183 65.8009 89.587 65.1069C88.9558 64.4129 87.8814 64.3619 87.1874 64.9932L69.7055 80.8871L64.0573 75.2386Z" fill="#2FAB73"/>
</g>
<defs>
<clipPath id="clip0_308_12561">
<rect width="102" height="102" fill="white"/>
</clipPath>
</defs>
</svg>
