<svg width="100" height="100" viewBox="0 0 100 100" fill="none" xmlns="http://www.w3.org/2000/svg">
<path d="M38.8484 28.0469C37.9859 28.0469 37.2859 28.7469 37.2859 29.6094V31.3969C37.2859 32.2594 37.9859 32.9594 38.8484 32.9594C39.7109 32.9594 40.4109 32.2594 40.4109 31.3969V29.6094C40.4109 28.7469 39.7109 28.0469 38.8484 28.0469Z" fill="#A88750"/>
<path d="M38.8484 71.9703C37.9859 71.9703 37.2859 72.6703 37.2859 73.5328V75.3187C37.2859 76.1812 37.9859 76.8812 38.8484 76.8812C39.7109 76.8812 40.4109 76.1812 40.4109 75.3187V73.5328C40.4109 72.6703 39.7109 71.9703 38.8484 71.9703Z" fill="#A88750"/>
<path d="M19.3437 52.4641C19.3437 51.6016 18.6437 50.9016 17.7812 50.9016H15.9937C15.1312 50.9016 14.4312 51.6016 14.4312 52.4641C14.4312 53.3266 15.1312 54.0266 15.9937 54.0266H17.7812C18.6437 54.0266 19.3437 53.3266 19.3437 52.4641Z" fill="#A88750"/>
<path d="M48.7015 35.6297C48.9499 35.775 49.2218 35.8438 49.489 35.8438C50.0265 35.8438 50.5483 35.5672 50.839 35.0703L51.7405 33.5297C52.1765 32.7844 51.9265 31.8281 51.1811 31.3922C50.4343 30.9563 49.4796 31.2078 49.0436 31.9516L48.1421 33.4922C47.7061 34.2375 47.9561 35.1938 48.7015 35.6297Z" fill="#A88750"/>
<path d="M28.997 69.3C28.2485 68.8609 27.2939 69.1141 26.8595 69.8578L25.9564 71.4C25.5204 72.1453 25.7704 73.1016 26.5142 73.5375C26.7626 73.6828 27.0345 73.7516 27.3017 73.7516C27.8392 73.7516 28.361 73.475 28.6517 72.9781L29.5548 71.4359C29.9907 70.6906 29.7407 69.7359 28.997 69.3Z" fill="#A88750"/>
<path d="M18.3345 42.2687L19.8751 43.1719C20.1235 43.3172 20.3954 43.3859 20.6626 43.3859C21.1985 43.3859 21.722 43.1094 22.0126 42.6125C22.4485 41.8672 22.1985 40.9109 21.4548 40.475L19.9142 39.5719C19.1704 39.1359 18.2126 39.3844 17.7767 40.1297C17.3407 40.875 17.5907 41.8328 18.3345 42.2687Z" fill="#A88750"/>
<path d="M28.6532 31.95C28.2173 31.2047 27.2594 30.9516 26.5157 31.3922C25.7704 31.8281 25.5204 32.7859 25.9579 33.5297L26.861 35.0703C27.1516 35.5672 27.6751 35.8438 28.211 35.8438C28.4782 35.8438 28.7516 35.775 28.9985 35.6297C29.7438 35.1937 29.9938 34.2359 29.5563 33.4922L28.6532 31.95Z" fill="#A88750"/>
<path d="M49.0436 72.9781C49.3343 73.475 49.8577 73.7516 50.3936 73.7516C50.6608 73.7516 50.9327 73.6828 51.1811 73.5375C51.9265 73.1016 52.1765 72.1437 51.7405 71.4L50.839 69.8578C50.403 69.1141 49.4483 68.8625 48.7015 69.2984C47.9561 69.7344 47.7061 70.6922 48.1421 71.4359L49.0436 72.9781Z" fill="#A88750"/>
<path d="M19.8766 61.7578L18.336 62.6594C17.5907 63.0953 17.3407 64.0531 17.7766 64.7969C18.0672 65.2938 18.5907 65.5703 19.1266 65.5703C19.3938 65.5703 19.6657 65.5016 19.9141 65.3563L21.4547 64.4547C22.2 64.0188 22.45 63.0609 22.0141 62.3172C21.5782 61.5734 20.6235 61.3219 19.8766 61.7578Z" fill="#A88750"/>
<path d="M96.5235 39.4203L68.6095 24.1844C67.8876 23.7937 66.986 24.0234 66.5454 24.7141L64.8532 27.3469C62.1532 24.5391 59.061 22.175 55.5876 20.3641C52.0423 18.5 48.2673 17.2984 44.3813 16.7156V13.6234H46.2564C47.9595 13.6234 49.3454 12.2375 49.3454 10.5344V6.21406C49.3454 4.51094 47.9595 3.125 46.2564 3.125H31.4517C29.7485 3.125 28.3626 4.51094 28.3626 6.21406V10.5344C28.3626 12.2375 29.7485 13.6234 31.4517 13.6234H33.3267V16.7219C15.7563 19.4156 2.6626 34.5016 2.6626 52.4281C2.6626 58.2656 4.01572 63.8375 6.67979 68.9813C12.8751 81.1016 25.2001 88.6313 38.847 88.6313C42.4501 88.6313 45.961 88.1047 49.3438 87.0813L43.8173 94.3688C43.3751 94.9516 43.397 95.7625 43.8688 96.3219C44.1735 96.6828 44.6142 96.875 45.0626 96.875C45.3079 96.875 45.5548 96.8172 45.7845 96.6969L92.4923 72.5188C93.0064 72.2531 93.3298 71.7266 93.3376 71.1484C93.3438 70.5703 93.0313 70.0359 92.5235 69.7594L75.8235 60.6453L96.8126 41.9578C97.1923 41.6203 97.3829 41.1172 97.3267 40.6125C97.2689 40.1078 96.9688 39.6625 96.522 39.4188L96.5235 39.4203ZM31.4517 6.25L46.2204 6.21406V10.4984L42.8329 10.5063C42.8329 10.5063 42.8235 10.5031 42.8188 10.5031H34.8892C34.8501 10.5031 34.8157 10.5234 34.7782 10.525L31.4876 10.5328L31.4517 6.25ZM44.7626 59.5406C44.8688 59.9609 45.147 60.3172 45.5267 60.525L59.622 68.2297C54.7032 74.7219 47.0564 78.55 38.8485 78.55C29.0095 78.55 20.1173 73.1172 15.6376 64.3641C13.7173 60.6719 12.7438 56.6547 12.7438 52.4266C12.7438 38.0422 24.4548 26.3406 38.8485 26.3406C43.1032 26.3406 47.1626 27.3391 50.9173 29.3078C54.1095 30.9766 56.961 33.3172 59.222 36.1141L44.9642 58.3094C44.7298 58.6734 44.6579 59.1203 44.7657 59.5406H44.7626ZM40.2079 16.2969C39.7595 16.2813 39.322 16.2531 38.8532 16.2531C38.4032 16.2531 37.9845 16.2797 37.5517 16.2953C37.2267 16.3062 36.8813 16.3078 36.5735 16.3266C36.5345 16.3297 36.4907 16.3266 36.4517 16.3312V13.6297H41.2563V16.3312C41.2173 16.3281 41.1751 16.3313 41.1345 16.3266C40.8423 16.3094 40.5157 16.3078 40.2079 16.2969ZM52.8985 82.3891C48.4813 84.4562 43.7548 85.5047 38.847 85.5047C26.3798 85.5047 15.1204 78.6281 9.45947 67.55C7.02197 62.8469 5.7876 57.7578 5.7876 52.4266C5.7876 35.6188 18.3735 21.5078 35.0876 19.6C35.4548 19.5516 35.8579 19.525 36.2532 19.4937C36.4579 19.4766 36.6548 19.4516 36.861 19.4391C37.4813 19.4031 38.1392 19.3859 38.847 19.3859C39.5595 19.3859 40.2235 19.4031 40.8501 19.4391C41.0251 19.45 41.1923 19.4719 41.3657 19.4859C41.8048 19.5187 42.2454 19.5516 42.6548 19.6047C46.661 20.0453 50.522 21.2328 54.1376 23.1328C57.5329 24.9047 60.5532 27.2188 63.1329 30.0234L60.9642 33.4C58.5485 30.6156 55.6313 28.25 52.3642 26.5422C48.1595 24.3359 43.611 23.2188 38.8454 23.2188C22.7282 23.2188 9.61572 36.3234 9.61572 52.4297C9.61572 57.1656 10.7079 61.6672 12.8563 65.8C17.8688 75.5938 27.8267 81.6781 38.8454 81.6781C48.197 81.6781 56.886 77.2375 62.3829 69.7391L62.4626 69.7828L52.8954 82.3938L52.8985 82.3891ZM72.0907 59.7859C71.711 60.1234 71.5204 60.6266 71.5767 61.1313C71.6345 61.6359 71.9345 62.0812 72.3814 62.325L88.447 71.0922L50.5204 90.7L66.0548 70.2172C66.3298 69.8547 66.4329 69.3891 66.3376 68.9437C66.2423 68.4984 65.9548 68.1172 65.5548 67.9L48.4985 58.5891L66.4095 30.7219C66.4157 30.7125 66.4173 30.7 66.4235 30.6891L68.3923 27.625L93.0798 41.1L72.0907 59.7859Z" fill="#A88750"/>
<path d="M38.8484 39.3578C37.9859 39.3578 37.2859 40.0578 37.2859 40.9203V52.3031C37.2859 53.1656 37.9859 53.8656 38.8484 53.8656C39.7109 53.8656 40.4109 53.1656 40.4109 52.3031V40.9203C40.4109 40.0578 39.7109 39.3578 38.8484 39.3578Z" fill="#A88750"/>
</svg>
