<svg width="124" height="124" viewBox="0 0 124 124" fill="none" xmlns="http://www.w3.org/2000/svg">
<path d="M91.571 72.6199C91.571 94.4531 73.8671 112.145 52.046 112.145C30.2128 112.145 12.521 94.4531 12.521 72.6199C12.521 38.193 52.046 11.843 52.046 11.843C52.046 11.843 59.4811 17.1226 67.9093 25.7687C64.7124 29.8859 62.7991 35.0687 62.7991 40.6875C62.7991 50.375 68.4542 58.7426 76.6401 62.6539C79.5948 64.0707 82.8765 64.9062 86.3518 65.0152C86.6061 65.0273 86.8726 65.0273 87.139 65.0273C88.3983 65.0273 89.6335 64.9305 90.8323 64.7488C91.3167 67.3402 91.571 69.968 91.571 72.6199Z" fill="#F6F6F6"/>
<path d="M111.479 40.6996C111.479 52.8816 102.518 62.9808 90.8323 64.7609C89.6213 64.9426 88.3983 65.0394 87.1389 65.0394C86.8725 65.0394 86.6182 65.0394 86.3518 65.0273C82.8885 64.9183 79.5948 64.0828 76.6401 62.666C68.4542 58.7426 62.7991 50.3871 62.7991 40.6996C62.7991 35.0808 64.7124 29.898 67.9092 25.7808C70.2221 22.8019 73.2131 20.3801 76.6401 18.7332C79.5948 17.3164 82.8764 16.4808 86.3518 16.3718C86.6061 16.3597 86.8725 16.3597 87.1389 16.3597C100.58 16.3597 111.479 27.2582 111.479 40.6996Z" fill="white"/>
<path d="M91.571 72.6199C91.571 94.4531 73.8671 112.145 52.046 112.145C30.2128 112.145 12.521 94.4531 12.521 72.6199C12.521 38.193 52.046 11.843 52.046 11.843C52.046 11.843 59.4811 17.1226 67.9093 25.7687C64.7124 29.8859 62.7991 35.0687 62.7991 40.6875C62.7991 50.375 68.4542 58.7426 76.6401 62.6539C79.5948 64.0707 82.8765 64.9062 86.3518 65.0152C86.6061 65.0273 86.8725 65.0273 87.139 65.0273C88.3983 65.0273 89.6335 64.9305 90.8323 64.7488C91.3167 67.3402 91.571 69.968 91.571 72.6199Z" stroke="#A88750" stroke-width="4" stroke-miterlimit="10" stroke-linejoin="round"/>
<path d="M52.0459 96.8992C37.8658 96.8992 26.374 85.4074 26.374 71.2273" stroke="#CCC5C5" stroke-width="4" stroke-miterlimit="10" stroke-linejoin="round"/>
<path d="M111.479 40.6996C111.479 52.8816 102.518 62.9808 90.8323 64.7609C89.6213 64.9426 88.3983 65.0394 87.1389 65.0394C86.8725 65.0394 86.6182 65.0394 86.3518 65.0273C82.8885 64.9183 79.5948 64.0828 76.6401 62.666C68.4542 58.7426 62.7991 50.3871 62.7991 40.6996C62.7991 35.0808 64.7124 29.898 67.9092 25.7808C70.2221 22.8019 73.2131 20.3801 76.6401 18.7332C79.5948 17.3164 82.8764 16.4808 86.3518 16.3718C86.6061 16.3597 86.8725 16.3597 87.1389 16.3597C100.58 16.3597 111.479 27.2582 111.479 40.6996Z" stroke="#A88750" stroke-width="4" stroke-miterlimit="10" stroke-linejoin="round"/>
<path d="M95.4373 30.6687L97.1495 32.3809L78.8197 50.7107L77.1075 48.9985L95.4373 30.6687Z" fill="#F53838"/>
<path d="M78.8284 30.6687L97.1582 48.9985L95.4459 50.7107L77.1161 32.3809L78.8284 30.6687Z" fill="#F53838"/>
<path d="M111.479 103.208C111.479 108.149 107.471 112.157 102.53 112.157C97.5893 112.157 93.5811 108.149 93.5811 103.208C93.5811 95.4097 102.53 89.4398 102.53 89.4398C102.53 89.4398 111.479 95.7972 111.479 103.208Z" stroke="#A88750" stroke-width="2" stroke-miterlimit="10" stroke-linejoin="round"/>
</svg>
