<svg width="84" height="84" viewBox="0 0 84 84" fill="none" xmlns="http://www.w3.org/2000/svg">
<g clip-path="url(#clip0_308_12557)">
<path d="M49.4042 46.1598C49.2472 46.4302 48.9895 46.6274 48.6874 46.7081C48.3854 46.7887 48.0636 46.7464 47.7928 46.5903L43.7094 44.2329C43.1349 44.6377 42.4295 44.8123 41.7325 44.722C41.0355 44.6318 40.3978 44.2834 39.9453 43.7456C39.4929 43.2078 39.2587 42.5199 39.289 41.8177C39.3193 41.1156 39.6119 40.4504 40.1091 39.9536C40.3429 39.7211 40.6148 39.5303 40.913 39.3894V28.8847C40.913 28.5714 41.0374 28.2709 41.2589 28.0494C41.4805 27.8279 41.7809 27.7034 42.0942 27.7034C42.4075 27.7034 42.708 27.8279 42.9295 28.0494C43.151 28.2709 43.2755 28.5714 43.2755 28.8847V39.3894C43.5736 39.5303 43.8455 39.7211 44.0794 39.9536C44.3403 40.214 44.5472 40.5233 44.6884 40.8638C44.8295 41.2042 44.902 41.5692 44.9018 41.9378C44.9018 42.024 44.8971 42.1101 44.8923 42.1913L48.9756 44.5538C49.1094 44.631 49.2265 44.7338 49.3205 44.8563C49.4144 44.9789 49.4832 45.1187 49.5231 45.2679C49.5629 45.4171 49.5728 45.5727 49.5525 45.7257C49.5321 45.8787 49.4817 46.0263 49.4042 46.1598ZM61.0326 51.5156L58.508 50.0573C58.2373 49.9019 57.9159 49.8605 57.6146 49.9421C57.3133 50.0237 57.0567 50.2216 56.9013 50.4924C56.746 50.7631 56.7045 51.0845 56.7861 51.3858C56.8677 51.6871 57.0657 51.9437 57.3364 52.099L59.861 53.5574C60.1318 53.7127 60.4532 53.7542 60.7545 53.6726C61.0558 53.591 61.3123 53.393 61.4677 53.1223C61.6231 52.8515 61.6645 52.5302 61.5829 52.2288C61.5013 51.9275 61.3034 51.671 61.0326 51.5156ZM52.249 57.181C52.0937 56.9109 51.8374 56.7136 51.5365 56.6325C51.2357 56.5513 50.9149 56.593 50.6448 56.7484C50.3747 56.9038 50.1774 57.16 50.0963 57.4609C50.0151 57.7617 50.0568 58.0825 50.2122 58.3526L51.6705 60.882C51.7475 61.0157 51.85 61.133 51.9722 61.2271C52.0945 61.3212 52.2341 61.3903 52.383 61.4305C52.532 61.4707 52.6874 61.4811 52.8404 61.4612C52.9934 61.4413 53.141 61.3915 53.2747 61.3146C53.4085 61.2377 53.5258 61.1351 53.6199 61.0129C53.714 60.8906 53.7831 60.751 53.8233 60.6021C53.8635 60.4531 53.8739 60.2977 53.854 60.1447C53.8341 59.9917 53.7843 59.8441 53.7074 59.7104L52.249 57.181ZM53.2818 22.5638C53.0111 22.4073 52.6892 22.3647 52.3871 22.4454C52.0849 22.5261 51.8272 22.7235 51.6705 22.9942L50.2122 25.5188C50.058 25.7894 50.0171 26.11 50.0984 26.4107C50.1797 26.7113 50.3767 26.9676 50.6463 27.1236C50.9159 27.2796 51.2363 27.3226 51.5374 27.2432C51.8386 27.1639 52.0962 26.9686 52.2539 26.7L53.7074 24.1753C53.7859 24.0417 53.8372 23.8938 53.8584 23.7403C53.8795 23.5868 53.87 23.4306 53.8304 23.2807C53.7909 23.1309 53.722 22.9903 53.6278 22.8672C53.5337 22.7441 53.4161 22.6409 53.2818 22.5635V22.5638ZM63.2896 40.762H60.3726C60.0606 40.762 59.7615 40.8859 59.5409 41.1065C59.3203 41.327 59.1964 41.6262 59.1964 41.9381C59.1964 42.2501 59.3203 42.5492 59.5409 42.7698C59.7615 42.9904 60.0606 43.1143 60.3726 43.1143H63.2893C63.6012 43.1143 63.9004 42.9904 64.121 42.7698C64.3415 42.5492 64.4654 42.2501 64.4654 41.9381C64.4654 41.6262 64.3415 41.327 64.121 41.1065C63.9004 40.8859 63.6012 40.762 63.2893 40.762H63.2896ZM58.5131 33.8193L61.0377 32.361C61.1724 32.284 61.2906 32.181 61.3854 32.0581C61.4802 31.9352 61.5498 31.7948 61.5901 31.6449C61.6305 31.4951 61.6408 31.3387 61.6205 31.1848C61.6001 31.0309 61.5496 30.8826 61.4717 30.7483C61.3939 30.6141 61.2902 30.4965 61.1667 30.4025C61.0433 30.3084 60.9024 30.2397 60.7523 30.2003C60.6022 30.1608 60.4458 30.1515 60.292 30.1728C60.1383 30.194 59.9902 30.2455 59.8564 30.3242L57.3318 31.7778C57.0611 31.9344 56.8637 32.1922 56.783 32.4944C56.7024 32.7966 56.745 33.1184 56.9017 33.3892C57.0583 33.6599 57.3161 33.8573 57.6183 33.938C57.9205 34.0187 58.2424 33.976 58.5131 33.8193ZM25.6694 50.0615L23.1445 51.5156C22.8759 51.6734 22.6806 51.9309 22.6013 52.2321C22.5219 52.5333 22.5649 52.8537 22.7209 53.1233C22.8769 53.3929 23.1332 53.5898 23.4338 53.6712C23.7345 53.7525 24.0551 53.7116 24.3257 53.5574L26.8503 52.099C26.9841 52.0215 27.1013 51.9183 27.1951 51.7955C27.289 51.6726 27.3578 51.5325 27.3975 51.3831C27.4373 51.2337 27.4472 51.0779 27.4267 50.9246C27.4062 50.7714 27.3558 50.6237 27.2782 50.4899C27.2007 50.3562 27.0975 50.239 26.9747 50.1451C26.8518 50.0512 26.7117 49.9824 26.5623 49.9427C26.4129 49.903 26.2571 49.8931 26.1038 49.9135C25.9506 49.934 25.8028 49.9845 25.6691 50.062L25.6694 50.0615ZM42.0934 24.8391C42.4067 24.8391 42.7071 24.7146 42.9287 24.4931C43.1502 24.2716 43.2746 23.9711 43.2746 23.6578V20.7418C43.2746 20.4285 43.1502 20.128 42.9287 19.9065C42.7071 19.685 42.4067 19.5605 42.0934 19.5605C41.7801 19.5605 41.4796 19.685 41.2581 19.9065C41.0366 20.128 40.9121 20.4285 40.9121 20.7418V23.6578C40.9116 23.8131 40.9419 23.9669 41.001 24.1104C41.0602 24.254 41.1472 24.3844 41.257 24.4942C41.3668 24.604 41.4972 24.691 41.6408 24.7502C41.7843 24.8093 41.9381 24.8396 42.0934 24.8391ZM24.995 41.9378C24.9944 41.6247 24.8698 41.3246 24.6484 41.1032C24.427 40.8818 24.1268 40.7571 23.8137 40.7566H20.8973C20.584 40.7566 20.2836 40.881 20.0621 41.1025C19.8405 41.3241 19.7161 41.6245 19.7161 41.9378C19.7161 42.2511 19.8405 42.5516 20.0621 42.7731C20.2836 42.9946 20.584 43.1191 20.8973 43.1191H23.8139C24.1271 43.119 24.4275 42.9946 24.649 42.773C24.8705 42.5515 24.995 42.2511 24.995 41.9378ZM42.0934 59.0362C41.7801 59.0362 41.4796 59.1607 41.2581 59.3822C41.0366 59.6038 40.9121 59.9042 40.9121 60.2175V63.1342C40.9121 63.4475 41.0366 63.7479 41.2581 63.9695C41.4796 64.191 41.7801 64.3154 42.0934 64.3154C42.4067 64.3154 42.7071 64.191 42.9287 63.9695C43.1502 63.7479 43.2746 63.4475 43.2746 63.1342V60.2172C43.2739 59.9041 43.1493 59.6041 42.9279 59.3828C42.7065 59.1615 42.4064 59.0369 42.0934 59.0362ZM71.0544 41.9378C71.0545 47.6658 69.3561 53.2652 66.1738 58.028C62.9916 62.7907 58.4685 66.5028 53.1766 68.6949C47.8846 70.887 42.0615 71.4606 36.4435 70.3432C30.8256 69.2258 25.6651 66.4675 21.6148 62.4173C17.5644 58.367 14.8061 53.2066 13.6886 47.5887C12.5711 41.9707 13.1446 36.1476 15.3366 30.8556C17.5286 25.5636 21.2407 21.0404 26.0033 17.8581C30.766 14.6758 36.3654 12.9773 42.0934 12.9773C49.7741 12.9777 57.1402 16.029 62.5713 21.46C68.0025 26.8911 71.0539 34.2571 71.0544 41.9378ZM66.8658 41.9378C66.8654 37.0378 65.4119 32.248 62.6892 28.174C59.9664 24.1001 56.0968 20.925 51.5696 19.0503C47.0424 17.1756 42.0609 16.6855 37.2552 17.6419C32.4494 18.5983 28.0352 20.9583 24.5707 24.4235C21.1062 27.8887 18.747 32.3034 17.7916 37.1093C16.8361 41.9153 17.3272 46.8967 19.2028 51.4235C21.0784 55.9503 24.2543 59.8193 28.3288 62.5412C32.4033 65.2631 37.1934 66.7157 42.0934 66.7152C45.3471 66.7157 48.569 66.0751 51.5751 64.83C54.5812 63.5849 57.3125 61.7598 59.613 59.4588C61.9135 57.1579 63.7381 54.4262 64.9825 51.4199C66.227 48.4136 66.867 45.1915 66.8658 41.9378ZM32.5161 22.9938C32.4385 22.8598 32.3353 22.7423 32.2124 22.6482C32.0894 22.554 31.9491 22.485 31.7995 22.445C31.6498 22.4051 31.4938 22.395 31.3403 22.4154C31.1867 22.4357 31.0387 22.4861 30.9047 22.5637C30.7706 22.6412 30.6531 22.7444 30.559 22.8674C30.4648 22.9904 30.3958 23.1307 30.3558 23.2803C30.2752 23.5825 30.3178 23.9044 30.4745 24.1751L31.9328 26.6949C32.0888 26.965 32.3457 27.1621 32.647 27.2428C32.9482 27.3235 33.2692 27.2812 33.5393 27.1253C33.8094 26.9693 34.0065 26.7124 34.0872 26.4111C34.1679 26.1099 34.1256 25.7889 33.9697 25.5188L32.5161 22.9938ZM33.5441 56.7507C33.2734 56.5941 32.9515 56.5515 32.6493 56.6322C32.3472 56.7129 32.0894 56.9103 31.9328 57.181L30.4745 59.7056C30.3969 59.8397 30.3465 59.9877 30.3262 60.1412C30.3058 60.2948 30.3159 60.4508 30.3558 60.6004C30.3958 60.7501 30.4648 60.8904 30.559 61.0133C30.6531 61.1363 30.7706 61.2395 30.9047 61.317C31.1754 61.4737 31.4973 61.5164 31.7995 61.4357C31.9491 61.3957 32.0894 61.3267 32.2124 61.2326C32.3353 61.1384 32.4385 61.0209 32.5161 60.8869L33.9697 58.3623C34.126 58.0919 34.169 57.7707 34.0892 57.4687C34.0095 57.1668 33.8135 56.9086 33.5441 56.7507ZM26.8503 31.7774L24.3257 30.3238C24.0558 30.1695 23.7357 30.1282 23.4354 30.209C23.1351 30.2898 22.8789 30.4862 22.7229 30.7552C22.5669 31.0243 22.5236 31.3441 22.6026 31.6449C22.6816 31.9457 22.8764 32.203 23.1445 32.3607L25.6691 33.819C25.8031 33.8966 25.9512 33.947 26.1047 33.9673C26.2582 33.9877 26.4143 33.9776 26.5639 33.9377C26.7135 33.8977 26.8538 33.8287 26.9768 33.7345C27.0997 33.6404 27.203 33.5229 27.2805 33.3888C27.3581 33.2548 27.4085 33.1068 27.4288 32.9532C27.4492 32.7997 27.4391 32.6437 27.3992 32.494C27.3592 32.3444 27.2902 32.2041 27.196 32.0812C27.1019 31.9582 26.9844 31.855 26.8503 31.7774Z" fill="#2F2F7F"/>
<path d="M41.9922 84C49.4792 84.0065 56.8317 82.011 63.2873 78.2203C69.743 74.4296 75.0667 68.9817 78.7065 62.4415C82.3463 55.9013 84.1697 48.5069 83.9876 41.025C83.8055 33.5431 81.6245 26.2461 77.6709 19.8906C77.5162 19.6343 77.3121 19.4112 77.0705 19.2344C76.8288 19.0575 76.5545 18.9304 76.2633 18.8604C75.9721 18.7904 75.6699 18.779 75.3743 18.8267C75.0786 18.8744 74.7954 18.9803 74.541 19.1384C74.2867 19.2964 74.0663 19.5034 73.8926 19.7472C73.7189 19.9911 73.5954 20.267 73.5293 20.559C73.4632 20.851 73.4557 21.1532 73.5074 21.4481C73.5591 21.7429 73.6688 22.0246 73.8303 22.2767C78.5009 29.8092 80.3447 38.7546 79.0332 47.5191C77.7218 56.2837 73.3402 64.2982 66.6691 70.1349C59.998 75.9716 51.4707 79.2515 42.6062 79.3901C33.7418 79.5287 25.116 76.5171 18.2655 70.8919C11.415 65.2666 6.78476 57.393 5.19966 48.6737C3.61455 39.9545 5.17753 30.9559 9.61013 23.281C14.0427 15.6062 21.0571 9.75355 29.4036 6.76579C37.7501 3.77803 46.8866 3.84918 55.1855 6.96658L57.1084 7.68846L54.7637 12.2117L66.3822 10.4857L61.0969 0L59.1835 3.68648L57.6431 3.06961C57.4088 2.97412 57.1696 2.87831 56.9305 2.78759C51.1752 0.598381 45.0087 -0.298829 38.8679 0.159525C32.7271 0.61788 26.7623 2.42058 21.396 5.4399C16.0298 8.45923 11.3935 12.6213 7.81569 17.6312C4.23783 22.6411 1.80596 28.3762 0.692375 34.4302C-0.421206 40.4842 -0.189245 46.7089 1.37182 52.6633C2.93289 58.6177 5.78487 64.1561 9.72568 68.886C13.6665 73.616 18.5997 77.4217 24.1757 80.0336C29.7518 82.6455 35.8343 83.9996 41.9922 84Z" fill="#A88750"/>
</g>
<defs>
<clipPath id="clip0_308_12557">
<rect width="84" height="84" fill="white"/>
</clipPath>
</defs>
</svg>
