<svg width="117" height="112" viewBox="0 0 117 112" fill="none" xmlns="http://www.w3.org/2000/svg">
<path d="M94.7635 3.62917C94.4475 3.62917 94.1302 3.50873 93.8893 3.26784C93.4056 2.78225 93.4042 1.99985 93.8874 1.51569L95.0407 0.362403C95.5244 -0.120801 96.3082 -0.120801 96.7919 0.362403C97.276 0.845608 97.276 1.6304 96.7919 2.1136L95.6395 3.26593C95.3967 3.50873 95.0813 3.62917 94.7635 3.62917Z" fill="#2FAB73"/>
<path d="M89.5564 8.83738C89.24 8.83738 88.9226 8.71598 88.6813 8.47414C88.198 7.99093 88.198 7.20566 88.6813 6.72294L89.8336 5.57061C90.3168 5.08645 91.1011 5.08645 91.5848 5.57061C92.0689 6.05429 92.0689 6.8386 91.5848 7.32181L90.4329 8.47414C90.1906 8.71646 89.8732 8.83738 89.5564 8.83738Z" fill="#2FAB73"/>
<path d="M95.9163 8.83738C95.5994 8.83738 95.2821 8.71598 95.0402 8.47414L93.8869 7.32181C93.4037 6.8386 93.4037 6.05429 93.8869 5.57061C94.3716 5.08645 95.1544 5.08645 95.6391 5.57061L96.7914 6.72294C97.2756 7.20519 97.2756 7.99045 96.7914 8.47414C96.5501 8.71646 96.2327 8.83738 95.9163 8.83738Z" fill="#2FAB73"/>
<path d="M90.709 3.62917C90.3917 3.62917 90.0748 3.50873 89.833 3.26593L88.6806 2.1136C88.1974 1.6304 88.1974 0.846086 88.6806 0.362403C89.1643 -0.120801 89.9482 -0.120801 90.4318 0.362403L91.5837 1.51569C92.0679 1.99985 92.0679 2.78225 91.5837 3.26784C91.3423 3.50873 91.0254 3.62917 90.709 3.62917Z" fill="#2FAB73"/>
<path d="M49.7399 16.4864C49.4226 16.4864 49.1067 16.365 48.8648 16.1246C48.3807 15.64 48.3807 14.8566 48.8648 14.3734L50.0172 13.2201C50.5018 12.7364 51.2847 12.7364 51.7693 13.2201C52.253 13.7033 52.253 14.4876 51.7693 14.9708L50.6165 16.1241C50.3732 16.365 50.0568 16.4864 49.7399 16.4864Z" fill="#2FAB73"/>
<path d="M44.5327 21.6937C44.2153 21.6937 43.8989 21.5723 43.6576 21.3304C43.1734 20.8472 43.1734 20.0629 43.6576 19.5792L44.8099 18.4269C45.294 17.9427 46.0784 17.9446 46.562 18.4269C47.0452 18.9106 47.0452 19.6949 46.562 20.1781L45.4088 21.3304C45.166 21.5723 44.8496 21.6937 44.5327 21.6937Z" fill="#2FAB73"/>
<path d="M50.8929 21.6936C50.5765 21.6936 50.2586 21.5722 50.0168 21.3304L48.8645 20.1781C48.3803 19.6949 48.3803 18.9106 48.8645 18.4269C49.3477 17.9427 50.131 17.9427 50.6157 18.4269L51.7685 19.5792C52.2522 20.0629 52.2522 20.8467 51.7685 21.3304C51.5262 21.5722 51.2093 21.6936 50.8929 21.6936Z" fill="#2FAB73"/>
<path d="M45.6855 16.4867C45.3695 16.4867 45.0512 16.3653 44.8094 16.1249L43.6571 14.9716C43.1729 14.4884 43.1729 13.7041 43.6571 13.2209C44.1407 12.7372 44.9236 12.7372 45.4083 13.2209L46.5615 14.3741C47.0448 14.8573 47.0448 15.6407 46.5615 16.1253C46.3188 16.3653 46.0019 16.4867 45.6855 16.4867Z" fill="#2FAB73"/>
<path d="M72.2158 36.988C71.8989 36.988 71.5825 36.8666 71.3407 36.6252C70.8565 36.142 70.8565 35.3586 71.3407 34.874L72.655 33.5596C73.1382 33.075 73.9216 33.075 74.4048 33.5596C74.8894 34.0429 74.8894 34.8262 74.4057 35.3104L73.0904 36.6247C72.85 36.8666 72.5327 36.988 72.2158 36.988Z" fill="#2FAB73"/>
<path d="M66.2763 42.9259C65.9585 42.9259 65.6421 42.8055 65.4002 42.5646C64.917 42.0795 64.917 41.2971 65.4012 40.8134L66.7146 39.4981C67.1978 39.0149 67.9821 39.0149 68.4658 39.4981C68.949 39.9823 68.949 40.7661 68.4658 41.2503L67.1505 42.5646C66.9101 42.8055 66.5927 42.9259 66.2763 42.9259Z" fill="#2FAB73"/>
<path d="M73.5301 42.9259C73.2128 42.9259 72.8964 42.8055 72.655 42.5646L71.3407 41.2503C70.8565 40.7661 70.8565 39.9828 71.3407 39.4981C71.8239 39.0149 72.6072 39.0149 73.0904 39.4981L74.4048 40.8134C74.8894 41.2966 74.8894 42.079 74.4057 42.5646C74.1644 42.8055 73.8475 42.9259 73.5301 42.9259Z" fill="#2FAB73"/>
<path d="M67.5912 36.9878C67.2743 36.9878 66.9569 36.8664 66.7151 36.625L65.4007 35.3107C64.9175 34.8265 64.9175 34.0431 65.4017 33.5599C65.8849 33.0753 66.6692 33.0777 67.151 33.5599L68.4663 34.8743C68.9495 35.3585 68.9495 36.1418 68.4663 36.6255C68.2244 36.8664 67.9071 36.9878 67.5912 36.9878Z" fill="#2FAB73"/>
<path d="M1.24265 75.3121C0.916686 75.3121 0.59885 75.1812 0.368479 74.9518C0.135241 74.7176 0.00476074 74.3997 0.00476074 74.0738C0.00476074 73.7488 0.135719 73.43 0.368479 73.1996C0.827786 72.7365 1.65607 72.7365 2.11968 73.1996C2.34957 73.43 2.48053 73.7488 2.48053 74.0738C2.48053 74.3997 2.34957 74.7176 2.11968 74.9518C1.88644 75.1812 1.56717 75.3121 1.24265 75.3121Z" fill="#A88750"/>
<path d="M29.8707 75.3121C29.5457 75.3121 29.2269 75.1812 28.9975 74.9518C28.7676 74.7176 28.6328 74.3997 28.6328 74.0738C28.6328 73.7488 28.7676 73.43 28.9975 73.1996C29.4573 72.7365 30.2851 72.7365 30.7477 73.1996C30.9781 73.43 31.1086 73.7488 31.1086 74.0738C31.1086 74.3997 30.9781 74.7176 30.7477 74.9518C30.5145 75.1812 30.1962 75.3121 29.8707 75.3121Z" fill="#A88750"/>
<path d="M87.1307 75.3121C86.8014 75.3121 86.4831 75.1812 86.2537 74.9518C86.0233 74.7176 85.8923 74.3997 85.8923 74.0738C85.8923 73.7488 86.0233 73.43 86.2537 73.1996C86.713 72.7365 87.5413 72.7365 88.0044 73.1996C88.2348 73.43 88.3681 73.7488 88.3681 74.0738C88.3681 74.3997 88.2343 74.7176 88.0044 74.9518C87.7745 75.1812 87.4562 75.3121 87.1307 75.3121Z" fill="#A88750"/>
<path d="M115.76 75.3121C115.434 75.3121 115.112 75.1812 114.882 74.9518C114.652 74.7176 114.521 74.3997 114.521 74.0738C114.521 73.7488 114.652 73.43 114.882 73.1996C115.345 72.7365 116.168 72.7365 116.633 73.1996C116.862 73.43 116.998 73.7488 116.998 74.0738C116.998 74.3997 116.862 74.7176 116.633 74.9518C116.404 75.1812 116.084 75.3121 115.76 75.3121Z" fill="#A88750"/>
<path d="M1.24265 91.9495C0.916686 91.9495 0.595982 91.8176 0.368479 91.5872C0.135241 91.3583 0.00476074 91.039 0.00476074 90.7111C0.00476074 90.3842 0.135719 90.0673 0.368479 89.836C0.827786 89.3757 1.65607 89.3757 2.11585 89.836C2.35005 90.0673 2.481 90.3842 2.481 90.7111C2.481 91.039 2.35005 91.3578 2.11585 91.5872C1.88644 91.8176 1.56717 91.9495 1.24265 91.9495Z" fill="#A88750"/>
<path d="M29.8707 91.9494C29.5457 91.9494 29.2269 91.8175 28.9975 91.5871C28.7676 91.3582 28.6328 91.0389 28.6328 90.7111C28.6328 90.3842 28.7676 90.0673 28.9975 89.836C29.4573 89.3757 30.2851 89.3757 30.7477 89.836C30.9781 90.0673 31.1086 90.3842 31.1086 90.7111C31.1086 91.0389 30.9781 91.3577 30.7477 91.5871C30.5174 91.8175 30.1962 91.9494 29.8707 91.9494Z" fill="#A88750"/>
<path d="M87.1307 91.9494C86.8014 91.9494 86.4831 91.8175 86.2537 91.5871C86.0233 91.3582 85.8923 91.0389 85.8923 90.7111C85.8923 90.3842 86.0233 90.0673 86.2537 89.836C86.713 89.3757 87.5451 89.3757 88.0044 89.836C88.2348 90.0673 88.3681 90.3842 88.3681 90.7111C88.3681 91.0389 88.2343 91.3577 88.0044 91.5871C87.7745 91.8175 87.4562 91.9494 87.1307 91.9494Z" fill="#A88750"/>
<path d="M115.76 91.9494C115.434 91.9494 115.112 91.8175 114.882 91.5871C114.652 91.3582 114.521 91.0389 114.521 90.7111C114.521 90.3842 114.652 90.0673 114.882 89.836C115.345 89.3757 116.173 89.3757 116.633 89.836C116.862 90.0673 116.998 90.3842 116.998 90.7111C116.998 91.0389 116.862 91.3577 116.633 91.5871C116.404 91.8175 116.084 91.9494 115.76 91.9494Z" fill="#A88750"/>
<path d="M15.5546 83.6318C15.2287 83.6318 14.907 83.5018 14.6776 83.268C14.4472 83.0377 14.3163 82.7198 14.3163 82.3939C14.3163 82.0703 14.4472 81.751 14.6776 81.5178C14.907 81.2865 15.2258 81.1555 15.5546 81.1555C15.8806 81.1555 16.1984 81.2865 16.4288 81.5178C16.6592 81.7472 16.793 82.0698 16.793 82.3939C16.793 82.7198 16.6592 83.0377 16.4288 83.268C16.1984 83.5018 15.8763 83.6318 15.5546 83.6318Z" fill="#A88750"/>
<path d="M101.447 83.6318C101.122 83.6318 100.803 83.5018 100.574 83.268C100.343 83.0377 100.209 82.7198 100.209 82.3939C100.209 82.0703 100.344 81.751 100.574 81.5178C101.033 81.0571 101.861 81.0571 102.325 81.5178C102.554 81.7472 102.685 82.0698 102.685 82.3939C102.685 82.7198 102.554 83.0377 102.325 83.268C102.091 83.5018 101.773 83.6318 101.447 83.6318Z" fill="#A88750"/>
<path d="M15.5546 100.268C15.2287 100.268 14.907 100.138 14.6776 99.9091C14.4472 99.6739 14.3163 99.3566 14.3163 99.0301C14.3163 98.7051 14.4472 98.3863 14.6776 98.1569C15.1374 97.6971 15.969 97.6933 16.4288 98.1569C16.6592 98.3858 16.793 98.7051 16.793 99.0301C16.793 99.357 16.6592 99.6739 16.4288 99.9091C16.1984 100.138 15.8763 100.268 15.5546 100.268Z" fill="#A88750"/>
<path d="M44.1828 100.268C43.8578 100.268 43.54 100.138 43.3086 99.9092C43.0792 99.674 42.9487 99.3567 42.9487 99.0302C42.9487 98.7052 43.0797 98.3864 43.3086 98.157C43.7689 97.6934 44.6 97.6934 45.0608 98.157C45.2902 98.386 45.4245 98.7052 45.4245 99.0302C45.4245 99.3572 45.2902 99.674 45.0608 99.9092C44.8304 100.138 44.5087 100.268 44.1828 100.268Z" fill="#A88750"/>
<path d="M72.8159 100.268C72.4899 100.268 72.1721 100.138 71.9417 99.9092C71.7118 99.674 71.578 99.3567 71.578 99.0302C71.578 98.7052 71.7118 98.3864 71.9417 98.157C72.4015 97.6934 73.2288 97.6972 73.692 98.157C73.9219 98.386 74.0538 98.7052 74.0538 99.0302C74.0538 99.3572 73.9219 99.674 73.692 99.9092C73.4597 100.138 73.1395 100.268 72.8159 100.268Z" fill="#A88750"/>
<path d="M101.447 100.268C101.122 100.268 100.803 100.138 100.574 99.9092C100.343 99.6779 100.209 99.3567 100.209 99.0302C100.209 98.7052 100.344 98.3864 100.574 98.157C101.033 97.6972 101.861 97.6972 102.325 98.157C102.554 98.386 102.685 98.7052 102.685 99.0302C102.685 99.3572 102.554 99.6779 102.325 99.9092C102.091 100.138 101.773 100.268 101.447 100.268Z" fill="#A88750"/>
<path d="M101.443 111.288C97.4497 111.288 95.373 109.722 93.5401 108.339C91.7975 107.024 90.292 105.889 87.1275 105.889C83.9635 105.889 82.4579 107.024 80.7153 108.339C78.8819 109.722 76.8053 111.288 72.8115 111.288C68.8173 111.288 66.7407 109.722 64.9082 108.339C63.1656 107.024 61.6601 105.889 58.4956 105.889C55.3316 105.889 53.827 107.024 52.0844 108.339C50.251 109.722 48.1734 111.288 44.1806 111.288C40.1874 111.288 38.1097 109.722 36.2773 108.339C34.5347 107.024 33.0306 105.889 29.8666 105.889C28.1393 105.889 26.7819 106.218 25.4685 106.957C24.8715 107.292 24.1178 107.08 23.7813 106.486C23.4468 105.888 23.659 105.133 24.2555 104.799C25.9369 103.853 27.7211 103.414 29.867 103.414C33.8603 103.414 35.937 104.98 37.7694 106.362C39.512 107.676 41.0171 108.812 44.1811 108.812C47.3451 108.812 48.8506 107.676 50.5937 106.362C52.4261 104.98 54.5028 103.414 58.4961 103.414C62.4903 103.414 64.567 104.98 66.3989 106.362C68.1425 107.676 69.648 108.812 72.812 108.812C75.977 108.812 77.4825 107.676 79.2246 106.362C81.0566 104.979 83.1357 103.414 87.128 103.414C91.1222 103.414 93.1989 104.98 95.0308 106.362C96.7753 107.676 98.2799 108.812 101.443 108.812C104.609 108.812 106.114 107.676 107.857 106.362C109.691 104.979 111.768 103.414 115.762 103.414C116.446 103.414 117 103.967 117 104.651C117 105.335 116.446 105.889 115.762 105.889C112.596 105.889 111.091 107.024 109.349 108.339C107.515 109.722 105.438 111.288 101.443 111.288Z" fill="#A88750"/>
<path d="M15.5529 111.288C11.5587 111.288 9.48199 109.722 7.64954 108.339C5.90599 107.024 4.40189 105.889 1.23788 105.889C0.552987 105.889 0 105.335 0 104.651C0 103.967 0.552987 103.414 1.23788 103.414C5.23018 103.414 7.30781 104.98 9.14074 106.362C10.8833 107.676 12.3879 108.812 15.5529 108.812C17.8332 108.812 19.1762 108.199 20.0915 107.662C20.6817 107.316 21.4393 107.517 21.7853 108.107C22.1304 108.697 21.9316 109.455 21.3413 109.8C19.6044 110.815 17.7653 111.288 15.5529 111.288Z" fill="#A88750"/>
<path d="M101.443 69.693C97.4496 69.693 95.3729 68.1263 93.54 66.744C91.7974 65.4297 90.2919 64.2941 87.1274 64.2941C83.9634 64.2941 82.4578 65.4297 80.7152 66.744C78.8818 68.1263 76.8051 69.693 72.8114 69.693C72.5017 69.693 72.1934 69.6834 71.8952 69.6643C71.2132 69.6222 70.6946 69.0339 70.7376 68.3518C70.7797 67.6698 71.3737 67.1474 72.051 67.1928C72.2976 67.2091 72.5533 67.2167 72.8114 67.2167C75.9764 67.2167 77.4819 66.0816 79.224 64.7672C81.056 63.3836 83.1351 61.8174 87.1274 61.8174C91.1216 61.8174 93.1982 63.3841 95.0302 64.7672C96.7747 66.0816 98.2793 67.2167 101.443 67.2167C104.609 67.2167 106.113 66.0816 107.857 64.7672C109.69 63.3836 111.767 61.8174 115.762 61.8174C116.446 61.8174 117 62.3713 117 63.0557C117 63.7397 116.446 64.2936 115.762 64.2936C112.596 64.2936 111.09 65.4292 109.348 66.7436C107.515 68.1263 105.438 69.693 101.443 69.693Z" fill="#A88750"/>
<path d="M44.18 69.6932C40.1867 69.6932 38.1091 68.1265 36.2767 66.7443C34.5341 65.4299 33.03 64.2943 29.866 64.2943C26.7029 64.2943 25.1964 65.4299 23.4543 66.7443C21.6218 68.1265 19.5461 69.6932 15.5529 69.6932C11.5587 69.6932 9.48199 68.1265 7.64955 66.7443C5.90599 65.4299 4.40189 64.2943 1.23788 64.2943C0.552987 64.2943 0 63.7404 0 63.0564C0 62.372 0.552987 61.8181 1.23788 61.8181C5.23018 61.8181 7.30781 63.3848 9.14074 64.7679C10.8833 66.0823 12.3879 67.2174 15.5529 67.2174C18.7159 67.2174 20.2215 66.0823 21.9636 64.7679C23.796 63.3843 25.8727 61.8181 29.866 61.8181C33.8592 61.8181 35.9359 63.3848 37.7683 64.7679C39.5109 66.0823 41.016 67.2174 44.18 67.2174C44.4462 67.2174 44.7072 67.2098 44.9586 67.1926C45.6387 67.1448 46.2294 67.6643 46.2739 68.3473C46.3188 69.0298 45.8021 69.6186 45.1201 69.6631C44.8161 69.6836 44.5002 69.6932 44.18 69.6932Z" fill="#A88750"/>
<path d="M58.5007 95.2473C51.0916 95.2473 45.2883 89.1793 45.2883 81.4299C45.2883 80.0696 45.4594 78.5488 47.6547 71.3113C48.1025 69.8392 48.6015 68.3403 49.0837 66.8922C49.8814 64.4991 50.7049 62.0257 51.3143 59.6044C51.6293 58.3493 51.3563 57.0474 50.5644 56.0308C49.7801 55.0243 48.5976 54.4459 47.3201 54.4459H1.24265C0.558703 54.4459 0.00476074 53.893 0.00476074 53.2081C0.00476074 52.5251 0.558703 51.9697 1.24265 51.9697H47.3201C49.3652 51.9697 51.2603 52.8955 52.5178 54.5081C53.7824 56.1312 54.2193 58.2088 53.7155 60.2095C53.0832 62.7202 52.2444 65.2399 51.4323 67.6741C50.9549 69.1089 50.4616 70.5905 50.0243 72.031C47.9352 78.9149 47.7641 80.3612 47.7641 81.4304C47.7641 87.7904 52.4795 92.7716 58.5007 92.7716C64.52 92.7716 69.2364 87.7909 69.2364 81.4304C69.2364 80.3602 69.0662 78.9149 66.9771 72.031C66.5398 70.5905 66.0461 69.1089 65.5691 67.675C64.757 65.2399 63.9182 62.7202 63.2849 60.2095C62.7826 58.2088 63.219 56.1312 64.4836 54.5081C65.7406 52.8955 67.6362 51.9697 69.6813 51.9697H115.762C116.446 51.9697 117 52.5246 117 53.2081C117 53.893 116.446 54.4459 115.762 54.4459H69.6813C68.4038 54.4459 67.2213 55.0238 66.4361 56.0308C65.6431 57.0474 65.3698 58.3493 65.6871 59.6044C66.2965 62.0262 67.12 64.5 67.9177 66.8922C68.3999 68.3403 68.8989 69.8392 69.3458 71.3113C71.542 78.5474 71.7121 80.0692 71.7121 81.4299C71.7126 89.1793 65.9089 95.2473 58.5007 95.2473Z" fill="#A88750"/>
<path d="M58.5007 88.7033C54.6996 88.7033 51.8339 85.5775 51.8339 81.4299C51.8339 80.2149 52.558 78.2687 53.4761 75.8068C54.0176 74.351 54.6327 72.7011 55.1183 71.1182C55.32 70.4648 56.0126 70.0963 56.6659 70.2985C57.3193 70.4992 57.6863 71.1918 57.4856 71.8442C56.9785 73.4969 56.3505 75.1831 55.7965 76.6705C55.0657 78.6329 54.3101 80.6609 54.3101 81.4299C54.3101 84.2096 56.0728 86.227 58.5007 86.227C60.9282 86.227 62.6904 84.2096 62.6904 81.4299C62.6904 81.1986 62.548 79.976 60.7141 73.9328C57.3236 62.7598 56.3036 51.2255 57.6811 39.6473C59.2717 26.2705 64.1357 13.3329 71.7475 2.23454C72.1829 1.60126 72.9529 1.45883 73.5178 1.84645C74.0804 2.23263 74.2238 3.00308 73.8371 3.56801C66.4041 14.405 61.6839 26.9592 60.1391 39.9407C58.8038 51.1768 59.7936 62.3698 63.0833 73.2125C64.9306 79.2978 65.1667 80.8014 65.1667 81.4299C65.1667 85.578 62.3009 88.7033 58.5007 88.7033Z" fill="#A88750"/>
</svg>
