<svg width="28" height="26" viewBox="0 0 28 26" fill="none" xmlns="http://www.w3.org/2000/svg">
<circle cx="22" cy="6" r="6" fill="#2F2F7F" fill-opacity="0.6"/>
<path d="M13.0001 15.3509C10.6926 15.3509 8.80762 13.4767 8.80762 11.1584C8.80762 8.84002 10.6926 6.97668 13.0001 6.97668C15.3076 6.97668 17.1926 8.85085 17.1926 11.1692C17.1926 13.4875 15.3076 15.3509 13.0001 15.3509ZM13.0001 8.60168C11.5918 8.60168 10.4326 9.75002 10.4326 11.1692C10.4326 12.5884 11.581 13.7367 13.0001 13.7367C14.4193 13.7367 15.5676 12.5884 15.5676 11.1692C15.5676 9.75002 14.4085 8.60168 13.0001 8.60168Z" fill="#292D32"/>
<path d="M12.9998 24.6566C11.3965 24.6566 9.78232 24.05 8.52566 22.8475C5.32982 19.7708 1.79816 14.8633 3.13066 9.02413C4.33316 3.72663 8.95899 1.35413 12.9998 1.35413C12.9998 1.35413 12.9998 1.35413 13.0107 1.35413C17.0515 1.35413 21.6773 3.72663 22.8798 9.03496C24.2015 14.8741 20.6698 19.7708 17.474 22.8475C16.2173 24.05 14.6032 24.6566 12.9998 24.6566ZM12.9998 2.97913C9.84732 2.97913 5.79566 4.65829 4.72316 9.38163C3.55316 14.4841 6.75982 18.8825 9.66316 21.6666C11.5373 23.4758 14.4732 23.4758 16.3473 21.6666C19.2398 18.8825 22.4465 14.4841 21.2982 9.38163C20.2148 4.65829 16.1523 2.97913 12.9998 2.97913Z" fill="#292D32"/>
</svg>
