<svg width="28" height="26" viewBox="0 0 28 26" fill="none" xmlns="http://www.w3.org/2000/svg">
<circle cx="22" cy="6" r="6" fill="#FFB7D5" fill-opacity="0.6"/>
<path d="M9.92279 12.5883C9.89029 12.5883 9.86862 12.5883 9.83612 12.5883C9.78195 12.5775 9.70612 12.5775 9.64112 12.5883C6.49945 12.4908 4.12695 10.0208 4.12695 6.97663C4.12695 3.87829 6.65112 1.35413 9.74945 1.35413C12.8478 1.35413 15.372 3.87829 15.372 6.97663C15.3611 10.0208 12.9778 12.4908 9.95529 12.5883C9.94445 12.5883 9.93362 12.5883 9.92279 12.5883ZM9.74945 2.97913C7.55029 2.97913 5.75195 4.77746 5.75195 6.97663C5.75195 9.14329 7.44195 10.8875 9.59779 10.9633C9.66279 10.9525 9.80362 10.9525 9.94445 10.9633C12.0678 10.8658 13.7361 9.12163 13.747 6.97663C13.747 4.77746 11.9486 2.97913 9.74945 2.97913Z" fill="#292D32"/>
<path d="M17.9176 12.7292C17.8851 12.7292 17.8526 12.7292 17.8201 12.7184C17.3759 12.7617 16.9209 12.4475 16.8776 12.0034C16.8342 11.5592 17.1051 11.1584 17.5492 11.1042C17.6792 11.0934 17.8201 11.0934 17.9392 11.0934C19.5209 11.0067 20.7559 9.70671 20.7559 8.11421C20.7559 6.46754 19.4234 5.13504 17.7767 5.13504C17.3326 5.14587 16.9642 4.77754 16.9642 4.33337C16.9642 3.88921 17.3326 3.52087 17.7767 3.52087C20.3117 3.52087 22.3809 5.59004 22.3809 8.12504C22.3809 10.6167 20.4309 12.6317 17.9501 12.7292C17.9392 12.7292 17.9284 12.7292 17.9176 12.7292Z" fill="#292D32"/>
<path d="M9.93326 24.4292C7.80992 24.4292 5.67576 23.8875 4.06159 22.8042C2.55576 21.8075 1.73242 20.4425 1.73242 18.9584C1.73242 17.4742 2.55576 16.0984 4.06159 15.0909C7.31159 12.935 12.5766 12.935 15.8049 15.0909C17.2999 16.0875 18.1341 17.4525 18.1341 18.9367C18.1341 20.4209 17.3108 21.7967 15.8049 22.8042C14.1799 23.8875 12.0566 24.4292 9.93326 24.4292ZM4.96076 16.4559C3.92076 17.1492 3.35742 18.0375 3.35742 18.9692C3.35742 19.89 3.93159 20.7784 4.96076 21.4609C7.65826 23.27 12.2083 23.27 14.9058 21.4609C15.9458 20.7675 16.5091 19.8792 16.5091 18.9475C16.5091 18.0267 15.9349 17.1384 14.9058 16.4559C12.2083 14.6575 7.65826 14.6575 4.96076 16.4559Z" fill="#292D32"/>
<path d="M19.868 22.4792C19.4889 22.4792 19.153 22.2192 19.0772 21.8292C18.9905 21.385 19.2722 20.9625 19.7055 20.865C20.388 20.7242 21.0164 20.4534 21.5039 20.0742C22.1214 19.6084 22.4572 19.0234 22.4572 18.4059C22.4572 17.7884 22.1214 17.2034 21.5147 16.7484C21.038 16.38 20.4422 16.12 19.738 15.9575C19.3047 15.86 19.023 15.4267 19.1205 14.9825C19.218 14.5492 19.6514 14.2675 20.0955 14.365C21.0272 14.5709 21.8397 14.9392 22.5005 15.4484C23.508 16.2067 24.0822 17.2792 24.0822 18.4059C24.0822 19.5325 23.4972 20.605 22.4897 21.3742C21.818 21.8942 20.973 22.2734 20.0414 22.4575C19.9764 22.4792 19.9222 22.4792 19.868 22.4792Z" fill="#292D32"/>
</svg>
