<svg width="124" height="95" viewBox="0 0 124 95" fill="none" xmlns="http://www.w3.org/2000/svg">
<g clip-path="url(#clip0_580_297)">
<g filter="url(#filter0_dddd_580_297)">
<path d="M111.359 42.5062C111.359 44.5218 111.345 46.393 111.318 48.1449C111.207 55.4213 110.868 60.6804 110.31 66.094C109.833 70.6802 107.793 74.9627 104.532 78.2227C101.271 81.4827 96.9879 83.5218 92.4016 83.9978L92.2621 84.0113C86.6839 84.5924 85.7886 85.051 74.0258 85.051H73.018C61.2602 85.051 60.3615 84.5924 54.7833 84.0113L54.6439 83.9961C50.0602 83.5184 45.7801 81.4791 42.5216 78.2202C39.263 74.9613 37.2241 70.6811 36.7468 66.0974C36.048 59.3786 35.6953 52.9001 35.6953 42.5062C35.6953 32.1123 36.0497 25.6337 36.7485 18.915C37.1447 15.098 38.627 11.4746 41.0197 8.47435C43.4123 5.47408 46.615 3.22271 50.2481 1.98707V2.06266C51.7053 1.55422 53.2164 1.21604 54.7514 1.05484L54.8908 1.03973C60.469 0.458555 62.3671 0 74.1299 0C85.8928 0 86.788 0.458555 92.3663 1.03973L92.5057 1.05484C93.9679 1.20824 95.4088 1.52198 96.8023 1.99043C96.9905 2.05426 97.1786 2.12145 97.3634 2.19199C100.889 3.48567 103.981 5.74299 106.287 8.7071C108.593 11.6712 110.021 15.2231 110.408 18.9586C110.408 18.9586 111.359 29.0787 111.359 42.5062Z" fill="#4193D2"/>
<path d="M54.7514 1.05484C53.2164 1.21604 51.7053 1.55422 50.2481 2.06266V1.98707C46.6147 3.22244 43.4116 5.4737 41.0187 8.47399C38.6257 11.4743 37.1432 15.0978 36.7468 18.915C36.048 25.6337 35.6953 32.1139 35.6953 42.5062C35.6953 51.8251 35.9792 57.9979 36.5436 64.0162C41.8809 66.0562 47.5476 67.0986 53.2615 67.0918C79.1119 67.0918 100.066 46.136 100.066 20.2873C100.075 13.9394 98.7868 7.65672 96.2816 1.82414C95.051 1.44548 93.7864 1.18782 92.5057 1.05484L92.3663 1.03973C86.788 0.458555 85.8928 0 74.1299 0C62.3671 0 60.469 0.458555 54.8908 1.03973L54.7514 1.05484Z" fill="#48A4DF"/>
<path d="M97.2227 47.4881C93.4143 47.4881 89.6913 48.6175 86.5247 50.7333C83.3581 52.8492 80.89 55.8566 79.4326 59.3751C77.9751 62.8937 77.5938 66.7654 78.3368 70.5007C79.0798 74.236 80.9137 77.6671 83.6067 80.3601C86.2997 83.0531 89.7308 84.887 93.4661 85.63C97.2014 86.373 101.073 85.9917 104.592 84.5342C108.11 83.0768 111.118 80.6087 113.233 77.4421C115.349 74.2755 116.479 70.5525 116.479 66.7441C116.478 61.6372 114.449 56.7396 110.838 53.1286C107.227 49.5175 102.33 47.4886 97.2227 47.4881Z" fill="#2AD352"/>
<path d="M108.114 63.6249L96.5746 75.7421C96.2603 76.0723 95.8826 76.3356 95.4641 76.5163C95.0456 76.697 94.5949 76.7913 94.139 76.7936H94.1239C93.6709 76.7936 93.2224 76.7027 92.8052 76.5261C92.388 76.3495 92.0105 76.0909 91.6951 75.7657L85.5709 69.4567C84.9457 68.8124 84.6021 67.946 84.6156 67.0482C84.6292 66.1505 84.9988 65.2949 85.6432 64.6696C86.2876 64.0444 87.1539 63.7008 88.0517 63.7143C88.9494 63.7278 89.805 64.0975 90.4303 64.7419L94.1004 68.5312L103.219 58.957C103.844 58.3299 104.689 57.9722 105.574 57.9604C106.459 57.9487 107.313 58.2839 107.954 58.8943C108.595 59.5046 108.972 60.3417 109.003 61.2261C109.034 62.1106 108.718 62.9722 108.122 63.6265L108.114 63.6249Z" fill="white"/>
<path d="M66.0325 17.9844H93.9389C94.9996 17.9844 96.0168 18.4058 96.7668 19.1558C97.5168 19.9058 97.9382 20.9231 97.9382 21.9837C97.9382 23.0444 97.5168 24.0617 96.7668 24.8117C96.0168 25.5617 94.9996 25.9831 93.9389 25.9831H66.0325C64.9718 25.9831 63.9546 25.5617 63.2046 24.8117C62.4546 24.0617 62.0332 23.0444 62.0332 21.9837C62.0332 20.9231 62.4546 19.9058 63.2046 19.1558C63.9546 18.4058 64.9718 17.9844 66.0325 17.9844ZM66.0325 43.0957C64.9718 43.0957 63.9546 42.6744 63.2046 41.9244C62.4546 41.1743 62.0332 40.1571 62.0332 39.0964C62.0332 38.0357 62.4546 37.0185 63.2046 36.2684C63.9546 35.5184 64.9718 35.0971 66.0325 35.0971H76.0082C77.0689 35.0971 78.0861 35.5184 78.8362 36.2684C79.5862 37.0185 80.0075 38.0357 80.0075 39.0964C80.0075 40.1571 79.5862 41.1743 78.8362 41.9244C78.0861 42.6744 77.0689 43.0957 76.0082 43.0957H66.0325ZM52.931 25.9831C51.8703 25.9831 50.853 25.5617 50.103 24.8117C49.353 24.0617 48.9316 23.0444 48.9316 21.9837C48.9316 20.9231 49.353 19.9058 50.103 19.1558C50.853 18.4058 51.8703 17.9844 52.931 17.9844C53.9917 17.9844 55.0089 18.4058 55.7589 19.1558C56.509 19.9058 56.9303 20.9231 56.9303 21.9837C56.9303 23.0444 56.509 24.0617 55.7589 24.8117C55.0089 25.5617 53.9917 25.9831 52.931 25.9831ZM52.931 43.0957C51.8703 43.0957 50.853 42.6744 50.103 41.9244C49.353 41.1743 48.9316 40.1571 48.9316 39.0964C48.9316 38.0357 49.353 37.0185 50.103 36.2684C50.853 35.5184 51.8703 35.0971 52.931 35.0971C53.9917 35.0971 55.0089 35.5184 55.7589 36.2684C56.509 37.0185 56.9303 38.0357 56.9303 39.0964C56.9303 40.1571 56.509 41.1743 55.7589 41.9244C55.0089 42.6744 53.9917 43.0957 52.931 43.0957Z" fill="white"/>
</g>
</g>
<defs>
<filter id="filter0_dddd_580_297" x="8.69531" y="-8" width="109.783" height="102" filterUnits="userSpaceOnUse" color-interpolation-filters="sRGB">
<feFlood flood-opacity="0" result="BackgroundImageFix"/>
<feColorMatrix in="SourceAlpha" type="matrix" values="0 0 0 0 0 0 0 0 0 0 0 0 0 0 0 0 0 0 127 0" result="hardAlpha"/>
<feOffset dx="-1"/>
<feGaussianBlur stdDeviation="1.5"/>
<feColorMatrix type="matrix" values="0 0 0 0 0 0 0 0 0 0 0 0 0 0 0 0 0 0 0.1 0"/>
<feBlend mode="normal" in2="BackgroundImageFix" result="effect1_dropShadow_580_297"/>
<feColorMatrix in="SourceAlpha" type="matrix" values="0 0 0 0 0 0 0 0 0 0 0 0 0 0 0 0 0 0 127 0" result="hardAlpha"/>
<feOffset dx="-5"/>
<feGaussianBlur stdDeviation="2.5"/>
<feColorMatrix type="matrix" values="0 0 0 0 0 0 0 0 0 0 0 0 0 0 0 0 0 0 0.09 0"/>
<feBlend mode="normal" in2="effect1_dropShadow_580_297" result="effect2_dropShadow_580_297"/>
<feColorMatrix in="SourceAlpha" type="matrix" values="0 0 0 0 0 0 0 0 0 0 0 0 0 0 0 0 0 0 127 0" result="hardAlpha"/>
<feOffset dx="-11"/>
<feGaussianBlur stdDeviation="3"/>
<feColorMatrix type="matrix" values="0 0 0 0 0 0 0 0 0 0 0 0 0 0 0 0 0 0 0.05 0"/>
<feBlend mode="normal" in2="effect2_dropShadow_580_297" result="effect3_dropShadow_580_297"/>
<feColorMatrix in="SourceAlpha" type="matrix" values="0 0 0 0 0 0 0 0 0 0 0 0 0 0 0 0 0 0 127 0" result="hardAlpha"/>
<feOffset dx="-19"/>
<feGaussianBlur stdDeviation="4"/>
<feColorMatrix type="matrix" values="0 0 0 0 0 0 0 0 0 0 0 0 0 0 0 0 0 0 0.01 0"/>
<feBlend mode="normal" in2="effect3_dropShadow_580_297" result="effect4_dropShadow_580_297"/>
<feBlend mode="normal" in="SourceGraphic" in2="effect4_dropShadow_580_297" result="shape"/>
</filter>
<clipPath id="clip0_580_297">
<rect width="124" height="95" fill="white"/>
</clipPath>
</defs>
</svg>
