<svg width="82" height="86" viewBox="0 0 82 86" fill="none" xmlns="http://www.w3.org/2000/svg">
<path d="M76.3585 42.5062C76.3585 44.5218 76.3451 46.393 76.3182 48.1449C76.2073 55.4213 75.868 60.6804 75.3104 66.094C74.8331 70.6802 72.7928 74.9627 69.5319 78.2227C66.271 81.4827 61.9879 83.5218 57.4016 83.9978L57.2621 84.0113C51.6839 84.5924 50.7886 85.051 39.0258 85.051H38.018C26.2602 85.051 25.3615 84.5924 19.7833 84.0113L19.6439 83.9961C15.0602 83.5184 10.7801 81.4791 7.52157 78.2202C4.263 74.9613 2.22409 70.6811 1.7468 66.0974C1.04805 59.3786 0.695312 52.9001 0.695312 42.5062C0.695312 32.1123 1.04973 25.6337 1.74848 18.915C2.14472 15.098 3.62701 11.4746 6.01966 8.47435C8.41231 5.47408 11.615 3.22271 15.2481 1.98707V2.06266C16.7053 1.55422 18.2164 1.21604 19.7514 1.05484L19.8908 1.03973C25.469 0.458555 27.3671 0 39.1299 0C50.8928 0 51.788 0.458555 57.3663 1.03973L57.5057 1.05484C58.9679 1.20824 60.4088 1.52198 61.8023 1.99043C61.9905 2.05426 62.1786 2.12145 62.3634 2.19199C65.889 3.48567 68.9808 5.74299 71.2869 8.7071C73.593 11.6712 75.0208 15.2231 75.4078 18.9586C75.4078 18.9586 76.3585 29.0787 76.3585 42.5062Z" fill="#4193D2"/>
<path d="M19.7514 1.05484C18.2164 1.21604 16.7053 1.55422 15.2481 2.06266V1.98707C11.6147 3.22244 8.41164 5.4737 6.01868 8.47399C3.62571 11.4743 2.14317 15.0978 1.7468 18.915C1.04805 25.6337 0.695312 32.1139 0.695312 42.5062C0.695312 51.8251 0.97918 57.9979 1.54355 64.0162C6.88094 66.0562 12.5476 67.0986 18.2615 67.0918C44.1119 67.0918 65.066 46.136 65.066 20.2873C65.0746 13.9394 63.7868 7.65672 61.2816 1.82414C60.051 1.44548 58.7864 1.18782 57.5057 1.05484L57.3663 1.03973C51.788 0.458555 50.8928 0 39.1299 0C27.3671 0 25.469 0.458555 19.8908 1.03973L19.7514 1.05484Z" fill="#48A4DF"/>
<path d="M62.2227 47.4881C58.4143 47.4881 54.6913 48.6175 51.5247 50.7333C48.3581 52.8492 45.89 55.8566 44.4326 59.3751C42.9751 62.8937 42.5938 66.7654 43.3368 70.5007C44.0798 74.236 45.9137 77.6671 48.6067 80.3601C51.2997 83.0531 54.7308 84.887 58.4661 85.63C62.2014 86.373 66.0731 85.9917 69.5917 84.5342C73.1102 83.0768 76.1176 80.6087 78.2335 77.4421C80.3493 74.2755 81.4787 70.5525 81.4787 66.7441C81.4782 61.6372 79.4493 56.7396 75.8383 53.1286C72.2272 49.5175 67.3296 47.4886 62.2227 47.4881Z" fill="#2AD352"/>
<path d="M73.114 63.6249L61.5746 75.7421C61.2603 76.0723 60.8826 76.3356 60.4641 76.5163C60.0456 76.697 59.5949 76.7913 59.139 76.7936H59.1239C58.6709 76.7936 58.2224 76.7027 57.8052 76.5261C57.388 76.3495 57.0105 76.0909 56.6951 75.7657L50.5709 69.4567C49.9457 68.8124 49.6021 67.946 49.6156 67.0482C49.6292 66.1505 49.9988 65.2949 50.6432 64.6696C51.2876 64.0444 52.1539 63.7008 53.0517 63.7143C53.9494 63.7278 54.805 64.0975 55.4303 64.7419L59.1004 68.5312L68.2194 58.957C68.8439 58.3299 69.6891 57.9722 70.5741 57.9604C71.459 57.9487 72.3134 58.2839 72.9543 58.8943C73.5951 59.5046 73.9716 60.3417 74.003 61.2261C74.0345 62.1106 73.7184 62.9722 73.1224 63.6265L73.114 63.6249Z" fill="white"/>
<path d="M31.0325 17.9844H58.9389C59.9996 17.9844 61.0168 18.4058 61.7668 19.1558C62.5168 19.9058 62.9382 20.9231 62.9382 21.9837C62.9382 23.0444 62.5168 24.0617 61.7668 24.8117C61.0168 25.5617 59.9996 25.9831 58.9389 25.9831H31.0325C29.9718 25.9831 28.9546 25.5617 28.2046 24.8117C27.4546 24.0617 27.0332 23.0444 27.0332 21.9837C27.0332 20.9231 27.4546 19.9058 28.2046 19.1558C28.9546 18.4058 29.9718 17.9844 31.0325 17.9844ZM31.0325 43.0957C29.9718 43.0957 28.9546 42.6744 28.2046 41.9244C27.4546 41.1743 27.0332 40.1571 27.0332 39.0964C27.0332 38.0357 27.4546 37.0185 28.2046 36.2684C28.9546 35.5184 29.9718 35.0971 31.0325 35.0971H41.0082C42.0689 35.0971 43.0861 35.5184 43.8362 36.2684C44.5862 37.0185 45.0075 38.0357 45.0075 39.0964C45.0075 40.1571 44.5862 41.1743 43.8362 41.9244C43.0861 42.6744 42.0689 43.0957 41.0082 43.0957H31.0325ZM17.931 25.9831C16.8703 25.9831 15.853 25.5617 15.103 24.8117C14.353 24.0617 13.9316 23.0444 13.9316 21.9837C13.9316 20.9231 14.353 19.9058 15.103 19.1558C15.853 18.4058 16.8703 17.9844 17.931 17.9844C18.9917 17.9844 20.0089 18.4058 20.7589 19.1558C21.509 19.9058 21.9303 20.9231 21.9303 21.9837C21.9303 23.0444 21.509 24.0617 20.7589 24.8117C20.0089 25.5617 18.9917 25.9831 17.931 25.9831ZM17.931 43.0957C16.8703 43.0957 15.853 42.6744 15.103 41.9244C14.353 41.1743 13.9316 40.1571 13.9316 39.0964C13.9316 38.0357 14.353 37.0185 15.103 36.2684C15.853 35.5184 16.8703 35.0971 17.931 35.0971C18.9917 35.0971 20.0089 35.5184 20.7589 36.2684C21.509 37.0185 21.9303 38.0357 21.9303 39.0964C21.9303 40.1571 21.509 41.1743 20.7589 41.9244C20.0089 42.6744 18.9917 43.0957 17.931 43.0957Z" fill="white"/>
</svg>
