<svg width="68" height="68" viewBox="0 0 68 68" fill="none" xmlns="http://www.w3.org/2000/svg">
<path d="M46.8485 52.0875C46.8485 59.3402 40.969 65.2197 33.7162 65.2197C26.4635 65.2197 20.584 59.3402 20.584 52.0875C20.584 42.1293 33.7162 24.4302 33.7162 24.4302C33.7162 24.4302 46.8485 42.9412 46.8485 52.0875Z" stroke="#A88750" stroke-width="2" stroke-miterlimit="10" stroke-linecap="round" stroke-linejoin="round"/>
<path d="M36.8037 17.1357L48.5289 5.41052C52.4419 1.4976 58.7858 1.4976 62.6987 5.41052C66.6116 9.32344 66.6116 15.6674 62.6987 19.5803L50.9735 31.3055" stroke="#A88750" stroke-width="2" stroke-miterlimit="10" stroke-linecap="round" stroke-linejoin="round"/>
<path d="M37.0945 19.5456C36.5736 18.3677 36.4771 17.4622 36.9145 17.0248C38.0141 15.9253 42.0714 18.2 45.9767 22.1053C49.8821 26.0107 52.1568 30.068 51.0572 31.1675C50.3062 31.9186 48.1751 31.0953 45.6549 29.2533" stroke="#A88750" stroke-width="2" stroke-miterlimit="10" stroke-linecap="round" stroke-linejoin="round"/>
<path d="M30.6285 17.1357L18.9033 5.41052C14.9904 1.4976 8.64644 1.4976 4.73352 5.41052C0.820598 9.32344 0.820598 15.6674 4.73352 19.5803L16.4587 31.3055" stroke="#A88750" stroke-width="2" stroke-miterlimit="10" stroke-linecap="round" stroke-linejoin="round"/>
<path d="M30.338 19.5459C30.8589 18.368 30.9556 17.4623 30.5181 17.0248C29.4185 15.9253 25.3613 18.2 21.4559 22.1053C17.5506 26.0107 15.2759 30.068 16.3754 31.1675C17.1265 31.9186 19.2576 31.0953 21.7777 29.2533" stroke="#A88750" stroke-width="2" stroke-miterlimit="10" stroke-linecap="round" stroke-linejoin="round"/>
<path d="M34.8211 52.0118H29.7812V46.3511H34.8211C36.3843 46.3511 37.6515 47.6182 37.6515 49.1814C37.6515 50.7446 36.3843 52.0118 34.8211 52.0118Z" stroke="#A88750" stroke-width="2" stroke-miterlimit="10" stroke-linecap="round" stroke-linejoin="round"/>
<path d="M34.8211 57.6725H29.7812V52.0117H34.8211C36.3843 52.0117 37.6515 53.2789 37.6515 54.8421C37.6515 56.4053 36.3843 57.6725 34.8211 57.6725Z" stroke="#A88750" stroke-width="2" stroke-miterlimit="10" stroke-linecap="round" stroke-linejoin="round"/>
</svg>
