<svg width="68" height="68" viewBox="0 0 68 68" fill="none" xmlns="http://www.w3.org/2000/svg">
<path d="M37.1875 31.875C37.1875 29.1125 36.0187 26.5625 34 24.65C33.575 24.225 32.9375 24.3312 32.5125 24.7562C32.0875 25.1812 32.1938 25.8188 32.6188 26.2438C34.1063 27.7313 35.0625 29.75 35.0625 31.875C35.0625 36.0188 31.7688 39.3125 27.625 39.3125C23.4812 39.3125 20.1875 36.0188 20.1875 31.875C20.1875 27.7312 23.4812 24.4375 27.625 24.4375C28.2625 24.4375 28.6875 24.0125 28.6875 23.375C28.6875 22.7375 28.2625 22.3125 27.625 22.3125C22.3125 22.3125 18.0625 26.5625 18.0625 31.875C18.0625 37.1875 22.3125 41.4375 27.625 41.4375C32.9375 41.4375 37.1875 37.1875 37.1875 31.875Z" fill="#A88750"/>
<path d="M53.1252 24.4375C49.4064 24.4375 46.3252 27.2 45.7939 30.8125H40.4814C39.8439 30.8125 39.4189 31.2375 39.4189 31.875C39.4189 32.5125 39.8439 32.9375 40.4814 32.9375H45.7939C46.0064 34.425 46.6439 35.7 47.6002 36.8688C48.0252 37.2938 48.6627 37.2937 49.0877 36.975C49.5127 36.55 49.5127 35.9125 49.1939 35.4875C48.3439 34.425 47.8127 33.15 47.8127 31.875C47.8127 28.9 50.1502 26.5625 53.1252 26.5625C56.1002 26.5625 58.4377 28.9 58.4377 31.875C58.4377 34.85 56.1002 37.1875 53.1252 37.1875C52.4877 37.1875 52.0627 37.6125 52.0627 38.25C52.0627 38.8875 52.4877 39.3125 53.1252 39.3125C57.2689 39.3125 60.5627 36.0188 60.5627 31.875C60.5627 27.7312 57.2689 24.4375 53.1252 24.4375Z" fill="#A88750"/>
<path d="M26.5625 36.125C26.5625 36.7625 26.9875 37.1875 27.625 37.1875C30.6 37.1875 32.9375 34.85 32.9375 31.875C32.9375 31.2375 32.5125 30.8125 31.875 30.8125C31.2375 30.8125 30.8125 31.2375 30.8125 31.875C30.8125 33.6813 29.4313 35.0625 27.625 35.0625C26.9875 35.0625 26.5625 35.4875 26.5625 36.125Z" fill="#A88750"/>
<path d="M53.125 30.8125C53.7625 30.8125 54.1875 31.2375 54.1875 31.875C54.1875 32.5125 54.6125 32.9375 55.25 32.9375C55.8875 32.9375 56.3125 32.5125 56.3125 31.875C56.3125 30.0687 54.9313 28.6875 53.125 28.6875C52.4875 28.6875 52.0625 29.1125 52.0625 29.75C52.0625 30.3875 52.4875 30.8125 53.125 30.8125Z" fill="#A88750"/>
<path d="M8.5 58.4375C9.1375 58.4375 9.5625 58.8625 9.5625 59.5C9.5625 60.1375 9.9875 60.5625 10.625 60.5625C11.2625 60.5625 11.6875 60.1375 11.6875 59.5C11.6875 57.6937 10.3063 56.3125 8.5 56.3125C7.8625 56.3125 7.4375 56.7375 7.4375 57.375C7.4375 58.0125 7.8625 58.4375 8.5 58.4375Z" fill="#A88750"/>
<path d="M8.5 9.5625C7.8625 9.5625 7.4375 9.1375 7.4375 8.5C7.4375 7.8625 7.0125 7.4375 6.375 7.4375C5.7375 7.4375 5.3125 7.8625 5.3125 8.5C5.3125 10.3063 6.69375 11.6875 8.5 11.6875C9.1375 11.6875 9.5625 11.2625 9.5625 10.625C9.5625 9.9875 9.1375 9.5625 8.5 9.5625Z" fill="#A88750"/>
<path d="M65.9811 11.9C65.6623 11.3687 65.0248 11.2625 64.4936 11.5812C63.9623 11.9 63.8561 12.5375 64.1748 13.0688C64.4936 13.6 64.7061 14.2375 64.7061 14.875C64.7061 16.6813 63.3248 18.0625 61.5186 18.0625C59.7123 18.0625 58.3311 16.6813 58.3311 14.875C58.3311 13.0687 59.7123 11.6875 61.5186 11.6875C62.1561 11.6875 62.5811 11.2625 62.5811 10.625C62.5811 9.9875 62.1561 9.5625 61.5186 9.5625C58.5436 9.5625 56.2061 11.9 56.2061 14.875C56.2061 16.575 57.0561 18.0625 58.3311 19.0187L56.8436 21.8875C56.5248 22.4188 56.8436 23.0562 57.2686 23.2687C57.9061 23.6937 58.5436 23.1625 58.6498 22.8438L60.1373 19.975C60.5623 20.0812 60.9873 20.1875 61.5186 20.1875C64.4936 20.1875 66.8311 17.85 66.8311 14.875C66.9373 13.8125 66.6186 12.75 65.9811 11.9Z" fill="#A88750"/>
<path d="M8.5 15.9375C9.88125 15.9375 11.2625 15.5125 12.325 14.875L18.275 22.2062C18.4875 22.4187 19.2313 22.8438 19.7625 22.3125C20.1875 21.8875 20.2938 21.25 19.8688 20.825L13.9188 13.4937C15.1938 12.2188 15.9375 10.4125 15.9375 8.5C15.9375 6.26875 14.9812 4.14375 13.175 2.7625C12.75 2.3375 12.1125 2.44375 11.6875 2.86875C11.2625 3.29375 11.3688 4.0375 11.7938 4.35625C13.0688 5.41875 13.8125 6.90625 13.7062 8.5C13.4937 12.5375 9.66875 13.8125 8.39375 13.8125C5.41875 13.8125 3.08125 11.475 3.08125 8.5C3.08125 5.525 5.41875 3.1875 8.39375 3.1875C9.03125 3.1875 9.45625 2.7625 9.45625 2.125C9.45625 1.4875 9.1375 1.0625 8.5 1.0625C4.35625 1.0625 1.0625 4.35625 1.0625 8.5C1.0625 12.6438 4.35625 15.9375 8.5 15.9375Z" fill="#A88750"/>
<path d="M19.5498 41.6499L11.7936 52.9124C10.7311 52.3811 9.66855 52.0624 8.39355 52.0624C4.2498 52.0624 0.956055 55.3562 0.956055 59.4999C0.956055 61.4124 1.6998 63.2187 2.9748 64.5999C3.3998 65.0249 4.0373 65.0249 4.4623 64.5999C4.8873 64.1749 4.8873 63.5374 4.4623 63.1124C3.71855 62.1562 3.1873 60.8812 3.1873 59.4999C3.1873 56.5249 5.5248 54.1874 8.4998 54.1874C11.4748 54.1874 13.8123 56.5249 13.8123 59.4999C13.8123 62.4749 11.4748 64.8124 8.4998 64.8124C7.8623 64.8124 7.4373 65.2374 7.4373 65.8749C7.4373 66.5124 7.8623 66.9374 8.4998 66.9374C12.6436 66.9374 15.9373 63.6437 15.9373 59.4999C15.9373 57.3749 15.0873 55.4624 13.5998 54.0812L21.3561 42.8187C21.6748 42.2874 21.5686 41.6499 21.0373 41.3312C20.6123 41.0124 19.8686 41.1187 19.5498 41.6499Z" fill="#A88750"/>
<path d="M38.2498 43.5624C37.6123 43.5624 36.9748 43.6687 36.4436 43.8812L34.9561 41.6499C34.6373 41.1187 33.9998 41.0124 33.4686 41.3312C32.9373 41.6499 32.8311 42.2874 33.1498 42.8187L34.5311 45.0499C33.4686 46.0062 32.8311 47.3874 32.8311 48.8749C32.8311 51.8499 35.1686 54.1874 38.1436 54.1874C39.0998 54.1874 40.0561 53.9749 40.7998 53.4436C41.3311 53.1249 41.4373 52.4874 41.2248 51.9562C40.9061 51.4249 40.2686 51.3187 39.7373 51.5312C39.2061 51.8499 38.6748 51.9562 38.1436 51.9562C36.3373 51.9562 34.9561 50.5749 34.9561 48.7687C34.9561 46.9624 36.3373 45.5812 38.1436 45.5812C39.9498 45.5812 41.3311 46.9624 41.3311 48.7687C41.3311 49.4062 41.7561 49.8312 42.3936 49.8312C43.0311 49.8312 43.4561 49.4062 43.4561 48.7687C43.5623 45.8999 41.2248 43.5624 38.2498 43.5624Z" fill="#A88750"/>
</svg>
