<svg width="68" height="68" viewBox="0 0 68 68" fill="none" xmlns="http://www.w3.org/2000/svg">
<path d="M54.6898 28.197C54.5994 27.9903 54.3587 27.8958 54.152 27.9876C53.9452 28.078 53.8521 28.3187 53.9425 28.5254C56.2776 33.8417 57.4615 38.9791 57.4615 43.8363C57.4615 55.9981 47.5675 65.8928 35.405 65.8928C23.2657 65.8928 13.3717 56.0172 13.3438 43.8152C13.3302 43.7275 12.1239 34.878 23.673 21.0509C32.7442 10.1906 34.3041 4.67919 34.5176 2.60451C37.1377 4.98179 46.8399 14.2352 52.728 25.9469C52.8294 26.1482 53.0742 26.2284 53.2761 26.1284C53.4774 26.0271 53.559 25.7816 53.4577 25.5804C46.5632 11.8688 34.5 1.49271 34.3782 1.38935C34.245 1.27579 34.0539 1.26015 33.9036 1.34991C33.7533 1.43967 33.6772 1.61647 33.7152 1.78715C33.7254 1.83475 34.6217 6.66955 23.0474 20.5259C12.4503 33.2134 12.2007 42.1574 12.5509 43.8785H12.5346C12.557 56.4666 22.8169 66.7074 35.4057 66.7074C48.0177 66.7074 58.2782 56.4469 58.2782 43.7935C58.2782 38.8642 57.0705 33.6166 54.6898 28.197Z" fill="#A88750"/>
<path d="M28.965 26.1861C28.7691 25.9318 28.5196 25.7333 28.2231 25.5952C27.9327 25.4606 27.5955 25.3926 27.2194 25.3926C26.4891 25.3926 25.9125 25.6449 25.5065 26.1433C25.1216 26.6159 24.9258 27.2782 24.9258 28.1119C24.9258 28.4934 24.9693 28.8477 25.0543 29.1632C25.1441 29.4971 25.2835 29.7901 25.4691 30.0349C25.6636 30.2899 25.9125 30.4899 26.2096 30.6279C26.4993 30.7625 26.8393 30.8305 27.2187 30.8305C27.945 30.8305 28.5203 30.5783 28.9276 30.0812C29.3152 29.6086 29.5124 28.9463 29.5124 28.1119C29.5124 27.7311 29.4695 27.3775 29.3845 27.0606C29.2955 26.7261 29.1547 26.4323 28.965 26.1861ZM28.2979 29.563C28.049 29.8663 27.6968 30.0139 27.2201 30.0139C26.9597 30.0139 26.7359 29.971 26.5544 29.8867C26.3769 29.8037 26.2348 29.6902 26.1199 29.5399C25.9981 29.3801 25.9057 29.1815 25.8431 28.9503C25.7765 28.7028 25.7431 28.4206 25.7431 28.1112C25.7431 27.4707 25.8764 26.9817 26.1396 26.6587C26.3864 26.3561 26.74 26.2086 27.2201 26.2086C27.4758 26.2086 27.6981 26.2514 27.8797 26.3357C28.0585 26.4194 28.2027 26.5336 28.319 26.6846C28.4421 26.8444 28.5359 27.0423 28.5971 27.2714C28.6637 27.5196 28.6971 27.8025 28.6971 28.1112C28.6971 28.7518 28.5631 29.24 28.2979 29.563Z" fill="#A88750"/>
<path d="M29.6555 30.7349C29.8799 30.7764 30.0893 30.6261 30.1288 30.4051L30.719 27.0983L31.5588 28.6263C31.7037 28.8908 32.1661 28.8847 32.3041 28.6174L33.0643 27.1486L33.6417 30.4051C33.677 30.603 33.8491 30.7424 34.0429 30.7424C34.0667 30.7424 34.0905 30.7404 34.1143 30.7363C34.3366 30.6969 34.4842 30.4854 34.4447 30.2637L33.6573 25.8206C33.6267 25.6485 33.49 25.5146 33.3173 25.4881C33.1439 25.4622 32.9739 25.5486 32.8937 25.7036L31.9185 27.5879L30.8775 25.6948C30.7938 25.5438 30.6225 25.4609 30.4538 25.4887C30.2831 25.5173 30.1485 25.6492 30.1179 25.8199L29.3243 30.263C29.2863 30.4833 29.4338 30.6948 29.6555 30.7349Z" fill="#A88750"/>
<path d="M37.7611 25.4819H35.1268C34.901 25.4819 34.7188 25.6649 34.7188 25.8899V30.3331C34.7188 30.5588 34.9017 30.7411 35.1268 30.7411H37.7924C38.0181 30.7411 38.2003 30.5581 38.2003 30.3331C38.2003 30.108 38.0174 29.9251 37.7924 29.9251H35.5348V28.5039H36.7989C37.0246 28.5039 37.2069 28.3209 37.2069 28.0959C37.2069 27.8708 37.024 27.6879 36.7989 27.6879H35.5348V26.2986H37.7611C37.9868 26.2986 38.1691 26.1157 38.1691 25.8906C38.1691 25.6655 37.9868 25.4819 37.7611 25.4819Z" fill="#A88750"/>
<path d="M39.2363 26.6228C39.3913 26.478 39.5599 26.376 39.751 26.3114C40.1733 26.1699 40.6398 26.1958 40.9607 26.2576C41.1267 26.291 41.2593 26.3243 41.3585 26.361C41.57 26.4399 41.8046 26.3318 41.8828 26.1203C41.961 25.9088 41.8536 25.6742 41.6421 25.596C41.5122 25.5477 41.3381 25.5008 41.1185 25.4573C40.6649 25.3682 40.0468 25.3505 39.4906 25.5382C39.1907 25.6388 38.9173 25.8034 38.6787 26.0264C38.44 26.2495 38.2469 26.5392 38.1041 26.8873C37.9633 27.2294 37.8926 27.6414 37.8926 28.1113C37.8926 28.5574 37.9517 28.9525 38.0673 29.2864C38.1877 29.6311 38.3584 29.9228 38.5753 30.1527C38.7963 30.3873 39.0615 30.562 39.3634 30.6715C39.6504 30.7762 39.9639 30.83 40.2937 30.83C40.5691 30.83 40.8519 30.7905 41.1341 30.7137C41.4367 30.6307 41.7033 30.4954 41.9257 30.3104C42.0188 30.2329 42.0725 30.118 42.0725 29.997V28.0161C42.0725 27.7904 41.8896 27.6081 41.6645 27.6081H40.0074C39.7816 27.6081 39.5994 27.791 39.5994 28.0161C39.5994 28.2412 39.7823 28.4241 40.0074 28.4241H41.2559V29.7868C41.1566 29.846 41.0444 29.8922 40.9186 29.9269C40.4609 30.0527 40.0115 30.0405 39.6422 29.9052C39.4579 29.8378 39.3022 29.7358 39.1676 29.593C39.0302 29.4475 38.9194 29.2537 38.8371 29.0184C38.7514 28.7709 38.7079 28.4663 38.7079 28.112C38.7079 27.7489 38.7582 27.4408 38.8582 27.1974C38.9575 26.958 39.0839 26.7649 39.2363 26.6228Z" fill="#A88750"/>
<path d="M42.9803 30.494L43.8276 28.5192H45.2236L46.0709 30.494C46.1375 30.6483 46.2878 30.7408 46.4463 30.7408C46.5 30.7408 46.5544 30.7299 46.6067 30.7075C46.8135 30.6191 46.9093 30.379 46.8203 30.1716L44.8999 25.6966C44.7714 25.3974 44.2791 25.3974 44.1499 25.6966L42.2296 30.1716C42.1405 30.379 42.2364 30.6191 42.4431 30.7075C42.6525 30.7972 42.8912 30.7007 42.9803 30.494ZM44.5253 26.8927L44.8734 27.7032H44.1778L44.5253 26.8927Z" fill="#A88750"/>
<path d="M30.8308 56.8026C32.4458 57.3119 34.1111 57.5703 35.7791 57.5703C37.6553 57.5703 39.3199 57.2473 40.7248 56.6101C42.1467 55.9662 43.2646 55.0495 44.0486 53.8867C44.834 52.7192 45.2325 51.3666 45.2325 49.8686C45.2325 48.0856 44.6395 46.5999 43.4699 45.4527C42.3173 44.3232 40.7778 43.6153 38.9126 43.3529L38.5345 43.2815L44.0173 38.2576C44.1017 38.1801 44.1499 38.0713 44.1499 37.9571V34.5809C44.1499 34.3551 43.967 34.1729 43.7419 34.1729H28.1346C27.9088 34.1729 27.7266 34.3558 27.7266 34.5809V39.0403C27.7266 39.266 27.9095 39.4483 28.1346 39.4483H35.6588L31.2279 43.7153C31.1477 43.7921 31.1028 43.8982 31.1028 44.0091V47.1942C31.1028 47.4199 31.2857 47.6022 31.5108 47.6022H35.2691C36.4292 47.6022 37.3139 47.813 37.8994 48.2278C38.4481 48.6174 38.7147 49.1757 38.7147 49.9332C38.7147 50.6935 38.4468 51.2572 37.8953 51.657C37.3112 52.0813 36.4381 52.2962 35.3004 52.2962C34.2927 52.2962 33.2699 52.1017 32.2601 51.7175C31.2463 51.3327 30.2786 50.756 29.3844 50.0033C29.2899 49.9237 29.1655 49.8917 29.0437 49.9149C28.9227 49.9387 28.8187 50.0155 28.7609 50.125L26.5951 54.2335C26.5019 54.4096 26.5502 54.6273 26.7086 54.7476C27.8238 55.601 29.211 56.2919 30.8308 56.8026ZM29.2518 50.943C30.1059 51.6019 31.0185 52.1181 31.9711 52.4798C33.0741 52.8987 34.1941 53.1115 35.3011 53.1115C36.6142 53.1115 37.6485 52.8443 38.3754 52.3173C39.1424 51.7611 39.5314 50.958 39.5314 49.9325C39.5314 48.9051 39.1411 48.1074 38.372 47.5614C37.6457 47.0466 36.6019 46.7848 35.2698 46.7848H31.9195V44.1818L36.9542 39.3334C37.0739 39.2178 37.1119 39.041 37.0501 38.8866C36.9875 38.7323 36.8379 38.6316 36.6713 38.6316H28.5426V34.9889H43.3333V37.7775L37.3819 43.2305C37.2683 43.3345 37.2228 43.4943 37.2649 43.6432C37.3071 43.7915 37.4302 43.9037 37.5818 43.9322L38.7793 44.1587C40.4868 44.3994 41.8726 45.0318 42.8987 46.0368C43.9201 47.0385 44.4165 48.2924 44.4165 49.87C44.4165 51.2028 44.0649 52.4023 43.3713 53.4325C42.6737 54.4681 41.67 55.2875 40.3882 55.8689C39.0887 56.4578 37.5383 56.7563 35.7791 56.7563C34.1941 56.7563 32.6124 56.5108 31.0763 56.0267C29.6802 55.5867 28.4725 55.0081 27.4811 54.3049L29.2518 50.943Z" fill="#A88750"/>
<path d="M46.3502 60.7704C42.4592 63.4523 38.0902 64.4567 32.1844 64.0215C31.9546 64.012 31.7642 64.1745 31.7472 64.3989C31.7309 64.624 31.8995 64.8191 32.1246 64.8361C33.0283 64.9021 33.8967 64.9354 34.7351 64.9354C39.559 64.9354 43.3589 63.8236 46.8126 61.4423C60.3786 52.0923 55.1052 34.0621 55.0508 33.8812C54.9855 33.6656 54.7577 33.5432 54.5421 33.6092C54.3266 33.6745 54.2049 33.9023 54.2701 34.1178C54.3232 34.2933 59.4205 51.7618 46.3502 60.7704Z" fill="#A88750"/>
<path d="M11.491 35.4823C11.5325 35.4959 11.5747 35.502 11.6161 35.502C11.7889 35.502 11.9487 35.3919 12.0044 35.2185C12.0928 34.9431 12.1867 34.6643 12.2846 34.3834C12.3587 34.1713 12.2465 33.938 12.0337 33.8639C11.8208 33.7891 11.5883 33.902 11.5141 34.1148C11.4142 34.4025 11.3183 34.6867 11.2279 34.9689C11.1585 35.1838 11.2768 35.4136 11.491 35.4823Z" fill="#A88750"/>
<path d="M11.4666 37.0725C11.5231 36.8542 11.3918 36.6318 11.1736 36.5754C10.9553 36.5196 10.7329 36.6495 10.6765 36.8685C7.94219 47.4336 11.8903 53.5584 12.0596 53.8141C12.1378 53.9324 12.2677 53.9963 12.3996 53.9963C12.4771 53.9963 12.5553 53.9746 12.6247 53.9283C12.8124 53.8046 12.864 53.5516 12.7403 53.3632C12.7008 53.3027 8.82959 47.2623 11.4666 37.0725Z" fill="#A88750"/>
</svg>
