<svg width="68" height="68" viewBox="0 0 68 68" fill="none" xmlns="http://www.w3.org/2000/svg">
<path d="M40.0803 16.3529L40.0749 16.3414L40.069 16.3302C37.9335 12.2717 38.341 7.03668 38.9913 2.99434C39.0996 2.32115 39.8762 1.97974 40.4468 2.35633C45.527 5.70906 48.3108 9.41627 49.0524 13.01C49.5456 15.981 48.4012 18.7556 47.4122 20.4032C47.1965 20.7627 46.769 20.9348 46.3581 20.825L45.8144 20.6798C42.8318 19.883 41.0548 18.4573 40.0803 16.3529Z" stroke="#A88750"/>
<path d="M21.6867 46.1385L21.6806 46.1446L21.6748 46.1509C19.2189 48.7821 14.7955 48.8003 12.1337 46.1385C9.47888 43.4837 9.47888 39.2402 12.1337 36.5854C13.3661 35.353 15.1373 34.6418 16.9102 34.6418C18.6775 34.6418 20.4431 35.3485 21.675 36.5738C22.9357 38.0191 23.6303 39.6122 23.6303 41.362C23.6303 43.1349 22.9192 44.9061 21.6867 46.1385Z" stroke="#A88750"/>
<path d="M39.1799 41.1866L39.1673 41.1983L39.1556 41.211C36.6997 43.8422 32.2763 43.8604 29.6145 41.1986C28.382 39.9661 27.6709 38.1949 27.6709 36.422C27.6709 34.6491 28.382 32.8779 29.6145 31.6455L29.2609 31.2919L29.6145 31.6455C30.8469 30.4131 32.6181 29.7019 34.391 29.7019C36.1639 29.7019 37.9351 30.4131 39.1675 31.6455C41.8293 34.3073 41.8112 38.7308 39.1799 41.1866Z" stroke="#A88750"/>
<path d="M34.2268 58.6788L34.2207 58.6849L34.2148 58.6912C31.759 61.3224 27.3355 61.3406 24.6737 58.6788C22.0189 56.024 22.0189 51.7805 24.6737 49.1257C25.9061 47.8933 27.6773 47.1821 29.4502 47.1821C31.2232 47.1821 32.9943 47.8933 34.2268 49.1257C35.4592 50.3582 36.1704 52.1293 36.1704 53.9022C36.1704 55.6752 35.4592 57.4463 34.2268 58.6788Z" stroke="#A88750"/>
<path d="M62.5487 25.9558L62.569 25.9749L62.5914 25.9917C63.0898 26.3655 63.0891 26.941 62.7513 27.3038C62.1468 27.7394 61.5008 27.6741 61.1549 27.3282L61.1478 27.3211L61.1405 27.3143C58.6026 24.9717 55.8132 23.7503 52.9756 23.953L52.9756 23.9529L52.9713 23.9533C50.4614 24.1541 48.2791 25.3555 46.5502 26.7191C45.1067 27.8577 43.9557 29.128 43.1678 30.0752C42.8871 29.6748 42.568 29.2616 42.1546 28.8482L41.801 29.2018L42.1546 28.8482C42.0364 28.7301 41.8796 28.6218 41.7564 28.5394C43.913 25.9112 47.8237 22.2563 52.6668 21.9104L52.6752 21.9098L52.6835 21.9089C56.1019 21.5491 59.3846 22.9779 62.5487 25.9558Z" stroke="#A88750"/>
<path d="M51.7072 53.9288L51.7011 53.9349L51.6953 53.9412C49.2394 56.5724 44.816 56.5906 42.1542 53.9288C39.4924 51.267 39.5105 46.8435 42.1418 44.3877L42.1481 44.3818L42.1542 44.3757C43.3866 43.1433 45.1578 42.4321 46.9307 42.4321C48.7036 42.4321 50.4748 43.1433 51.7072 44.3757C54.362 47.0305 54.362 51.274 51.7072 53.9288Z" stroke="#A88750"/>
<path d="M16.5568 63.8089L16.5508 63.815L16.5449 63.8213C14.089 66.4526 9.66558 66.4707 7.00378 63.8089L6.65023 64.1625L7.00378 63.8089C4.349 61.1541 4.349 56.9106 7.00378 54.2558C8.23623 53.0234 10.0074 52.3123 11.7803 52.3123C13.7362 52.3123 15.3195 53.0185 16.5568 54.2558C17.7893 55.4883 18.5004 57.2595 18.5004 59.0324C18.5004 60.8053 17.7893 62.5765 16.5568 63.8089Z" stroke="#A88750"/>
<path d="M28.5707 24.0717C28.5707 25.8446 27.8596 27.6158 26.6272 28.8482C25.4061 30.0693 23.6412 30.6968 21.8506 30.6968C20.06 30.6968 18.2951 30.0693 17.0741 28.8482C14.4193 26.1934 14.4193 21.9499 17.0741 19.2952C18.3065 18.0627 20.0777 17.3516 21.8506 17.3516C23.6235 17.3516 25.3947 18.0627 26.6272 19.2952C27.8596 20.5276 28.5707 22.2988 28.5707 24.0717Z" stroke="#A88750"/>
</svg>
