<svg width="68" height="68" viewBox="0 0 68 68" fill="none" xmlns="http://www.w3.org/2000/svg">
<path d="M58.7502 45.5519C58.7394 41.5605 58.2468 37.9025 57.363 35.2519C56.0121 31.2001 54.0583 30.3496 52.657 30.3496H51.2774C51.6095 24.1826 51.3105 14.8429 47.1309 10.293C46.2613 9.34607 44.7043 10.2011 45.0399 11.4438C46.5037 16.8667 45.4714 27.6819 43.2998 30.3496H38.696C38.7074 26.8506 40.4223 22.1608 40.4223 17.2859C40.4223 11.7394 38.2038 7.467 33.4403 3.84027C32.5006 3.12483 31.1704 4.02161 31.5176 5.17092C32.3229 7.83839 33.674 13.0355 33.674 17.8716C33.674 21.8393 30.608 25.5195 28.1366 30.3496H24.6003C24.9324 24.1826 24.6333 14.8429 20.4537 10.293C19.5821 9.34414 18.0278 10.2032 18.3627 11.4438C19.8266 16.8667 18.7943 27.6819 16.6227 30.3496H15.3399C11.0789 30.3496 9.40538 37.683 9.25999 44.546C9.1609 49.2208 9.7369 53.9617 10.84 57.5532C11.7423 60.4905 13.4736 64.1737 16.5297 64.3032C21.9996 64.535 44.6996 64.34 51.4426 64.3038C53.4293 64.2932 55.1265 62.7277 56.4065 59.7529C56.4078 59.7498 56.4093 59.7468 56.4105 59.7437C58.141 55.7157 58.762 49.9911 58.7502 45.5519ZM57.374 43.5097C49.8737 43.3637 49.626 40.3698 40.7629 40.7184C40.4992 38.7585 40.009 36.7578 39.5597 34.9249C39.2599 33.7016 38.9872 32.5875 38.8314 31.6777H52.657C55.202 31.6777 57.0576 36.4479 57.374 43.5097ZM46.4258 11.5055C48.1474 13.5947 50.59 18.6649 49.9488 30.3496H44.8794C46.826 26.7799 47.7994 17.2414 46.4258 11.5055ZM35.0021 17.8716C35.0021 13.0399 33.7108 7.89767 32.8777 5.08357C37.117 8.3976 39.0942 12.2827 39.0942 17.2859C39.0942 22.0478 37.3673 26.6765 37.3673 30.3848C37.3673 31.5592 37.7855 33.2654 38.2698 35.2411C38.9067 37.8401 39.6288 40.7858 39.6288 43.3645C39.6288 47.482 37.7721 49.4085 33.5832 49.4085C27.7456 49.4085 26.5202 45.15 26.5202 41.5775C26.5202 30.6977 35.0021 25.0326 35.0021 17.8716ZM19.7487 11.5055C21.4702 13.5947 23.9128 18.6649 23.2716 30.3496H18.2022C20.1488 26.7799 21.1222 17.2414 19.7487 11.5055ZM15.3399 31.6777H27.4897C26.1812 34.5137 25.1921 37.7235 25.1921 41.5775C25.1901 42.2223 25.2303 42.8665 25.3124 43.5061C18.5251 43.3367 17.8987 40.8907 10.8438 40.7053C11.0821 38.6335 11.4746 36.7929 11.9987 35.3351C12.5986 33.6666 13.6652 31.6777 15.3399 31.6777ZM10.7154 42.0301C17.6606 42.187 18.204 44.7202 25.5659 44.8394C26.5014 48.5294 29.1883 50.7366 33.5832 50.7366C38.476 50.7366 40.9569 48.2563 40.9569 43.3645C40.9569 42.9303 40.9365 42.4883 40.9025 42.0422C49.4692 41.7327 49.5258 44.6987 57.4149 44.8385C57.4883 49.1639 56.9617 54.7644 55.3766 58.7631C52.326 58.2801 43.8607 57.281 33.8869 59.0014C23.9064 60.7227 15.2907 58.8584 12.4202 58.1004C10.7539 53.4302 10.3204 46.966 10.7154 42.0301ZM51.4356 62.9757C44.9028 63.0108 21.9273 63.2027 16.5859 62.9763C15.2703 62.9205 14.049 61.7501 13.0447 59.625C19.6361 61.1857 27.1822 61.5056 34.1125 60.3102C43.5325 58.6854 51.5682 59.5332 54.8132 60.02C54.033 61.5541 52.9138 62.9678 51.4356 62.9757Z" fill="#A88750"/>
<path d="M16.9195 51.9003C17.5518 51.9003 18.1698 51.7128 18.6956 51.3615C19.2213 51.0102 19.631 50.511 19.873 49.9268C20.115 49.3427 20.1783 48.6999 20.0549 48.0798C19.9316 47.4596 19.6271 46.89 19.18 46.4429C18.7329 45.9958 18.1633 45.6914 17.5432 45.568C16.923 45.4447 16.2803 45.508 15.6961 45.7499C15.112 45.9919 14.6127 46.4016 14.2614 46.9274C13.9101 47.4531 13.7227 48.0712 13.7227 48.7034C13.7236 49.551 14.0607 50.3636 14.66 50.9629C15.2594 51.5622 16.0719 51.8993 16.9195 51.9003ZM16.9195 46.8347C17.2891 46.8347 17.6504 46.9443 17.9577 47.1497C18.265 47.355 18.5045 47.6468 18.646 47.9883C18.7874 48.3298 18.8244 48.7055 18.7523 49.068C18.6802 49.4305 18.5022 49.7635 18.2409 50.0248C17.9795 50.2862 17.6466 50.4641 17.2841 50.5362C16.9216 50.6083 16.5458 50.5713 16.2044 50.4299C15.8629 50.2885 15.5711 50.0489 15.3657 49.7416C15.1604 49.4343 15.0508 49.073 15.0508 48.7034C15.0513 48.208 15.2484 47.733 15.5987 47.3827C15.9491 47.0323 16.424 46.8353 16.9195 46.8347Z" fill="#A88750"/>
<path d="M32.4224 58.1613C33.0547 58.1613 33.6728 57.9738 34.1985 57.6225C34.7242 57.2712 35.134 56.7719 35.3759 56.1878C35.6179 55.6036 35.6812 54.9609 35.5578 54.3407C35.4345 53.7206 35.13 53.151 34.6829 52.7039C34.2358 52.2568 33.6662 51.9524 33.0461 51.829C32.426 51.7057 31.7832 51.769 31.199 52.0109C30.6149 52.2529 30.1156 52.6626 29.7644 53.1884C29.4131 53.7141 29.2256 54.3321 29.2256 54.9644C29.2265 55.812 29.5637 56.6246 30.163 57.2239C30.7623 57.8232 31.5749 58.1603 32.4224 58.1613ZM32.4224 53.0957C32.792 53.0957 33.1533 53.2053 33.4606 53.4106C33.7679 53.616 34.0075 53.9078 34.1489 54.2493C34.2903 54.5908 34.3273 54.9665 34.2552 55.329C34.1831 55.6915 34.0051 56.0245 33.7438 56.2858C33.4825 56.5471 33.1495 56.7251 32.787 56.7972C32.4245 56.8693 32.0488 56.8323 31.7073 56.6909C31.3658 56.5494 31.074 56.3099 30.8686 56.0026C30.6633 55.6953 30.5537 55.334 30.5537 54.9644C30.5543 54.469 30.7513 53.994 31.1017 53.6437C31.452 53.2933 31.927 53.0963 32.4224 53.0957Z" fill="#A88750"/>
<path d="M48.5611 52.6464C49.1934 52.6464 49.8115 52.4589 50.3372 52.1076C50.8629 51.7563 51.2726 51.257 51.5146 50.6729C51.7566 50.0888 51.8199 49.446 51.6965 48.8259C51.5732 48.2057 51.2687 47.6361 50.8216 47.189C50.3745 46.7419 49.8049 46.4375 49.1848 46.3141C48.5646 46.1908 47.9219 46.2541 47.3377 46.496C46.7536 46.738 46.2543 47.1477 45.903 47.6735C45.5517 48.1992 45.3643 48.8173 45.3643 49.4495C45.3652 50.2971 45.7023 51.1097 46.3016 51.709C46.901 52.3083 47.7135 52.6454 48.5611 52.6464ZM48.5611 47.5808C48.9307 47.5808 49.292 47.6904 49.5993 47.8957C49.9066 48.1011 50.1461 48.3929 50.2876 48.7344C50.429 49.0759 50.466 49.4516 50.3939 49.8141C50.3218 50.1766 50.1438 50.5096 49.8825 50.7709C49.6211 51.0323 49.2882 51.2102 48.9257 51.2823C48.5632 51.3544 48.1874 51.3174 47.846 51.176C47.5045 51.0346 47.2127 50.795 47.0073 50.4877C46.802 50.1804 46.6924 49.8191 46.6924 49.4495C46.6929 48.9541 46.89 48.4791 47.2403 48.1288C47.5907 47.7784 48.0657 47.5814 48.5611 47.5808Z" fill="#A88750"/>
</svg>
