<svg width="68" height="68" viewBox="0 0 68 68" fill="none" xmlns="http://www.w3.org/2000/svg">
<g clip-path="url(#clip0_619_447)">
<path d="M29.6564 24.7449L28.8372 23.9097L28.018 24.7449C27.3457 25.4333 11.627 41.5548 11.627 50.7898C11.627 60.2947 19.3323 68 28.8372 68C38.3421 68 46.0475 60.2947 46.0475 50.7898C46.0475 41.5548 30.3288 25.4333 29.6564 24.7449ZM28.8372 65.7053C20.6035 65.6959 13.9311 59.0235 13.9217 50.7898C13.9217 43.5993 25.6051 30.6549 28.8372 27.2106C32.0693 30.6526 43.7528 43.5948 43.7528 50.7898C43.7433 59.0235 37.0709 65.6959 28.8372 65.7053Z" fill="#A88750"/>
<path d="M19.658 50.7898H17.3633C17.3696 56.4901 21.9891 61.1096 27.6894 61.1159V58.8212C23.2561 58.8155 19.6637 55.223 19.658 50.7898Z" fill="#A88750"/>
<path d="M46.9315 4.10185L46.0469 3.04858L45.1657 4.103C43.5915 5.99154 35.7207 15.627 35.7207 19.8114C35.7207 25.5143 40.344 30.1375 46.0469 30.1375C51.7499 30.1375 56.373 25.5143 56.373 19.8114C56.373 16.5575 51.2857 9.31541 46.9315 4.10185ZM46.0469 27.8428C41.6136 27.8371 38.0211 24.2446 38.0154 19.8114C38.0154 18.1316 40.769 13.1326 46.0469 6.64094C51.2696 13.0661 54.0783 18.1672 54.0783 19.8114C54.0726 24.2447 50.4801 27.8371 46.0469 27.8428Z" fill="#A88750"/>
<path d="M31.0907 9.36926C30.7775 8.15422 29.1816 5.1757 26.3246 1.26553L25.3953 0L24.4682 1.26209C21.897 4.78101 20.02 7.95687 19.6907 9.37041L19.6562 9.51727V9.66757C19.741 12.7714 22.2904 15.2387 25.3953 15.2219C28.4867 15.2354 31.0285 12.7882 31.132 9.69855V9.53104L31.0907 9.36926ZM25.3953 12.9272C23.6046 12.9137 22.118 11.54 21.9636 9.75592C22.8786 7.68309 24.0301 5.72298 25.3953 3.91476C26.7579 5.73775 27.908 7.71019 28.8236 9.79378C28.6701 11.5712 27.1793 12.9338 25.3953 12.9272Z" fill="#A88750"/>
</g>
<defs>
<clipPath id="clip0_619_447">
<rect width="68" height="68" fill="white"/>
</clipPath>
</defs>
</svg>
