<svg width="68" height="68" viewBox="0 0 68 68" fill="none" xmlns="http://www.w3.org/2000/svg">
<g clip-path="url(#clip0_619_461)">
<path d="M7.2092 25.3442H9.89145V30.9078C9.89145 31.5902 10.4453 32.1441 11.1278 32.1441C11.8103 32.1441 12.3641 31.5902 12.3641 30.9078V24.1079C12.3641 23.4254 11.8103 22.8715 11.1278 22.8715H8.85478L15.018 17.4786C15.2671 17.2603 15.6423 17.2603 15.8921 17.4786L22.0553 22.8715H19.7822C19.0998 22.8715 18.5459 23.4254 18.5459 24.1079V30.9078C18.5459 31.5902 19.0998 32.1441 19.7822 32.1441C20.4647 32.1441 21.0186 31.5902 21.0186 30.9078V25.3442H23.7002C24.4804 25.3442 25.1616 24.8719 25.4367 24.1419C25.7111 23.4112 25.509 22.6075 24.9217 22.0938L17.5197 15.6179C16.3427 14.5874 14.5667 14.588 13.3897 15.6179L5.9883 22.0938C5.40104 22.6075 5.19889 23.4118 5.47336 24.1419C5.74783 24.8719 6.42906 25.3442 7.2092 25.3442Z" fill="#A88750"/>
<path d="M44.4187 15.4876C44.6931 16.2176 45.3744 16.6899 46.1545 16.6899H48.8368V30.9079C48.8368 31.5904 49.3907 32.1443 50.0731 32.1443C50.7556 32.1443 51.3095 31.5904 51.3095 30.9079V15.4536C51.3095 14.7711 50.7556 14.2172 50.0731 14.2172H47.8001L53.9633 8.82426C54.2124 8.60605 54.5876 8.60605 54.8374 8.82426L61.0006 14.2172H58.7276C58.0451 14.2172 57.4912 14.7711 57.4912 15.4536V22.2535C57.4912 22.9359 58.0451 23.4898 58.7276 23.4898C59.41 23.4898 59.9639 22.9359 59.9639 22.2535V16.6899H62.6455C63.4257 16.6899 64.1069 16.2176 64.382 15.4876C64.6565 14.7569 64.4543 13.9533 63.867 13.4395L56.465 6.96356C55.288 5.93306 53.512 5.93368 52.335 6.96356L44.9336 13.4395C44.3464 13.9533 44.1442 14.7575 44.4187 15.4876Z" fill="#A88750"/>
<path d="M58.7276 25.9622C58.0451 25.9622 57.4912 26.516 57.4912 27.1985V30.9075C57.4912 31.59 58.0451 32.1439 58.7276 32.1439C59.41 32.1439 59.9639 31.59 59.9639 30.9075V27.1985C59.9639 26.516 59.41 25.9622 58.7276 25.9622Z" fill="#A88750"/>
<path d="M21.6943 51.888C22.2408 57.6747 26.8264 62.3376 32.5976 62.9756C33.0563 63.0263 33.5144 63.0516 33.9712 63.0516C37.0164 63.0516 39.9725 61.9389 42.2467 59.902C44.8635 57.5579 46.3644 54.2 46.3644 50.6894C46.3644 46.6187 44.3553 42.8101 40.9887 40.5025C39.6782 39.6036 38.8962 38.0996 38.8968 36.4788C38.9012 23.6331 39.8433 8.12746 47.1439 2.19547C47.6384 1.79365 47.7466 1.08152 47.3936 0.551123C47.0407 0.0207294 46.3415 -0.154831 45.7808 0.146219C30.9688 8.08048 28.752 24.025 28.4757 37.0289C28.4435 38.5392 27.7425 39.9214 26.5525 40.8202C23.1025 43.4283 21.2863 47.5657 21.6943 51.888ZM28.0436 42.7934C29.8406 41.4353 30.8995 39.3533 30.9477 37.0821C31.1758 26.3475 32.6403 14.7568 40.6506 6.91213C37.0324 14.6745 36.4278 25.908 36.4241 36.4775C36.4235 38.9144 37.6073 41.1812 39.591 42.5412C42.2838 44.3883 43.8917 47.4341 43.8917 50.6894C43.8917 53.4977 42.6906 56.1843 40.5968 58.0598C38.4746 59.9607 35.7305 60.8336 32.8696 60.5177C28.2574 60.0083 24.5929 56.2814 24.1565 51.6562C23.8288 48.1932 25.2822 44.8804 28.0436 42.7934Z" fill="#A88750"/>
<path d="M67.6395 44.2537C66.6127 43.2226 65.2398 42.6545 63.7735 42.6545C62.3084 42.6545 60.9373 43.2213 59.9093 44.2549C59.351 44.8156 58.6012 45.1247 57.7982 45.1247C56.9952 45.1247 56.2447 44.8156 55.6859 44.2543C54.0613 42.6204 51.6307 42.2291 49.6173 43.1168C48.3574 40.4853 46.4263 38.1931 43.9313 36.4715H66.7636C67.446 36.4715 67.9999 35.9176 67.9999 35.2351C67.9999 34.5527 67.446 33.9988 66.7636 33.9988H43.273C42.2505 33.9988 41.4184 34.8308 41.4184 35.8533V36.4437C41.4184 37.2448 41.8196 37.9996 42.4922 38.4632C46.804 41.436 49.1629 46.395 48.8007 51.728C48.3117 58.9402 42.9731 64.57 35.8178 65.4175C31.5066 65.9281 27.3618 64.638 24.1497 61.7838C20.981 58.9687 19.1642 54.9246 19.1642 50.6895C19.1642 45.7731 21.5355 41.203 25.5085 38.4632C26.1811 37.9996 26.5823 37.2442 26.5823 36.443V35.8533C26.5823 34.8308 25.7502 33.9988 24.7277 33.9988H1.23712C0.554661 33.9988 0.000776818 34.5527 0.000776818 35.2351C0.000776818 35.9176 0.554661 36.4715 1.23712 36.4715H24.0416C21.5899 38.1783 19.6723 40.4853 18.4081 43.1267C16.3904 42.2236 13.9455 42.6112 12.3092 44.2555C11.751 44.8162 11.0012 45.1253 10.1982 45.1253C9.39517 45.1253 8.64408 44.8162 8.08587 44.2549C7.06032 43.2238 5.6886 42.6557 4.22352 42.6557C2.75845 42.6557 1.3861 43.2232 0.359936 44.2543C-0.121622 44.7383 -0.119768 45.5209 0.364263 46.0031C0.848293 46.4847 1.6309 46.4828 2.11308 45.9988C2.67129 45.4375 3.42052 45.1284 4.22291 45.1284C5.0253 45.1284 5.77452 45.4375 6.33273 45.9988C7.35828 47.0299 8.73063 47.598 10.1963 47.598H10.1976C11.6632 47.598 13.0356 47.0305 14.0649 45.9963C14.9847 45.0715 16.3719 44.8861 17.492 45.4393C16.9697 47.1133 16.6915 48.8813 16.6915 50.6895C16.6915 55.6305 18.8112 60.3484 22.5073 63.6328C25.6859 66.4572 29.8011 67.9959 34.043 67.9959C34.7292 67.9959 35.4191 67.9557 36.1089 67.8741C44.3313 66.9005 50.7065 60.1809 51.2684 51.8962C51.4205 49.6559 51.1534 47.4737 50.5204 45.4338C51.6387 44.8898 53.0179 45.0783 53.9328 45.9988C54.9583 47.0299 56.3307 47.598 57.7963 47.598H57.7976C59.2633 47.598 60.6356 47.0305 61.6649 45.9963C62.2225 45.4362 62.9711 45.1278 63.7735 45.1278C64.5777 45.1278 65.3282 45.4369 65.887 45.9988C66.3686 46.4828 67.1512 46.484 67.6358 46.0025C68.1198 45.5203 68.1217 44.7377 67.6395 44.2537Z" fill="#A88750"/>
<path d="M9.89163 55.0166C8.86917 55.0166 8.03711 55.8487 8.03711 56.8711C8.03711 57.8936 8.86917 58.7256 9.89163 58.7256C10.9141 58.7256 11.7462 57.8936 11.7462 56.8711C11.7462 55.8487 10.9141 55.0166 9.89163 55.0166Z" fill="#A88750"/>
<path d="M4.32718 48.2166C3.30472 48.2166 2.47266 49.0486 2.47266 50.0711C2.47266 51.0935 3.30472 51.9256 4.32718 51.9256C5.34964 51.9256 6.1817 51.0935 6.1817 50.0711C6.1817 49.0486 5.34964 48.2166 4.32718 48.2166Z" fill="#A88750"/>
<path d="M4.32718 61.8167C3.30472 61.8167 2.47266 62.6487 2.47266 63.6712C2.47266 64.6936 3.30472 65.5257 4.32718 65.5257C5.34964 65.5257 6.1817 64.6936 6.1817 63.6712C6.1817 62.6487 5.34964 61.8167 4.32718 61.8167Z" fill="#A88750"/>
<path d="M15.4551 61.8167C14.4326 61.8167 13.6006 62.6487 13.6006 63.6712C13.6006 64.6936 14.4326 65.5257 15.4551 65.5257C16.4776 65.5257 17.3096 64.6936 17.3096 63.6712C17.3096 62.6487 16.4776 61.8167 15.4551 61.8167Z" fill="#A88750"/>
<path d="M58.1094 55.0166C57.0869 55.0166 56.2549 55.8487 56.2549 56.8711C56.2549 57.8936 57.0869 58.7256 58.1094 58.7256C59.1319 58.7256 59.9639 57.8936 59.9639 56.8711C59.9639 55.8487 59.1319 55.0166 58.1094 55.0166Z" fill="#A88750"/>
<path d="M63.6729 48.2166C62.6504 48.2166 61.8184 49.0486 61.8184 50.0711C61.8184 51.0935 62.6504 51.9256 63.6729 51.9256C64.6953 51.9256 65.5274 51.0935 65.5274 50.0711C65.5274 49.0486 64.6953 48.2166 63.6729 48.2166Z" fill="#A88750"/>
<path d="M63.6729 61.8167C62.6504 61.8167 61.8184 62.6487 61.8184 63.6712C61.8184 64.6936 62.6504 65.5257 63.6729 65.5257C64.6953 65.5257 65.5274 64.6936 65.5274 63.6712C65.5274 62.6487 64.6953 61.8167 63.6729 61.8167Z" fill="#A88750"/>
<path d="M52.5459 61.8167C51.5235 61.8167 50.6914 62.6487 50.6914 63.6712C50.6914 64.6936 51.5235 65.5257 52.5459 65.5257C53.5684 65.5257 54.4005 64.6936 54.4005 63.6712C54.4005 62.6487 53.5684 61.8167 52.5459 61.8167Z" fill="#A88750"/>
</g>
<defs>
<clipPath id="clip0_619_461">
<rect width="68" height="68" fill="white" transform="translate(0 -0.000488281)"/>
</clipPath>
</defs>
</svg>
