<svg width="68" height="68" viewBox="0 0 68 68" fill="none" xmlns="http://www.w3.org/2000/svg">
<path d="M54.8175 4.61802C55.2195 4.30802 55.3255 3.74602 55.0635 3.31102C54.8025 2.87602 54.2555 2.70802 53.7935 2.91502C45.0265 6.88602 38.2355 13.014 33.6075 21.13C33.3345 21.609 33.5015 22.22 33.9815 22.494C34.4605 22.767 35.0705 22.6 35.3455 22.12C38.2745 16.984 42.1155 12.68 46.8145 9.25802C38.1655 18.893 35.6745 30.511 38.7395 45.851C39.1045 47.678 38.6575 49.578 37.5445 50.935C36.6215 52.06 35.3635 52.68 34.0005 52.68C32.8025 52.68 31.7025 52.175 30.8165 51.219C29.4105 49.7 28.6925 47.228 28.8955 44.607C29.4155 37.892 30.8655 31.766 33.2045 26.399C33.4255 25.893 33.1935 25.304 32.6875 25.083C32.1805 24.859 31.5915 25.093 31.3715 25.6C28.9425 31.171 27.4395 37.514 26.9015 44.452C26.6565 47.619 27.5715 50.657 29.3495 52.577C30.6225 53.953 32.2305 54.68 34.0005 54.68C35.9735 54.68 37.7815 53.801 39.0905 52.204C40.5795 50.388 41.1815 47.867 40.7005 45.459C37.1145 27.508 41.4685 14.913 54.8175 4.61802Z" fill="#A88750"/>
<path d="M65 40.781H44.043C43.751 40.781 43.474 40.908 43.284 41.13C43.094 41.351 43.011 41.645 43.055 41.933C43.203 42.898 43.375 43.879 43.576 44.883C44.237 48.192 43.428 51.537 41.358 54.062C40.68 54.889 39.886 55.593 38.998 56.154C38.531 56.449 38.392 57.067 38.687 57.533C38.981 58 39.598 58.138 40.066 57.844C41.135 57.169 42.09 56.323 42.905 55.329C45.357 52.339 46.316 48.389 45.537 44.49C45.422 43.913 45.317 43.343 45.22 42.779H64V63.171H4V42.781H7C7.552 42.781 8 42.333 8 41.781C8 41.229 7.552 40.781 7 40.781H3C2.448 40.781 2 41.229 2 41.781V64.173C2 64.725 2.448 65.173 3 65.173H65C65.552 65.173 66 64.725 66 64.173V41.781C66 41.229 65.552 40.781 65 40.781Z" fill="#A88750"/>
<path d="M25.7288 55.927C27.9268 58.303 30.8648 59.612 33.9998 59.612C34.5518 59.612 34.9998 59.164 34.9998 58.612C34.9998 58.06 34.5518 57.612 33.9998 57.612C31.4288 57.612 29.0128 56.531 27.1968 54.569C24.8398 52.022 23.6658 48.252 23.9778 44.226C24.0238 43.626 24.0918 43.038 24.1598 42.451L24.2228 41.892C24.2548 41.609 24.1638 41.327 23.9738 41.115C23.7848 40.903 23.5138 40.782 23.2288 40.782H11.2988C10.7468 40.782 10.2988 41.23 10.2988 41.782C10.2988 42.334 10.7468 42.782 11.2988 42.782H22.1078C22.0608 43.209 22.0168 43.637 21.9828 44.072C21.6288 48.651 22.9938 52.973 25.7288 55.927Z" fill="#A88750"/>
<path d="M29.7831 13.911C29.6651 13.549 29.3521 13.285 28.9751 13.23L26.4321 12.861L25.2951 10.557C25.1271 10.216 24.7791 9.99902 24.3981 9.99902C24.0181 9.99902 23.6701 10.215 23.5021 10.557L22.3641 12.861L19.8221 13.23C19.4451 13.285 19.1321 13.549 19.0141 13.911C18.8961 14.273 18.9941 14.67 19.2671 14.936L21.1071 16.73L20.6721 19.263C20.6081 19.638 20.7621 20.017 21.0701 20.241C21.3791 20.465 21.7861 20.494 22.1231 20.317L24.3971 19.122L26.6711 20.317C26.8171 20.394 26.9771 20.432 27.1361 20.432C27.3431 20.432 27.5501 20.368 27.7241 20.241C28.0321 20.017 28.1861 19.638 28.1211 19.263L27.6871 16.73L29.5271 14.937C29.8021 14.67 29.9001 14.273 29.7831 13.911ZM25.9171 15.665C25.6811 15.895 25.5741 16.226 25.6291 16.55L25.8101 17.604L24.8641 17.106C24.5731 16.953 24.2241 16.953 23.9331 17.106L22.9861 17.604L23.1671 16.55C23.2221 16.226 23.1151 15.895 22.8791 15.665L22.1131 14.918L23.1711 14.765C23.4971 14.718 23.7781 14.513 23.9241 14.218L24.3981 13.26L24.8711 14.218C25.0171 14.513 25.2991 14.718 25.6241 14.765L26.6821 14.918L25.9171 15.665Z" fill="#A88750"/>
<path d="M16.3971 24.293C16.0601 23.61 14.9401 23.61 14.6031 24.293L13.1251 27.287L9.82108 27.767C9.44408 27.822 9.13108 28.086 9.01308 28.448C8.89508 28.81 8.99308 29.207 9.26608 29.473L11.6571 31.804L11.0931 35.095C11.0291 35.47 11.1831 35.849 11.4911 36.073C11.8001 36.298 12.2081 36.326 12.5441 36.149L15.4991 34.595L18.4551 36.149C18.6011 36.226 18.7611 36.264 18.9201 36.264C19.1271 36.264 19.3341 36.2 19.5081 36.073C19.8161 35.849 19.9701 35.47 19.9061 35.095L19.3421 31.804L21.7331 29.473C22.0051 29.207 22.1041 28.81 21.9861 28.448C21.8681 28.086 21.5551 27.822 21.1781 27.767L17.8741 27.287L16.3971 24.293ZM17.5691 30.738C17.3341 30.968 17.2261 31.299 17.2811 31.623L17.5921 33.435L15.9651 32.58C15.8191 32.503 15.6591 32.465 15.5001 32.465C15.3411 32.465 15.1801 32.503 15.0351 32.58L13.4081 33.435L13.7191 31.623C13.7741 31.299 13.6671 30.968 13.4311 30.738L12.1151 29.454L13.9341 29.19C14.2601 29.143 14.5411 28.938 14.6871 28.643L15.5001 26.995L16.3131 28.643C16.4591 28.938 16.7401 29.143 17.0661 29.19L18.8851 29.454L17.5691 30.738Z" fill="#A88750"/>
<path d="M58.0213 27.2009C57.9033 26.8389 57.5903 26.5749 57.2133 26.5199L53.9093 26.0399L52.4313 23.0459C52.0943 22.3629 50.9743 22.3629 50.6373 23.0459L49.1593 26.0399L45.8553 26.5199C45.4783 26.5749 45.1653 26.8389 45.0473 27.2009C44.9293 27.5629 45.0273 27.9599 45.3003 28.2259L47.6913 30.5569L47.1273 33.8479C47.0633 34.2229 47.2173 34.6019 47.5253 34.8259C47.8343 35.0509 48.2423 35.0789 48.5783 34.9019L51.5343 33.3479L54.4903 34.9019C54.6363 34.9789 54.7963 35.0169 54.9553 35.0169C55.1623 35.0169 55.3693 34.9529 55.5433 34.8259C55.8513 34.6019 56.0053 34.2229 55.9413 33.8479L55.3773 30.5569L57.7683 28.2259C58.0413 27.9599 58.1393 27.5629 58.0213 27.2009ZM53.6043 29.4909C53.3693 29.7209 53.2613 30.0519 53.3163 30.3759L53.6273 32.1879L52.0003 31.3329C51.8543 31.2559 51.6943 31.2179 51.5353 31.2179C51.3763 31.2179 51.2153 31.2559 51.0703 31.3329L49.4433 32.1879L49.7543 30.3759C49.8093 30.0519 49.7023 29.7209 49.4663 29.4909L48.1493 28.2079L49.9683 27.9439C50.2943 27.8969 50.5753 27.6919 50.7213 27.3969L51.5343 25.7489L52.3473 27.3969C52.4933 27.6919 52.7743 27.8969 53.1003 27.9439L54.9193 28.2079L53.6043 29.4909Z" fill="#A88750"/>
</svg>
