<svg width="68" height="68" viewBox="0 0 68 68" fill="none" xmlns="http://www.w3.org/2000/svg">
<path d="M30.8032 47.2522C31.1068 47.2522 31.4076 47.1526 31.6556 46.9599C31.9502 46.7311 32.1352 46.3977 32.183 46.0382C32.4952 46.0903 32.8107 46.1172 33.1293 46.1172C33.5037 46.1172 33.8822 46.08 34.264 46.0081C34.3099 46.2353 34.3587 46.4519 34.4107 46.6545C34.563 47.1958 35.2387 47.8581 36.0502 47.6718C41.1753 46.5981 44.3594 41.3595 44.3594 34.0001C44.3594 27.3729 41.9685 22.5766 37.7996 20.841C37.3422 20.6507 36.8136 20.7196 36.4201 21.0208C36.0922 21.2717 35.8975 21.6553 35.8768 22.0605C35.1965 21.963 34.5143 21.963 33.8341 22.0605C33.7997 21.8387 33.7624 21.6181 33.7212 21.3992C33.5808 20.6507 32.8552 20.1515 32.1041 20.2868C26.8046 21.24 23.6406 26.3664 23.6406 34.0001C23.6406 40.4491 26.114 45.3611 30.2567 47.1399C30.4324 47.2152 30.6182 47.2522 30.8032 47.2522ZM42.3672 34.0001C42.3672 38.7904 40.7358 44.2378 36.2095 45.5788C35.7507 43.2574 35.6598 39.2948 36.7974 34.885C37.9046 30.5925 38.2942 26.746 37.9809 23.1675C40.7829 24.9088 42.3672 28.7791 42.3672 34.0001ZM25.6328 34.0001C25.6328 27.718 27.9507 23.4322 31.8682 22.3791C32.3679 25.6136 32.0856 29.2241 31.0101 33.3913C30.7599 34.3605 30.5486 35.3629 30.3819 36.3705C30.2921 36.9132 30.6594 37.426 31.202 37.5159C31.746 37.6055 32.2576 37.2384 32.3474 36.6958C32.5047 35.7459 32.7037 34.8016 32.9391 33.8892C33.8738 30.2675 34.2399 27.0208 34.0483 24.0419C34.7168 23.9361 35.379 23.9612 36.0497 24.1174C36.2262 27.2509 35.8377 30.6296 34.8683 34.3875C33.9143 38.0855 33.7578 41.4732 33.9853 44.0333C33.2901 44.1791 32.6288 44.1497 31.9854 43.946C31.9176 43.068 31.8943 42.1459 31.9179 41.1867C31.9314 40.6367 31.4965 40.1798 30.9466 40.1664C30.3933 40.1478 29.9399 40.5877 29.9262 41.1377C29.8949 42.4148 29.9401 43.6371 30.0606 44.7862C27.268 42.988 25.6328 39.0597 25.6328 34.0001Z" fill="#A88750"/>
<path d="M52.6683 44.2022V23.798C52.6683 23.4422 52.4784 23.1133 52.1702 22.9354L34.4982 12.7314C34.1901 12.5534 33.8102 12.5534 33.5021 12.7314L25.8699 17.1382C25.3935 17.4133 25.2303 18.0225 25.5053 18.499C25.7805 18.9754 26.3899 19.1388 26.866 18.8636L34.0002 14.7443L50.6761 24.3731V43.6273L34.0002 53.2559L17.3242 43.6271V24.3731L22.8379 21.1894C23.3143 20.9144 23.4776 20.3051 23.2025 19.8287C22.9273 19.3522 22.318 19.1893 21.8418 19.4642L15.8301 22.9354C15.522 23.1133 15.332 23.4422 15.332 23.798V44.2024C15.332 44.5582 15.522 44.887 15.8301 45.065L33.5021 55.2688C33.6562 55.3578 33.8282 55.4023 34.0002 55.4023C34.1721 55.4023 34.3441 55.3578 34.4982 55.2688L52.1702 45.065C52.4784 44.887 52.6683 44.5582 52.6683 44.2022Z" fill="#A88750"/>
<path d="M46.6914 41.9019C46.6914 42.4521 47.1373 42.898 47.6875 42.898C48.2377 42.898 48.6836 42.4521 48.6836 41.9019V34.7969C48.6836 34.2468 48.2377 33.8008 47.6875 33.8008C47.1373 33.8008 46.6914 34.2468 46.6914 34.7969V41.9019Z" fill="#A88750"/>
<path d="M47.6875 31.1446C48.2377 31.1446 48.6836 30.6986 48.6836 30.1485V26.0981C48.6836 25.548 48.2377 25.1021 47.6875 25.1021C47.1373 25.1021 46.6914 25.548 46.6914 26.0981V30.1485C46.6914 30.6986 47.1373 31.1446 47.6875 31.1446Z" fill="#A88750"/>
<path d="M19.3164 26.0981V41.9019C19.3164 42.452 19.7623 42.898 20.3125 42.898C20.8627 42.898 21.3086 42.452 21.3086 41.9019V26.0981C21.3086 25.548 20.8627 25.1021 20.3125 25.1021C19.7623 25.1021 19.3164 25.548 19.3164 26.0981Z" fill="#A88750"/>
<path d="M31.8086 12.0859C32.3588 12.0859 32.8047 11.64 32.8047 11.0898V0.996094C32.8047 0.445984 32.3588 0 31.8086 0C31.2584 0 30.8125 0.445984 30.8125 0.996094V11.0898C30.8125 11.64 31.2584 12.0859 31.8086 12.0859Z" fill="#A88750"/>
<path d="M36.1914 12.0859C36.7416 12.0859 37.1875 11.64 37.1875 11.0898V0.996094C37.1875 0.445984 36.7416 0 36.1914 0C35.6412 0 35.1953 0.445984 35.1953 0.996094V11.0898C35.1953 11.64 35.6412 12.0859 36.1914 12.0859Z" fill="#A88750"/>
<path d="M54.6466 23.0763C54.8155 23.0763 54.9868 23.0332 55.1437 22.9426L63.08 18.3606C63.5564 18.0856 63.7197 17.4764 63.4446 17C63.1697 16.5236 62.5601 16.3602 62.0839 16.6354L54.1476 21.2174C53.6712 21.4925 53.508 22.1017 53.783 22.5781C53.9675 22.8976 54.3023 23.0763 54.6466 23.0763Z" fill="#A88750"/>
<path d="M64.176 47.7413L55.4347 42.6945C54.958 42.4193 54.349 42.5826 54.074 43.059C53.799 43.5354 53.9622 44.1446 54.4386 44.4197L63.1799 49.4666C63.3369 49.5572 63.5081 49.6002 63.6771 49.6002C64.0213 49.6002 64.3561 49.4214 64.5406 49.102C64.8157 48.6257 64.6524 48.0164 64.176 47.7413Z" fill="#A88750"/>
<path d="M61.9846 51.537L59.9269 50.349C59.4505 50.0738 58.8412 50.2372 58.5662 50.7136C58.2912 51.19 58.4544 51.7992 58.9308 52.0742L60.9885 53.2622C61.1453 53.3528 61.3166 53.3959 61.4856 53.3959C61.8298 53.3959 62.1647 53.2172 62.3491 52.8977C62.6242 52.4214 62.461 51.8122 61.9846 51.537Z" fill="#A88750"/>
<path d="M55.8946 48.021L53.2433 46.4904C52.7665 46.2152 52.1576 46.3785 51.8826 46.8549C51.6076 47.3313 51.7708 47.9405 52.2472 48.2156L54.8985 49.7463C55.0555 49.8368 55.2267 49.8799 55.3957 49.8799C55.7399 49.8799 56.0747 49.7011 56.2592 49.3817C56.5343 48.9053 56.3709 48.2961 55.8946 48.021Z" fill="#A88750"/>
<path d="M36.1914 55.9141C35.6412 55.9141 35.1953 56.36 35.1953 56.9102V67.0039C35.1953 67.554 35.6412 68 36.1914 68C36.7416 68 37.1875 67.554 37.1875 67.0039V56.9102C37.1875 56.36 36.7416 55.9141 36.1914 55.9141Z" fill="#A88750"/>
<path d="M31.8086 55.9141C31.2584 55.9141 30.8125 56.36 30.8125 56.9102V67.0039C30.8125 67.554 31.2584 68 31.8086 68C32.3588 68 32.8047 67.554 32.8047 67.0039V56.9102C32.8047 56.36 32.3588 55.9141 31.8086 55.9141Z" fill="#A88750"/>
<path d="M12.8564 45.0572L4.92006 49.6393C4.44366 49.9143 4.28043 50.5235 4.55549 50.9999C4.73997 51.3195 5.07479 51.4981 5.41904 51.4981C5.58797 51.4981 5.7593 51.4551 5.91615 51.3645L13.8525 46.7825C14.3289 46.5074 14.4921 45.8982 14.2171 45.4218C13.9421 44.9453 13.3327 44.7822 12.8564 45.0572Z" fill="#A88750"/>
<path d="M13.0628 25.4391C13.407 25.4391 13.7419 25.2603 13.9263 24.9409C14.2014 24.4645 14.0382 23.8553 13.5618 23.5802L4.82045 18.5333C4.34379 18.2581 3.73471 18.4215 3.45979 18.8979C3.18473 19.3743 3.34796 19.9835 3.82436 20.2586L12.5657 25.3054C12.7225 25.396 12.8937 25.4391 13.0628 25.4391Z" fill="#A88750"/>
<path d="M16.1177 21.145C16.3928 20.6686 16.2296 20.0594 15.7532 19.7844L7.01186 14.7375C6.53519 14.4622 5.92611 14.6257 5.65119 15.1021C5.37614 15.5785 5.53936 16.1877 6.01576 16.4627L14.7571 21.5096C14.9141 21.6002 15.0853 21.6432 15.2542 21.6432C15.5984 21.6433 15.9334 21.4646 16.1177 21.145Z" fill="#A88750"/>
</svg>
