<svg width="68" height="68" viewBox="0 0 68 68" fill="none" xmlns="http://www.w3.org/2000/svg">
<path d="M36.0391 40.4666C53.1379 34.1486 53.7343 20.8639 53.7343 20.8639" stroke="#A88750" stroke-width="2" stroke-miterlimit="10" stroke-linecap="round" stroke-linejoin="round"/>
<path d="M53.4932 46.6636H57.0002C57.0002 46.6636 55.4282 43.0496 55.4282 42.4232C55.4282 41.7967 59.6023 41.4836 59.7589 40.8571C59.9154 40.2306 54.9585 36.0023 54.8019 34.5929C54.6453 33.1834 55.8981 30.0512 55.8981 30.0512C56.931 26.2638 55.3454 22.9885 53.735 20.8639" stroke="#A88750" stroke-width="2" stroke-miterlimit="10" stroke-linecap="round" stroke-linejoin="round"/>
<path d="M35.3721 53.5375C38.6608 54.3206 51.7251 56.5177 52.6648 56.2044C53.6044 55.8912 53.2913 52.1326 53.2913 51.5062C53.2913 50.8797 55.2815 49.6567 55.2815 49.6567" stroke="#A88750" stroke-width="2" stroke-miterlimit="10" stroke-linecap="round" stroke-linejoin="round"/>
<path d="M42.7512 54.9945C42.7512 54.9945 40.9419 58.265 40.3154 63.433" stroke="#A88750" stroke-width="2" stroke-miterlimit="10" stroke-linecap="round" stroke-linejoin="round"/>
<path d="M29.9941 48.1245V42.6036C29.9941 38.5413 32.1156 34.7518 35.6207 32.6985C35.7154 32.643 35.8117 32.5876 35.9097 32.5322C38.9276 30.8298 42.8435 28.6427 45.8755 24.5321" stroke="#A88750" stroke-width="2" stroke-miterlimit="10" stroke-linecap="round" stroke-linejoin="round"/>
<path d="M29.9941 63.433V54.3165" stroke="#A88750" stroke-width="2" stroke-miterlimit="10" stroke-linecap="round" stroke-linejoin="round"/>
<path d="M15.2822 63.433L15.4534 30.847C15.4534 18.1363 25.7575 7.83215 38.4682 7.83215C51.1789 7.83215 61.4832 18.1361 61.4832 30.847" stroke="#A88750" stroke-width="2" stroke-miterlimit="10" stroke-linecap="round" stroke-linejoin="round"/>
<path d="M60.2109 5.00256V5.14892" stroke="#A88750" stroke-width="2" stroke-miterlimit="10" stroke-linecap="round" stroke-linejoin="round"/>
<path d="M60.2109 10.6445V10.7909" stroke="#A88750" stroke-width="2" stroke-miterlimit="10" stroke-linecap="round" stroke-linejoin="round"/>
<path d="M57.3164 7.89673H57.4628" stroke="#A88750" stroke-width="2" stroke-miterlimit="10" stroke-linecap="round" stroke-linejoin="round"/>
<path d="M62.958 7.89673H63.1044" stroke="#A88750" stroke-width="2" stroke-miterlimit="10" stroke-linecap="round" stroke-linejoin="round"/>
<path d="M15.2822 5.14893V5.29528" stroke="#A88750" stroke-width="2" stroke-miterlimit="10" stroke-linecap="round" stroke-linejoin="round"/>
<path d="M15.2822 10.7909V10.9373" stroke="#A88750" stroke-width="2" stroke-miterlimit="10" stroke-linecap="round" stroke-linejoin="round"/>
<path d="M12.3877 8.04309H12.5341" stroke="#A88750" stroke-width="2" stroke-miterlimit="10" stroke-linecap="round" stroke-linejoin="round"/>
<path d="M18.0293 8.04309H18.1757" stroke="#A88750" stroke-width="2" stroke-miterlimit="10" stroke-linecap="round" stroke-linejoin="round"/>
<path d="M24.2246 48.3112V48.4575" stroke="#A88750" stroke-width="2" stroke-miterlimit="10" stroke-linecap="round" stroke-linejoin="round"/>
<path d="M24.2246 53.9531V54.0995" stroke="#A88750" stroke-width="2" stroke-miterlimit="10" stroke-linecap="round" stroke-linejoin="round"/>
<path d="M21.3301 51.2054H21.4764" stroke="#A88750" stroke-width="2" stroke-miterlimit="10" stroke-linecap="round" stroke-linejoin="round"/>
<path d="M26.9717 51.2054H27.118" stroke="#A88750" stroke-width="2" stroke-miterlimit="10" stroke-linecap="round" stroke-linejoin="round"/>
<path d="M8.15918 21.6378V21.7842" stroke="#A88750" stroke-width="2" stroke-miterlimit="10" stroke-linecap="round" stroke-linejoin="round"/>
<path d="M8.15918 27.2798V27.4261" stroke="#A88750" stroke-width="2" stroke-miterlimit="10" stroke-linecap="round" stroke-linejoin="round"/>
<path d="M5.26465 24.532H5.41101" stroke="#A88750" stroke-width="2" stroke-miterlimit="10" stroke-linecap="round" stroke-linejoin="round"/>
<path d="M10.9062 24.532H11.0526" stroke="#A88750" stroke-width="2" stroke-miterlimit="10" stroke-linecap="round" stroke-linejoin="round"/>
</svg>
