<svg width="68" height="68" viewBox="0 0 68 68" fill="none" xmlns="http://www.w3.org/2000/svg">
<path d="M53.1876 6.02441C53.1876 6.02441 31.9395 12.6488 31.9395 37.7716V40.4838C31.9395 42.0382 33.1996 43.2985 34.7541 43.2985C36.3086 43.2985 37.5688 42.0384 37.5688 40.4838V38.4995C37.5688 37.9893 37.4302 37.4888 37.1677 37.0513L35.7541 34.6952C35.7541 34.6952 34.2754 22.1937 40.6646 14.3375" stroke="#A88750" stroke-width="2" stroke-miterlimit="10" stroke-linecap="round" stroke-linejoin="round"/>
<path d="M65.9546 34.2073H42.4581V40.533C42.4581 44.8456 38.9621 48.3416 34.6495 48.3416C30.337 48.3416 26.8409 44.8456 26.8409 40.533V34.2073H2.36426" stroke="#A88750" stroke-width="2" stroke-miterlimit="10" stroke-linecap="round" stroke-linejoin="round"/>
<path d="M2.36426 57.9263C6.33841 57.9263 6.33841 61.2366 10.3127 61.2366C14.2871 61.2366 14.2871 57.9263 18.2614 57.9263C22.2357 57.9263 22.2357 61.2366 26.2099 61.2366C30.1841 61.2366 30.1841 57.9263 34.1582 57.9263C38.1325 57.9263 38.1325 61.2366 42.1069 61.2366C46.0813 61.2366 46.0814 57.9263 50.0559 57.9263C54.0306 57.9263 54.0306 61.2366 58.0053 61.2366C61.9799 61.2366 61.9799 57.9263 65.9546 57.9263" stroke="#A88750" stroke-width="2" stroke-miterlimit="10" stroke-linecap="round" stroke-linejoin="round"/>
<path d="M5.86366 43.783C6.55638 43.783 7.11794 43.2214 7.11794 42.5287C7.11794 41.836 6.55638 41.2744 5.86366 41.2744C5.17094 41.2744 4.60938 41.836 4.60938 42.5287C4.60938 43.2214 5.17094 43.783 5.86366 43.783Z" fill="#A88750"/>
<path d="M19.5287 43.783C20.2214 43.783 20.783 43.2214 20.783 42.5287C20.783 41.836 20.2214 41.2744 19.5287 41.2744C18.836 41.2744 18.2744 41.836 18.2744 42.5287C18.2744 43.2214 18.836 43.783 19.5287 43.783Z" fill="#A88750"/>
<path d="M12.6332 50.8501C13.3259 50.8501 13.8875 50.2886 13.8875 49.5958C13.8875 48.9031 13.3259 48.3416 12.6332 48.3416C11.9405 48.3416 11.3789 48.9031 11.3789 49.5958C11.3789 50.2886 11.9405 50.8501 12.6332 50.8501Z" fill="#A88750"/>
<path d="M49.0609 43.783C49.7536 43.783 50.3152 43.2214 50.3152 42.5287C50.3152 41.836 49.7536 41.2744 49.0609 41.2744C48.3682 41.2744 47.8066 41.836 47.8066 42.5287C47.8066 43.2214 48.3682 43.783 49.0609 43.783Z" fill="#A88750"/>
<path d="M62.726 43.783C63.4187 43.783 63.9802 43.2214 63.9802 42.5287C63.9802 41.836 63.4187 41.2744 62.726 41.2744C62.0332 41.2744 61.4717 41.836 61.4717 42.5287C61.4717 43.2214 62.0332 43.783 62.726 43.783Z" fill="#A88750"/>
<path d="M55.8305 50.8501C56.5232 50.8501 57.0847 50.2886 57.0847 49.5958C57.0847 48.9031 56.5232 48.3416 55.8305 48.3416C55.1377 48.3416 54.5762 48.9031 54.5762 49.5958C54.5762 50.2886 55.1377 50.8501 55.8305 50.8501Z" fill="#A88750"/>
<path d="M55.8301 18.8342V18.9806" stroke="#A88750" stroke-width="2" stroke-miterlimit="10" stroke-linecap="round" stroke-linejoin="round"/>
<path d="M55.8301 24.4761V24.6224" stroke="#A88750" stroke-width="2" stroke-miterlimit="10" stroke-linecap="round" stroke-linejoin="round"/>
<path d="M52.9355 21.7283H53.0819" stroke="#A88750" stroke-width="2" stroke-miterlimit="10" stroke-linecap="round" stroke-linejoin="round"/>
<path d="M58.5771 21.7283H58.7235" stroke="#A88750" stroke-width="2" stroke-miterlimit="10" stroke-linecap="round" stroke-linejoin="round"/>
<path d="M28.4736 6.02441V6.17077" stroke="#A88750" stroke-width="2" stroke-miterlimit="10" stroke-linecap="round" stroke-linejoin="round"/>
<path d="M28.4736 11.6663V11.8126" stroke="#A88750" stroke-width="2" stroke-miterlimit="10" stroke-linecap="round" stroke-linejoin="round"/>
<path d="M25.5791 8.91846H25.7255" stroke="#A88750" stroke-width="2" stroke-miterlimit="10" stroke-linecap="round" stroke-linejoin="round"/>
<path d="M31.2207 8.91846H31.3671" stroke="#A88750" stroke-width="2" stroke-miterlimit="10" stroke-linecap="round" stroke-linejoin="round"/>
<path d="M17.8896 20.0457V20.192" stroke="#A88750" stroke-width="2" stroke-miterlimit="10" stroke-linecap="round" stroke-linejoin="round"/>
<path d="M17.8896 25.6877V25.8341" stroke="#A88750" stroke-width="2" stroke-miterlimit="10" stroke-linecap="round" stroke-linejoin="round"/>
<path d="M14.9951 22.9399H15.1415" stroke="#A88750" stroke-width="2" stroke-miterlimit="10" stroke-linecap="round" stroke-linejoin="round"/>
<path d="M20.6367 22.9399H20.7831" stroke="#A88750" stroke-width="2" stroke-miterlimit="10" stroke-linecap="round" stroke-linejoin="round"/>
</svg>
