<svg width="930" height="930" viewBox="0 0 930 930" fill="none" xmlns="http://www.w3.org/2000/svg">
<path d="M702.15 641.7C624.65 759.5 513.05 798.25 367.35 757.95C221.65 717.65 148.8 620 148.8 465C148.8 310 223.2 204.6 372 148.8C520.8 93 632.4 131.75 706.8 265.05C781.2 398.35 779.65 523.9 702.15 641.7Z" fill="#F9F6FF"/>
<path d="M660.3 646.35C610.7 767.25 523.9 796.7 399.9 734.7C275.9 672.7 199.95 571.95 172.05 432.45C144.15 292.95 201.5 218.55 344.1 209.25C486.7 199.95 587.45 240.25 646.35 330.15C705.25 420.05 709.9 525.45 660.3 646.35Z" fill="#F3F0FF"/>
<path d="M734.7 604.5C616.9 697.5 506.85 723.85 404.55 683.55C302.25 643.25 232.5 556.45 195.3 423.15C158.1 289.85 215.45 198.4 367.35 148.8C519.25 99.2 647.9 139.5 753.3 269.7C858.7 399.9 852.5 511.5 734.7 604.5Z" fill="#EDEAFF"/>
<path d="M720.75 585.9C606.05 666.5 500.65 691.3 404.55 660.3C308.45 629.3 232.5 544.05 176.7 404.55C120.9 265.05 175.15 178.25 339.45 144.15C503.75 110.05 637.05 155 739.35 279C841.65 403 835.45 505.3 720.75 585.9Z" fill="#E7E4FF"/>
<path d="M692.85 595.2C596.75 682 496 711.45 390.6 683.55C285.2 655.65 226.3 579.7 213.9 455.7C201.5 331.7 261.95 235.6 395.25 167.4C528.55 99.2 635.5 131.75 716.1 265.05C796.7 398.35 788.95 508.4 692.85 595.2Z" fill="#E1DEFF"/>
<path d="M664.95 674.25C624.65 813.75 525.45 854.05 367.35 795.15C209.25 736.25 151.9 641.7 195.3 511.5C238.7 381.3 314.65 275.9 423.15 195.3C531.65 114.7 609.15 139.5 655.65 269.7C702.15 399.9 705.25 534.75 664.95 674.25Z" fill="#DBD8FF"/>
<path d="M651 590.55C582.8 674.25 492.9 705.25 381.3 683.55C269.7 661.85 213.9 589 213.9 465C213.9 341 272.8 258.85 390.6 218.55C508.4 178.25 598.3 209.25 660.3 311.55C722.3 413.85 719.2 506.85 651 590.55Z" fill="#D5D2FF"/>
</svg>
