<svg width="68" height="68" viewBox="0 0 68 68" fill="none" xmlns="http://www.w3.org/2000/svg">
<g clip-path="url(#clip0_619_328)">
<path d="M61.083 6.51711H57.8411V3.83297C57.8424 1.71992 56.1225 0 54.0095 0C51.8937 0 50.1725 1.71992 50.1725 3.83297V6.51711H44.5027V3.83297C44.5041 1.71992 42.7841 0 40.6711 0C38.5554 0 36.8355 1.71992 36.8355 3.83297V6.51711H31.1657V3.83297C31.1657 1.71992 29.4445 0 27.3288 0C25.2157 0 23.4958 1.71992 23.4958 3.83297V6.51711H17.826V3.83297C17.826 1.71992 16.1061 0 13.9904 0C11.8773 0 10.1574 1.71992 10.1574 3.83297V6.51711H6.9168C4.18484 6.51711 1.96289 8.73773 1.96289 11.4684V63.0501C1.96289 65.7794 4.18484 68.0013 6.9168 68.0013H61.0844C63.8163 68.0013 66.0383 65.7807 66.0383 63.0501V11.4684C66.0383 8.73773 63.815 6.51711 61.083 6.51711ZM52.2962 3.83297C52.2962 2.89 53.0652 2.12367 54.0095 2.12367C54.9524 2.12367 55.7188 2.89 55.7188 3.83297V11.3249C55.7188 12.2679 54.9524 13.0342 54.0095 13.0342C53.0652 13.0342 52.2962 12.2679 52.2962 11.3249V3.83297ZM38.9578 3.83297C38.9578 2.89 39.7268 2.12367 40.6711 2.12367C41.6141 2.12367 42.3804 2.89 42.3804 3.83297V11.3249C42.3804 12.2679 41.6141 13.0342 40.6711 13.0342C39.7268 13.0342 38.9578 12.2679 38.9578 11.3249V3.83297ZM25.6195 3.83297C25.6195 2.89 26.3858 2.12367 27.3288 2.12367C28.273 2.12367 29.042 2.89 29.042 3.83297V11.3249C29.042 12.2679 28.273 13.0342 27.3288 13.0342C26.3858 13.0342 25.6195 12.2679 25.6195 11.3249V3.83297ZM12.2811 3.83297C12.2811 2.89 13.0474 2.12367 13.9904 2.12367C14.9347 2.12367 15.7037 2.89 15.7037 3.83297V11.3249C15.7037 12.2679 14.9347 13.0342 13.9904 13.0342C13.0474 13.0342 12.2811 12.2679 12.2811 11.3249V3.83297ZM6.9168 8.64078H10.1587V11.3249C10.1587 13.438 11.8787 15.1579 13.9917 15.1579C16.1074 15.1579 17.8273 13.438 17.8273 11.3249V8.64078H23.4971V11.3249C23.4971 13.438 25.2157 15.1579 27.3301 15.1579C29.4458 15.1579 31.167 13.438 31.167 11.3249V8.64078H36.8368V11.3249C36.8368 13.438 38.558 15.1579 40.6724 15.1579C42.7855 15.1579 44.5054 13.438 44.5054 11.3249V8.64078H50.1752V11.3249C50.1752 13.438 51.8964 15.1579 54.0121 15.1579C56.1252 15.1579 57.8451 13.438 57.8451 11.3249V8.64078H61.087C62.6476 8.64078 63.9186 9.90914 63.9186 11.4684V18.5127H4.08523V11.4684C4.08523 9.90914 5.35492 8.64078 6.9168 8.64078ZM61.083 65.8763H6.9168C5.35625 65.8763 4.08523 64.608 4.08523 63.0488V20.6351H63.9146V63.0488C63.9146 64.608 62.6449 65.8763 61.083 65.8763ZM51.1912 40.5915C52.421 45.1855 51.7888 49.9813 49.4128 54.0972C47.0355 58.213 43.1972 61.1575 38.6045 62.3873C37.0705 62.7991 35.514 63.0023 33.9667 63.0023C30.8841 63.0023 27.8427 62.1934 25.1015 60.6116C20.9856 58.2356 18.0398 54.3973 16.8087 49.8047C15.2946 44.1495 16.6613 38.1092 20.4637 33.6467C20.8435 33.2005 21.5142 33.1473 21.9605 33.5272C22.4067 33.907 22.4598 34.5777 22.08 35.024C18.7305 38.9552 17.5272 44.2757 18.8606 49.2548C19.9457 53.3003 22.5395 56.6804 26.164 58.7735C29.7898 60.8666 34.0119 61.4218 38.0547 60.3367C42.1002 59.2543 45.4802 56.6605 47.5734 53.036C49.6665 49.4116 50.223 45.1868 49.1405 41.1413C47.1245 33.6268 39.7454 28.7074 32.1087 29.6384L34.7995 31.8113C35.255 32.1791 35.3267 32.8485 34.9588 33.3041C34.749 33.5644 34.4422 33.6985 34.1327 33.6985C33.899 33.6985 33.6626 33.6215 33.466 33.4621L29.0048 29.8589C28.5493 29.491 28.4776 28.823 28.8455 28.3661L32.4487 23.9009C32.8166 23.4441 33.4859 23.3737 33.9415 23.7416C34.3984 24.1095 34.4688 24.7775 34.1009 25.2344L32.288 27.4802C36.2126 27.0964 40.1558 28.0287 43.5252 30.163C47.3077 32.5603 50.0304 36.2645 51.1912 40.5915ZM35.0611 36.5341V44.1389H42.6659C43.253 44.1389 43.7271 44.6144 43.7271 45.2001C43.7271 45.7858 43.2516 46.2612 42.6659 46.2612H33.9999C33.4129 46.2612 32.9387 45.7858 32.9387 45.2001V36.5341C32.9387 35.947 33.4142 35.4729 33.9999 35.4729C34.5856 35.4716 35.0611 35.947 35.0611 36.5341Z" fill="#A88750"/>
</g>
<defs>
<clipPath id="clip0_619_328">
<rect width="68" height="68" fill="white"/>
</clipPath>
</defs>
</svg>
