<svg width="1440" height="398" viewBox="0 0 1440 398" fill="none" xmlns="http://www.w3.org/2000/svg">
<path d="M-79 168.973C6.79249 118.086 92.5748 67.1887 178.367 84.0428C264.15 100.897 349.942 185.492 435.725 235.029C521.517 284.567 607.299 299.057 693.092 319.959C778.874 340.862 864.667 368.188 950.459 367.143C1036.24 366.098 1122.03 336.692 1207.82 235.029C1293.61 133.367 1379.39 -40.5415 1465.18 8.54947C1550.97 57.6404 1636.76 329.721 1722.54 357.706C1808.33 385.691 1894.13 169.561 1979.91 159.536C2065.7 149.511 2151.48 345.57 2237.28 338.833C2323.06 332.095 2408.85 122.561 2494.63 93.4795C2580.43 64.3983 2666.21 215.771 2752 367.143V933.343C2666.21 933.343 2580.43 933.343 2494.63 933.343C2408.85 933.343 2323.06 933.343 2237.28 933.343C2151.48 933.343 2065.7 933.343 1979.91 933.343C1894.13 933.343 1808.33 933.343 1722.54 933.343C1636.76 933.343 1550.97 933.343 1465.18 933.343C1379.39 933.343 1293.61 933.343 1207.82 933.343C1122.03 933.343 1036.24 933.343 950.459 933.343C864.667 933.343 778.874 933.343 693.092 933.343C607.299 933.343 521.517 933.343 435.725 933.343C349.942 933.343 264.15 933.343 178.367 933.343C92.5748 933.343 6.79249 933.343 -79 933.343V168.973Z" fill="#2F2F7F" fill-opacity="0.1"/>
</svg>
