<svg width="119" height="115" viewBox="0 0 119 115" fill="none" xmlns="http://www.w3.org/2000/svg">
<g opacity="0.3">
<mask id="mask0_3_3517" style="mask-type:alpha" maskUnits="userSpaceOnUse" x="0" y="0" width="13" height="11">
<path d="M6.2747 10.425C9.74012 10.425 12.5494 8.09121 12.5494 5.21245C12.5494 2.33368 9.74012 0 6.2747 0C2.80928 0 0 2.33368 0 5.21245C0 8.09121 2.80928 10.425 6.2747 10.425Z" fill="url(#paint0_linear_3_3517)"/>
</mask>
<g mask="url(#mask0_3_3517)">
<path d="M6.27665 10.425C9.74208 10.425 12.5514 8.09121 12.5514 5.21245C12.5514 2.33368 9.74208 0 6.27665 0C2.81123 0 0.00195312 2.33368 0.00195312 5.21245C0.00195312 8.09121 2.81123 10.425 6.27665 10.425Z" fill="url(#paint1_linear_3_3517)"/>
</g>
<mask id="mask1_3_3517" style="mask-type:alpha" maskUnits="userSpaceOnUse" x="36" y="0" width="13" height="11">
<path d="M42.6204 10.425C46.0858 10.425 48.8951 8.09121 48.8951 5.21245C48.8951 2.33368 46.0858 0 42.6204 0C39.155 0 36.3457 2.33368 36.3457 5.21245C36.3457 8.09121 39.155 10.425 42.6204 10.425Z" fill="url(#paint2_linear_3_3517)"/>
</mask>
<g mask="url(#mask1_3_3517)">
<path d="M42.6185 10.425C46.0839 10.425 48.8932 8.09121 48.8932 5.21245C48.8932 2.33368 46.0839 0 42.6185 0C39.153 0 36.3438 2.33368 36.3438 5.21245C36.3438 8.09121 39.153 10.425 42.6185 10.425Z" fill="url(#paint3_linear_3_3517)"/>
</g>
<mask id="mask2_3_3517" style="mask-type:alpha" maskUnits="userSpaceOnUse" x="72" y="0" width="14" height="11">
<path d="M78.9603 10.425C82.4257 10.425 85.235 8.09121 85.235 5.21245C85.235 2.33368 82.4257 0 78.9603 0C75.4948 0 72.6855 2.33368 72.6855 5.21245C72.6855 8.09121 75.4948 10.425 78.9603 10.425Z" fill="url(#paint4_linear_3_3517)"/>
</mask>
<g mask="url(#mask2_3_3517)">
<path d="M78.9603 10.425C82.4257 10.425 85.235 8.09121 85.235 5.21245C85.235 2.33368 82.4257 0 78.9603 0C75.4948 0 72.6855 2.33368 72.6855 5.21245C72.6855 8.09121 75.4948 10.425 78.9603 10.425Z" fill="url(#paint5_linear_3_3517)"/>
</g>
<mask id="mask3_3_3517" style="mask-type:alpha" maskUnits="userSpaceOnUse" x="109" y="0" width="13" height="11">
<path d="M115.3 10.425C118.766 10.425 121.575 8.09121 121.575 5.21245C121.575 2.33368 118.766 0 115.3 0C111.835 0 109.025 2.33368 109.025 5.21245C109.025 8.09121 111.835 10.425 115.3 10.425Z" fill="url(#paint6_linear_3_3517)"/>
</mask>
<g mask="url(#mask3_3_3517)">
<path d="M115.3 10.425C118.766 10.425 121.575 8.09121 121.575 5.21245C121.575 2.33368 118.766 0 115.3 0C111.835 0 109.025 2.33368 109.025 5.21245C109.025 8.09121 111.835 10.425 115.3 10.425Z" fill="url(#paint7_linear_3_3517)"/>
</g>
<mask id="mask4_3_3517" style="mask-type:alpha" maskUnits="userSpaceOnUse" x="0" y="26" width="13" height="11">
<path d="M6.2747 36.5958C9.74012 36.5958 12.5494 34.2621 12.5494 31.3833C12.5494 28.5046 9.74012 26.1709 6.2747 26.1709C2.80928 26.1709 0 28.5046 0 31.3833C0 34.2621 2.80928 36.5958 6.2747 36.5958Z" fill="url(#paint8_linear_3_3517)"/>
</mask>
<g mask="url(#mask4_3_3517)">
<path d="M6.27665 36.5958C9.74208 36.5958 12.5514 34.2621 12.5514 31.3833C12.5514 28.5046 9.74208 26.1709 6.27665 26.1709C2.81123 26.1709 0.00195312 28.5046 0.00195312 31.3833C0.00195312 34.2621 2.81123 36.5958 6.27665 36.5958Z" fill="url(#paint9_linear_3_3517)"/>
</g>
<mask id="mask5_3_3517" style="mask-type:alpha" maskUnits="userSpaceOnUse" x="36" y="26" width="13" height="11">
<path d="M42.6204 36.5958C46.0858 36.5958 48.8951 34.2621 48.8951 31.3833C48.8951 28.5046 46.0858 26.1709 42.6204 26.1709C39.155 26.1709 36.3457 28.5046 36.3457 31.3833C36.3457 34.2621 39.155 36.5958 42.6204 36.5958Z" fill="url(#paint10_linear_3_3517)"/>
</mask>
<g mask="url(#mask5_3_3517)">
<path d="M42.6185 36.5958C46.0839 36.5958 48.8932 34.2621 48.8932 31.3833C48.8932 28.5046 46.0839 26.1709 42.6185 26.1709C39.153 26.1709 36.3438 28.5046 36.3438 31.3833C36.3438 34.2621 39.153 36.5958 42.6185 36.5958Z" fill="url(#paint11_linear_3_3517)"/>
</g>
<mask id="mask6_3_3517" style="mask-type:alpha" maskUnits="userSpaceOnUse" x="72" y="26" width="14" height="11">
<path d="M78.9603 36.5958C82.4257 36.5958 85.235 34.2621 85.235 31.3833C85.235 28.5046 82.4257 26.1709 78.9603 26.1709C75.4948 26.1709 72.6855 28.5046 72.6855 31.3833C72.6855 34.2621 75.4948 36.5958 78.9603 36.5958Z" fill="url(#paint12_linear_3_3517)"/>
</mask>
<g mask="url(#mask6_3_3517)">
<path d="M78.9603 36.5958C82.4257 36.5958 85.235 34.2621 85.235 31.3833C85.235 28.5046 82.4257 26.1709 78.9603 26.1709C75.4948 26.1709 72.6855 28.5046 72.6855 31.3833C72.6855 34.2621 75.4948 36.5958 78.9603 36.5958Z" fill="url(#paint13_linear_3_3517)"/>
</g>
<mask id="mask7_3_3517" style="mask-type:alpha" maskUnits="userSpaceOnUse" x="109" y="26" width="13" height="11">
<path d="M115.3 36.5958C118.766 36.5958 121.575 34.2621 121.575 31.3833C121.575 28.5046 118.766 26.1709 115.3 26.1709C111.835 26.1709 109.025 28.5046 109.025 31.3833C109.025 34.2621 111.835 36.5958 115.3 36.5958Z" fill="url(#paint14_linear_3_3517)"/>
</mask>
<g mask="url(#mask7_3_3517)">
<path d="M115.3 36.5958C118.766 36.5958 121.575 34.2621 121.575 31.3833C121.575 28.5046 118.766 26.1709 115.3 26.1709C111.835 26.1709 109.025 28.5046 109.025 31.3833C109.025 34.2621 111.835 36.5958 115.3 36.5958Z" fill="url(#paint15_linear_3_3517)"/>
</g>
<mask id="mask8_3_3517" style="mask-type:alpha" maskUnits="userSpaceOnUse" x="0" y="52" width="13" height="11">
<path d="M6.2747 62.7121C9.74012 62.7121 12.5494 60.3784 12.5494 57.4996C12.5494 54.6208 9.74012 52.2871 6.2747 52.2871C2.80928 52.2871 0 54.6208 0 57.4996C0 60.3784 2.80928 62.7121 6.2747 62.7121Z" fill="url(#paint16_linear_3_3517)"/>
</mask>
<g mask="url(#mask8_3_3517)">
<path d="M6.27665 62.7121C9.74208 62.7121 12.5514 60.3784 12.5514 57.4996C12.5514 54.6208 9.74208 52.2871 6.27665 52.2871C2.81123 52.2871 0.00195312 54.6208 0.00195312 57.4996C0.00195312 60.3784 2.81123 62.7121 6.27665 62.7121Z" fill="url(#paint17_linear_3_3517)"/>
</g>
<mask id="mask9_3_3517" style="mask-type:alpha" maskUnits="userSpaceOnUse" x="36" y="52" width="13" height="11">
<path d="M42.6204 62.7121C46.0858 62.7121 48.8951 60.3784 48.8951 57.4996C48.8951 54.6208 46.0858 52.2871 42.6204 52.2871C39.155 52.2871 36.3457 54.6208 36.3457 57.4996C36.3457 60.3784 39.155 62.7121 42.6204 62.7121Z" fill="url(#paint18_linear_3_3517)"/>
</mask>
<g mask="url(#mask9_3_3517)">
<path d="M42.6185 62.7121C46.0839 62.7121 48.8932 60.3784 48.8932 57.4996C48.8932 54.6208 46.0839 52.2871 42.6185 52.2871C39.153 52.2871 36.3438 54.6208 36.3438 57.4996C36.3438 60.3784 39.153 62.7121 42.6185 62.7121Z" fill="url(#paint19_linear_3_3517)"/>
</g>
<mask id="mask10_3_3517" style="mask-type:alpha" maskUnits="userSpaceOnUse" x="72" y="52" width="14" height="11">
<path d="M78.9603 62.7121C82.4257 62.7121 85.235 60.3784 85.235 57.4996C85.235 54.6208 82.4257 52.2871 78.9603 52.2871C75.4948 52.2871 72.6855 54.6208 72.6855 57.4996C72.6855 60.3784 75.4948 62.7121 78.9603 62.7121Z" fill="url(#paint20_linear_3_3517)"/>
</mask>
<g mask="url(#mask10_3_3517)">
<path d="M78.9603 62.7121C82.4257 62.7121 85.235 60.3784 85.235 57.4996C85.235 54.6208 82.4257 52.2871 78.9603 52.2871C75.4948 52.2871 72.6855 54.6208 72.6855 57.4996C72.6855 60.3784 75.4948 62.7121 78.9603 62.7121Z" fill="url(#paint21_linear_3_3517)"/>
</g>
<mask id="mask11_3_3517" style="mask-type:alpha" maskUnits="userSpaceOnUse" x="109" y="52" width="13" height="11">
<path d="M115.3 62.7121C118.766 62.7121 121.575 60.3784 121.575 57.4996C121.575 54.6208 118.766 52.2871 115.3 52.2871C111.835 52.2871 109.025 54.6208 109.025 57.4996C109.025 60.3784 111.835 62.7121 115.3 62.7121Z" fill="url(#paint22_linear_3_3517)"/>
</mask>
<g mask="url(#mask11_3_3517)">
<path d="M115.3 62.7121C118.766 62.7121 121.575 60.3784 121.575 57.4996C121.575 54.6208 118.766 52.2871 115.3 52.2871C111.835 52.2871 109.025 54.6208 109.025 57.4996C109.025 60.3784 111.835 62.7121 115.3 62.7121Z" fill="url(#paint23_linear_3_3517)"/>
</g>
<mask id="mask12_3_3517" style="mask-type:alpha" maskUnits="userSpaceOnUse" x="0" y="78" width="13" height="11">
<path d="M6.2747 88.8839C9.74012 88.8839 12.5494 86.5502 12.5494 83.6714C12.5494 80.7927 9.74012 78.459 6.2747 78.459C2.80928 78.459 0 80.7927 0 83.6714C0 86.5502 2.80928 88.8839 6.2747 88.8839Z" fill="url(#paint24_linear_3_3517)"/>
</mask>
<g mask="url(#mask12_3_3517)">
<path d="M6.27665 88.8839C9.74208 88.8839 12.5514 86.5502 12.5514 83.6714C12.5514 80.7927 9.74208 78.459 6.27665 78.459C2.81123 78.459 0.00195312 80.7927 0.00195312 83.6714C0.00195312 86.5502 2.81123 88.8839 6.27665 88.8839Z" fill="url(#paint25_linear_3_3517)"/>
</g>
<mask id="mask13_3_3517" style="mask-type:alpha" maskUnits="userSpaceOnUse" x="36" y="78" width="13" height="11">
<path d="M42.6204 88.8839C46.0858 88.8839 48.8951 86.5502 48.8951 83.6714C48.8951 80.7927 46.0858 78.459 42.6204 78.459C39.155 78.459 36.3457 80.7927 36.3457 83.6714C36.3457 86.5502 39.155 88.8839 42.6204 88.8839Z" fill="url(#paint26_linear_3_3517)"/>
</mask>
<g mask="url(#mask13_3_3517)">
<path d="M42.6185 88.8839C46.0839 88.8839 48.8932 86.5502 48.8932 83.6714C48.8932 80.7927 46.0839 78.459 42.6185 78.459C39.153 78.459 36.3438 80.7927 36.3438 83.6714C36.3438 86.5502 39.153 88.8839 42.6185 88.8839Z" fill="url(#paint27_linear_3_3517)"/>
</g>
<mask id="mask14_3_3517" style="mask-type:alpha" maskUnits="userSpaceOnUse" x="72" y="78" width="14" height="11">
<path d="M78.9603 88.8839C82.4257 88.8839 85.235 86.5502 85.235 83.6714C85.235 80.7927 82.4257 78.459 78.9603 78.459C75.4948 78.459 72.6855 80.7927 72.6855 83.6714C72.6855 86.5502 75.4948 88.8839 78.9603 88.8839Z" fill="url(#paint28_linear_3_3517)"/>
</mask>
<g mask="url(#mask14_3_3517)">
<path d="M78.9603 88.8839C82.4257 88.8839 85.235 86.5502 85.235 83.6714C85.235 80.7927 82.4257 78.459 78.9603 78.459C75.4948 78.459 72.6855 80.7927 72.6855 83.6714C72.6855 86.5502 75.4948 88.8839 78.9603 88.8839Z" fill="url(#paint29_linear_3_3517)"/>
</g>
<mask id="mask15_3_3517" style="mask-type:alpha" maskUnits="userSpaceOnUse" x="109" y="78" width="13" height="11">
<path d="M115.3 88.8839C118.766 88.8839 121.575 86.5502 121.575 83.6714C121.575 80.7927 118.766 78.459 115.3 78.459C111.835 78.459 109.025 80.7927 109.025 83.6714C109.025 86.5502 111.835 88.8839 115.3 88.8839Z" fill="url(#paint30_linear_3_3517)"/>
</mask>
<g mask="url(#mask15_3_3517)">
<path d="M115.3 88.8839C118.766 88.8839 121.575 86.5502 121.575 83.6714C121.575 80.7927 118.766 78.459 115.3 78.459C111.835 78.459 109.025 80.7927 109.025 83.6714C109.025 86.5502 111.835 88.8839 115.3 88.8839Z" fill="url(#paint31_linear_3_3517)"/>
</g>
<mask id="mask16_3_3517" style="mask-type:alpha" maskUnits="userSpaceOnUse" x="0" y="104" width="13" height="12">
<path d="M6.2747 115C9.74012 115 12.5494 112.666 12.5494 109.788C12.5494 106.909 9.74012 104.575 6.2747 104.575C2.80928 104.575 0 106.909 0 109.788C0 112.666 2.80928 115 6.2747 115Z" fill="url(#paint32_linear_3_3517)"/>
</mask>
<g mask="url(#mask16_3_3517)">
<path d="M6.27665 115C9.74208 115 12.5514 112.666 12.5514 109.788C12.5514 106.909 9.74208 104.575 6.27665 104.575C2.81123 104.575 0.00195312 106.909 0.00195312 109.788C0.00195312 112.666 2.81123 115 6.27665 115Z" fill="url(#paint33_linear_3_3517)"/>
</g>
<mask id="mask17_3_3517" style="mask-type:alpha" maskUnits="userSpaceOnUse" x="36" y="104" width="13" height="12">
<path d="M42.6204 115C46.0858 115 48.8951 112.666 48.8951 109.788C48.8951 106.909 46.0858 104.575 42.6204 104.575C39.155 104.575 36.3457 106.909 36.3457 109.788C36.3457 112.666 39.155 115 42.6204 115Z" fill="url(#paint34_linear_3_3517)"/>
</mask>
<g mask="url(#mask17_3_3517)">
<path d="M42.6185 115C46.0839 115 48.8932 112.666 48.8932 109.788C48.8932 106.909 46.0839 104.575 42.6185 104.575C39.153 104.575 36.3438 106.909 36.3438 109.788C36.3438 112.666 39.153 115 42.6185 115Z" fill="url(#paint35_linear_3_3517)"/>
</g>
<mask id="mask18_3_3517" style="mask-type:alpha" maskUnits="userSpaceOnUse" x="72" y="104" width="14" height="12">
<path d="M78.9603 115C82.4257 115 85.235 112.666 85.235 109.788C85.235 106.909 82.4257 104.575 78.9603 104.575C75.4948 104.575 72.6855 106.909 72.6855 109.788C72.6855 112.666 75.4948 115 78.9603 115Z" fill="url(#paint36_linear_3_3517)"/>
</mask>
<g mask="url(#mask18_3_3517)">
<path d="M78.9603 115C82.4257 115 85.235 112.666 85.235 109.788C85.235 106.909 82.4257 104.575 78.9603 104.575C75.4948 104.575 72.6855 106.909 72.6855 109.788C72.6855 112.666 75.4948 115 78.9603 115Z" fill="url(#paint37_linear_3_3517)"/>
</g>
<mask id="mask19_3_3517" style="mask-type:alpha" maskUnits="userSpaceOnUse" x="109" y="104" width="13" height="12">
<path d="M115.3 115C118.766 115 121.575 112.666 121.575 109.788C121.575 106.909 118.766 104.575 115.3 104.575C111.835 104.575 109.025 106.909 109.025 109.788C109.025 112.666 111.835 115 115.3 115Z" fill="url(#paint38_linear_3_3517)"/>
</mask>
<g mask="url(#mask19_3_3517)">
<path d="M115.3 115C118.766 115 121.575 112.666 121.575 109.788C121.575 106.909 118.766 104.575 115.3 104.575C111.835 104.575 109.025 106.909 109.025 109.788C109.025 112.666 111.835 115 115.3 115Z" fill="url(#paint39_linear_3_3517)"/>
</g>
</g>
<defs>
<linearGradient id="paint0_linear_3_3517" x1="66.002" y1="131.134" x2="3.97273" y2="-58.4132" gradientUnits="userSpaceOnUse">
<stop/>
<stop offset="1" stop-color="white"/>
</linearGradient>
<linearGradient id="paint1_linear_3_3517" x1="66.0039" y1="131.134" x2="3.97469" y2="-58.4132" gradientUnits="userSpaceOnUse">
<stop stop-color="#97C3F9"/>
<stop offset="1" stop-color="#93C1F9"/>
</linearGradient>
<linearGradient id="paint2_linear_3_3517" x1="97.4553" y1="120.843" x2="35.4261" y2="-68.7045" gradientUnits="userSpaceOnUse">
<stop/>
<stop offset="1" stop-color="white"/>
</linearGradient>
<linearGradient id="paint3_linear_3_3517" x1="97.4534" y1="120.843" x2="35.4242" y2="-68.7045" gradientUnits="userSpaceOnUse">
<stop stop-color="#97C3F9"/>
<stop offset="1" stop-color="#93C1F9"/>
</linearGradient>
<linearGradient id="paint4_linear_3_3517" x1="128.903" y1="110.551" x2="66.8735" y2="-78.9958" gradientUnits="userSpaceOnUse">
<stop/>
<stop offset="1" stop-color="white"/>
</linearGradient>
<linearGradient id="paint5_linear_3_3517" x1="128.903" y1="110.551" x2="66.8735" y2="-78.9958" gradientUnits="userSpaceOnUse">
<stop stop-color="#97C3F9"/>
<stop offset="1" stop-color="#93C1F9"/>
</linearGradient>
<linearGradient id="paint6_linear_3_3517" x1="160.35" y1="100.259" x2="98.3206" y2="-89.2877" gradientUnits="userSpaceOnUse">
<stop/>
<stop offset="1" stop-color="white"/>
</linearGradient>
<linearGradient id="paint7_linear_3_3517" x1="160.35" y1="100.259" x2="98.3206" y2="-89.2877" gradientUnits="userSpaceOnUse">
<stop stop-color="#97C3F9"/>
<stop offset="1" stop-color="#93C1F9"/>
</linearGradient>
<linearGradient id="paint8_linear_3_3517" x1="55.2703" y1="134.645" x2="-6.75786" y2="-54.9002" gradientUnits="userSpaceOnUse">
<stop/>
<stop offset="1" stop-color="white"/>
</linearGradient>
<linearGradient id="paint9_linear_3_3517" x1="55.2722" y1="134.645" x2="-6.75591" y2="-54.9002" gradientUnits="userSpaceOnUse">
<stop stop-color="#97C3F9"/>
<stop offset="1" stop-color="#93C1F9"/>
</linearGradient>
<linearGradient id="paint10_linear_3_3517" x1="86.7233" y1="124.354" x2="24.6953" y2="-65.1921" gradientUnits="userSpaceOnUse">
<stop/>
<stop offset="1" stop-color="white"/>
</linearGradient>
<linearGradient id="paint11_linear_3_3517" x1="86.7214" y1="124.354" x2="24.6933" y2="-65.1921" gradientUnits="userSpaceOnUse">
<stop stop-color="#97C3F9"/>
<stop offset="1" stop-color="#93C1F9"/>
</linearGradient>
<linearGradient id="paint12_linear_3_3517" x1="118.171" y1="114.062" x2="56.1425" y2="-75.4834" gradientUnits="userSpaceOnUse">
<stop/>
<stop offset="1" stop-color="white"/>
</linearGradient>
<linearGradient id="paint13_linear_3_3517" x1="118.171" y1="114.062" x2="56.1425" y2="-75.4834" gradientUnits="userSpaceOnUse">
<stop stop-color="#97C3F9"/>
<stop offset="1" stop-color="#93C1F9"/>
</linearGradient>
<linearGradient id="paint14_linear_3_3517" x1="149.618" y1="103.771" x2="87.5897" y2="-85.7749" gradientUnits="userSpaceOnUse">
<stop/>
<stop offset="1" stop-color="white"/>
</linearGradient>
<linearGradient id="paint15_linear_3_3517" x1="149.618" y1="103.771" x2="87.5897" y2="-85.7749" gradientUnits="userSpaceOnUse">
<stop stop-color="#97C3F9"/>
<stop offset="1" stop-color="#93C1F9"/>
</linearGradient>
<linearGradient id="paint16_linear_3_3517" x1="44.5382" y1="138.158" x2="-17.4911" y2="-51.3894" gradientUnits="userSpaceOnUse">
<stop/>
<stop offset="1" stop-color="white"/>
</linearGradient>
<linearGradient id="paint17_linear_3_3517" x1="44.5401" y1="138.158" x2="-17.4891" y2="-51.3894" gradientUnits="userSpaceOnUse">
<stop stop-color="#97C3F9"/>
<stop offset="1" stop-color="#93C1F9"/>
</linearGradient>
<linearGradient id="paint18_linear_3_3517" x1="75.9914" y1="127.866" x2="13.9622" y2="-61.681" gradientUnits="userSpaceOnUse">
<stop/>
<stop offset="1" stop-color="white"/>
</linearGradient>
<linearGradient id="paint19_linear_3_3517" x1="75.9894" y1="127.866" x2="13.9602" y2="-61.681" gradientUnits="userSpaceOnUse">
<stop stop-color="#97C3F9"/>
<stop offset="1" stop-color="#93C1F9"/>
</linearGradient>
<linearGradient id="paint20_linear_3_3517" x1="107.439" y1="117.575" x2="45.4095" y2="-71.9724" gradientUnits="userSpaceOnUse">
<stop/>
<stop offset="1" stop-color="white"/>
</linearGradient>
<linearGradient id="paint21_linear_3_3517" x1="107.439" y1="117.575" x2="45.4095" y2="-71.9724" gradientUnits="userSpaceOnUse">
<stop stop-color="#97C3F9"/>
<stop offset="1" stop-color="#93C1F9"/>
</linearGradient>
<linearGradient id="paint22_linear_3_3517" x1="138.886" y1="107.283" x2="76.8566" y2="-82.2641" gradientUnits="userSpaceOnUse">
<stop/>
<stop offset="1" stop-color="white"/>
</linearGradient>
<linearGradient id="paint23_linear_3_3517" x1="138.886" y1="107.283" x2="76.8566" y2="-82.2641" gradientUnits="userSpaceOnUse">
<stop stop-color="#97C3F9"/>
<stop offset="1" stop-color="#93C1F9"/>
</linearGradient>
<linearGradient id="paint24_linear_3_3517" x1="33.8062" y1="141.671" x2="-28.223" y2="-47.8765" gradientUnits="userSpaceOnUse">
<stop/>
<stop offset="1" stop-color="white"/>
</linearGradient>
<linearGradient id="paint25_linear_3_3517" x1="33.8082" y1="141.671" x2="-28.2211" y2="-47.8765" gradientUnits="userSpaceOnUse">
<stop stop-color="#97C3F9"/>
<stop offset="1" stop-color="#93C1F9"/>
</linearGradient>
<linearGradient id="paint26_linear_3_3517" x1="65.2594" y1="131.379" x2="3.2302" y2="-58.168" gradientUnits="userSpaceOnUse">
<stop/>
<stop offset="1" stop-color="white"/>
</linearGradient>
<linearGradient id="paint27_linear_3_3517" x1="65.2575" y1="131.379" x2="3.22825" y2="-58.168" gradientUnits="userSpaceOnUse">
<stop stop-color="#97C3F9"/>
<stop offset="1" stop-color="#93C1F9"/>
</linearGradient>
<linearGradient id="paint28_linear_3_3517" x1="96.7067" y1="121.087" x2="34.6775" y2="-68.4595" gradientUnits="userSpaceOnUse">
<stop/>
<stop offset="1" stop-color="white"/>
</linearGradient>
<linearGradient id="paint29_linear_3_3517" x1="96.7067" y1="121.087" x2="34.6775" y2="-68.4595" gradientUnits="userSpaceOnUse">
<stop stop-color="#97C3F9"/>
<stop offset="1" stop-color="#93C1F9"/>
</linearGradient>
<linearGradient id="paint30_linear_3_3517" x1="128.154" y1="110.796" x2="66.1247" y2="-78.7511" gradientUnits="userSpaceOnUse">
<stop/>
<stop offset="1" stop-color="white"/>
</linearGradient>
<linearGradient id="paint31_linear_3_3517" x1="128.154" y1="110.796" x2="66.1247" y2="-78.7511" gradientUnits="userSpaceOnUse">
<stop stop-color="#97C3F9"/>
<stop offset="1" stop-color="#93C1F9"/>
</linearGradient>
<linearGradient id="paint32_linear_3_3517" x1="23.0742" y1="145.182" x2="-38.955" y2="-44.3649" gradientUnits="userSpaceOnUse">
<stop/>
<stop offset="1" stop-color="white"/>
</linearGradient>
<linearGradient id="paint33_linear_3_3517" x1="23.0762" y1="145.182" x2="-38.953" y2="-44.3649" gradientUnits="userSpaceOnUse">
<stop stop-color="#97C3F9"/>
<stop offset="1" stop-color="#93C1F9"/>
</linearGradient>
<linearGradient id="paint34_linear_3_3517" x1="54.5275" y1="134.891" x2="-7.50174" y2="-54.6565" gradientUnits="userSpaceOnUse">
<stop/>
<stop offset="1" stop-color="white"/>
</linearGradient>
<linearGradient id="paint35_linear_3_3517" x1="54.5255" y1="134.891" x2="-7.50369" y2="-54.6565" gradientUnits="userSpaceOnUse">
<stop stop-color="#97C3F9"/>
<stop offset="1" stop-color="#93C1F9"/>
</linearGradient>
<linearGradient id="paint36_linear_3_3517" x1="85.9747" y1="124.599" x2="23.9456" y2="-64.9478" gradientUnits="userSpaceOnUse">
<stop/>
<stop offset="1" stop-color="white"/>
</linearGradient>
<linearGradient id="paint37_linear_3_3517" x1="85.9747" y1="124.599" x2="23.9456" y2="-64.9478" gradientUnits="userSpaceOnUse">
<stop stop-color="#97C3F9"/>
<stop offset="1" stop-color="#93C1F9"/>
</linearGradient>
<linearGradient id="paint38_linear_3_3517" x1="117.422" y1="114.308" x2="55.3928" y2="-75.2394" gradientUnits="userSpaceOnUse">
<stop/>
<stop offset="1" stop-color="white"/>
</linearGradient>
<linearGradient id="paint39_linear_3_3517" x1="117.422" y1="114.308" x2="55.3928" y2="-75.2394" gradientUnits="userSpaceOnUse">
<stop stop-color="#97C3F9"/>
<stop offset="1" stop-color="#93C1F9"/>
</linearGradient>
</defs>
</svg>
