<svg width="132" height="96" viewBox="0 0 132 96" fill="none" xmlns="http://www.w3.org/2000/svg">
<g opacity="0.26">
<mask id="mask0_3_3659" style="mask-type:alpha" maskUnits="userSpaceOnUse" x="10" y="0" width="13" height="11">
<path d="M16.6146 10.425C20.08 10.425 22.8893 8.09121 22.8893 5.21245C22.8893 2.33368 20.08 0 16.6146 0C13.1491 0 10.3398 2.33368 10.3398 5.21245C10.3398 8.09121 13.1491 10.425 16.6146 10.425Z" fill="url(#paint0_linear_3_3659)"/>
</mask>
<g mask="url(#mask0_3_3659)">
<path d="M16.6165 10.425C20.0819 10.425 22.8912 8.09121 22.8912 5.21245C22.8912 2.33368 20.0819 0 16.6165 0C13.1511 0 10.3418 2.33368 10.3418 5.21245C10.3418 8.09121 13.1511 10.425 16.6165 10.425Z" fill="url(#paint1_linear_3_3659)"/>
</g>
<mask id="mask1_3_3659" style="mask-type:alpha" maskUnits="userSpaceOnUse" x="46" y="0" width="14" height="11">
<path d="M52.9603 10.425C56.4257 10.425 59.235 8.09121 59.235 5.21245C59.235 2.33368 56.4257 0 52.9603 0C49.4948 0 46.6855 2.33368 46.6855 5.21245C46.6855 8.09121 49.4948 10.425 52.9603 10.425Z" fill="url(#paint2_linear_3_3659)"/>
</mask>
<g mask="url(#mask1_3_3659)">
<path d="M52.9583 10.425C56.4237 10.425 59.233 8.09121 59.233 5.21245C59.233 2.33368 56.4237 0 52.9583 0C49.4929 0 46.6836 2.33368 46.6836 5.21245C46.6836 8.09121 49.4929 10.425 52.9583 10.425Z" fill="url(#paint3_linear_3_3659)"/>
</g>
<mask id="mask2_3_3659" style="mask-type:alpha" maskUnits="userSpaceOnUse" x="83" y="0" width="13" height="11">
<path d="M89.3001 10.425C92.7655 10.425 95.5748 8.09121 95.5748 5.21245C95.5748 2.33368 92.7655 0 89.3001 0C85.8347 0 83.0254 2.33368 83.0254 5.21245C83.0254 8.09121 85.8347 10.425 89.3001 10.425Z" fill="url(#paint4_linear_3_3659)"/>
</mask>
<g mask="url(#mask2_3_3659)">
<path d="M89.3001 10.425C92.7655 10.425 95.5748 8.09121 95.5748 5.21245C95.5748 2.33368 92.7655 0 89.3001 0C85.8347 0 83.0254 2.33368 83.0254 5.21245C83.0254 8.09121 85.8347 10.425 89.3001 10.425Z" fill="url(#paint5_linear_3_3659)"/>
</g>
<mask id="mask3_3_3659" style="mask-type:alpha" maskUnits="userSpaceOnUse" x="119" y="0" width="13" height="11">
<path d="M125.638 10.425C129.103 10.425 131.913 8.09121 131.913 5.21245C131.913 2.33368 129.103 0 125.638 0C122.173 0 119.363 2.33368 119.363 5.21245C119.363 8.09121 122.173 10.425 125.638 10.425Z" fill="url(#paint6_linear_3_3659)"/>
</mask>
<g mask="url(#mask3_3_3659)">
<path d="M125.638 10.425C129.103 10.425 131.913 8.09121 131.913 5.21245C131.913 2.33368 129.103 0 125.638 0C122.173 0 119.363 2.33368 119.363 5.21245C119.363 8.09121 122.173 10.425 125.638 10.425Z" fill="url(#paint7_linear_3_3659)"/>
</g>
<mask id="mask4_3_3659" style="mask-type:alpha" maskUnits="userSpaceOnUse" x="10" y="26" width="13" height="11">
<path d="M16.6146 36.5958C20.08 36.5958 22.8893 34.2621 22.8893 31.3833C22.8893 28.5046 20.08 26.1709 16.6146 26.1709C13.1491 26.1709 10.3398 28.5046 10.3398 31.3833C10.3398 34.2621 13.1491 36.5958 16.6146 36.5958Z" fill="url(#paint8_linear_3_3659)"/>
</mask>
<g mask="url(#mask4_3_3659)">
<path d="M16.6165 36.5958C20.0819 36.5958 22.8912 34.2621 22.8912 31.3833C22.8912 28.5046 20.0819 26.1709 16.6165 26.1709C13.1511 26.1709 10.3418 28.5046 10.3418 31.3833C10.3418 34.2621 13.1511 36.5958 16.6165 36.5958Z" fill="url(#paint9_linear_3_3659)"/>
</g>
<mask id="mask5_3_3659" style="mask-type:alpha" maskUnits="userSpaceOnUse" x="46" y="26" width="14" height="11">
<path d="M52.9603 36.5958C56.4257 36.5958 59.235 34.2621 59.235 31.3833C59.235 28.5046 56.4257 26.1709 52.9603 26.1709C49.4948 26.1709 46.6855 28.5046 46.6855 31.3833C46.6855 34.2621 49.4948 36.5958 52.9603 36.5958Z" fill="url(#paint10_linear_3_3659)"/>
</mask>
<g mask="url(#mask5_3_3659)">
<path d="M52.9583 36.5958C56.4237 36.5958 59.233 34.2621 59.233 31.3833C59.233 28.5046 56.4237 26.1709 52.9583 26.1709C49.4929 26.1709 46.6836 28.5046 46.6836 31.3833C46.6836 34.2621 49.4929 36.5958 52.9583 36.5958Z" fill="url(#paint11_linear_3_3659)"/>
</g>
<mask id="mask6_3_3659" style="mask-type:alpha" maskUnits="userSpaceOnUse" x="83" y="26" width="13" height="11">
<path d="M89.3001 36.5958C92.7655 36.5958 95.5748 34.2621 95.5748 31.3833C95.5748 28.5046 92.7655 26.1709 89.3001 26.1709C85.8347 26.1709 83.0254 28.5046 83.0254 31.3833C83.0254 34.2621 85.8347 36.5958 89.3001 36.5958Z" fill="url(#paint12_linear_3_3659)"/>
</mask>
<g mask="url(#mask6_3_3659)">
<path d="M89.3001 36.5958C92.7655 36.5958 95.5748 34.2621 95.5748 31.3833C95.5748 28.5046 92.7655 26.1709 89.3001 26.1709C85.8347 26.1709 83.0254 28.5046 83.0254 31.3833C83.0254 34.2621 85.8347 36.5958 89.3001 36.5958Z" fill="url(#paint13_linear_3_3659)"/>
</g>
<mask id="mask7_3_3659" style="mask-type:alpha" maskUnits="userSpaceOnUse" x="119" y="26" width="13" height="11">
<path d="M125.638 36.5958C129.103 36.5958 131.913 34.2621 131.913 31.3833C131.913 28.5046 129.103 26.1709 125.638 26.1709C122.173 26.1709 119.363 28.5046 119.363 31.3833C119.363 34.2621 122.173 36.5958 125.638 36.5958Z" fill="url(#paint14_linear_3_3659)"/>
</mask>
<g mask="url(#mask7_3_3659)">
<path d="M125.638 36.5958C129.103 36.5958 131.913 34.2621 131.913 31.3833C131.913 28.5046 129.103 26.1709 125.638 26.1709C122.173 26.1709 119.363 28.5046 119.363 31.3833C119.363 34.2621 122.173 36.5958 125.638 36.5958Z" fill="url(#paint15_linear_3_3659)"/>
</g>
<mask id="mask8_3_3659" style="mask-type:alpha" maskUnits="userSpaceOnUse" x="10" y="52" width="13" height="11">
<path d="M16.6146 62.7121C20.08 62.7121 22.8893 60.3784 22.8893 57.4996C22.8893 54.6208 20.08 52.2871 16.6146 52.2871C13.1491 52.2871 10.3398 54.6208 10.3398 57.4996C10.3398 60.3784 13.1491 62.7121 16.6146 62.7121Z" fill="url(#paint16_linear_3_3659)"/>
</mask>
<g mask="url(#mask8_3_3659)">
<path d="M16.6165 62.7121C20.0819 62.7121 22.8912 60.3784 22.8912 57.4996C22.8912 54.6208 20.0819 52.2871 16.6165 52.2871C13.1511 52.2871 10.3418 54.6208 10.3418 57.4996C10.3418 60.3784 13.1511 62.7121 16.6165 62.7121Z" fill="url(#paint17_linear_3_3659)"/>
</g>
<mask id="mask9_3_3659" style="mask-type:alpha" maskUnits="userSpaceOnUse" x="46" y="52" width="14" height="11">
<path d="M52.9603 62.7121C56.4257 62.7121 59.235 60.3784 59.235 57.4996C59.235 54.6208 56.4257 52.2871 52.9603 52.2871C49.4948 52.2871 46.6855 54.6208 46.6855 57.4996C46.6855 60.3784 49.4948 62.7121 52.9603 62.7121Z" fill="url(#paint18_linear_3_3659)"/>
</mask>
<g mask="url(#mask9_3_3659)">
<path d="M52.9583 62.7121C56.4237 62.7121 59.233 60.3784 59.233 57.4996C59.233 54.6208 56.4237 52.2871 52.9583 52.2871C49.4929 52.2871 46.6836 54.6208 46.6836 57.4996C46.6836 60.3784 49.4929 62.7121 52.9583 62.7121Z" fill="url(#paint19_linear_3_3659)"/>
</g>
<mask id="mask10_3_3659" style="mask-type:alpha" maskUnits="userSpaceOnUse" x="83" y="52" width="13" height="11">
<path d="M89.3001 62.7121C92.7655 62.7121 95.5748 60.3784 95.5748 57.4996C95.5748 54.6208 92.7655 52.2871 89.3001 52.2871C85.8347 52.2871 83.0254 54.6208 83.0254 57.4996C83.0254 60.3784 85.8347 62.7121 89.3001 62.7121Z" fill="url(#paint20_linear_3_3659)"/>
</mask>
<g mask="url(#mask10_3_3659)">
<path d="M89.3001 62.7121C92.7655 62.7121 95.5748 60.3784 95.5748 57.4996C95.5748 54.6208 92.7655 52.2871 89.3001 52.2871C85.8347 52.2871 83.0254 54.6208 83.0254 57.4996C83.0254 60.3784 85.8347 62.7121 89.3001 62.7121Z" fill="url(#paint21_linear_3_3659)"/>
</g>
<mask id="mask11_3_3659" style="mask-type:alpha" maskUnits="userSpaceOnUse" x="119" y="52" width="13" height="11">
<path d="M125.638 62.7121C129.103 62.7121 131.913 60.3784 131.913 57.4996C131.913 54.6208 129.103 52.2871 125.638 52.2871C122.173 52.2871 119.363 54.6208 119.363 57.4996C119.363 60.3784 122.173 62.7121 125.638 62.7121Z" fill="url(#paint22_linear_3_3659)"/>
</mask>
<g mask="url(#mask11_3_3659)">
<path d="M125.638 62.7121C129.103 62.7121 131.913 60.3784 131.913 57.4996C131.913 54.6208 129.103 52.2871 125.638 52.2871C122.173 52.2871 119.363 54.6208 119.363 57.4996C119.363 60.3784 122.173 62.7121 125.638 62.7121Z" fill="url(#paint23_linear_3_3659)"/>
</g>
<mask id="mask12_3_3659" style="mask-type:alpha" maskUnits="userSpaceOnUse" x="10" y="78" width="13" height="11">
<path d="M16.6146 88.8839C20.08 88.8839 22.8893 86.5502 22.8893 83.6714C22.8893 80.7927 20.08 78.459 16.6146 78.459C13.1491 78.459 10.3398 80.7927 10.3398 83.6714C10.3398 86.5502 13.1491 88.8839 16.6146 88.8839Z" fill="url(#paint24_linear_3_3659)"/>
</mask>
<g mask="url(#mask12_3_3659)">
<path d="M16.6165 88.8839C20.0819 88.8839 22.8912 86.5502 22.8912 83.6714C22.8912 80.7927 20.0819 78.459 16.6165 78.459C13.1511 78.459 10.3418 80.7927 10.3418 83.6714C10.3418 86.5502 13.1511 88.8839 16.6165 88.8839Z" fill="url(#paint25_linear_3_3659)"/>
</g>
<mask id="mask13_3_3659" style="mask-type:alpha" maskUnits="userSpaceOnUse" x="46" y="78" width="14" height="11">
<path d="M52.9603 88.8839C56.4257 88.8839 59.235 86.5502 59.235 83.6714C59.235 80.7927 56.4257 78.459 52.9603 78.459C49.4948 78.459 46.6855 80.7927 46.6855 83.6714C46.6855 86.5502 49.4948 88.8839 52.9603 88.8839Z" fill="url(#paint26_linear_3_3659)"/>
</mask>
<g mask="url(#mask13_3_3659)">
<path d="M52.9583 88.8839C56.4237 88.8839 59.233 86.5502 59.233 83.6714C59.233 80.7927 56.4237 78.459 52.9583 78.459C49.4929 78.459 46.6836 80.7927 46.6836 83.6714C46.6836 86.5502 49.4929 88.8839 52.9583 88.8839Z" fill="url(#paint27_linear_3_3659)"/>
</g>
<mask id="mask14_3_3659" style="mask-type:alpha" maskUnits="userSpaceOnUse" x="83" y="78" width="13" height="11">
<path d="M89.3001 88.8839C92.7655 88.8839 95.5748 86.5502 95.5748 83.6714C95.5748 80.7927 92.7655 78.459 89.3001 78.459C85.8347 78.459 83.0254 80.7927 83.0254 83.6714C83.0254 86.5502 85.8347 88.8839 89.3001 88.8839Z" fill="url(#paint28_linear_3_3659)"/>
</mask>
<g mask="url(#mask14_3_3659)">
<path d="M89.3001 88.8839C92.7655 88.8839 95.5748 86.5502 95.5748 83.6714C95.5748 80.7927 92.7655 78.459 89.3001 78.459C85.8347 78.459 83.0254 80.7927 83.0254 83.6714C83.0254 86.5502 85.8347 88.8839 89.3001 88.8839Z" fill="url(#paint29_linear_3_3659)"/>
</g>
<mask id="mask15_3_3659" style="mask-type:alpha" maskUnits="userSpaceOnUse" x="119" y="78" width="13" height="11">
<path d="M125.638 88.8839C129.103 88.8839 131.913 86.5502 131.913 83.6714C131.913 80.7927 129.103 78.459 125.638 78.459C122.173 78.459 119.363 80.7927 119.363 83.6714C119.363 86.5502 122.173 88.8839 125.638 88.8839Z" fill="url(#paint30_linear_3_3659)"/>
</mask>
<g mask="url(#mask15_3_3659)">
<path d="M125.638 88.8839C129.103 88.8839 131.913 86.5502 131.913 83.6714C131.913 80.7927 129.103 78.459 125.638 78.459C122.173 78.459 119.363 80.7927 119.363 83.6714C119.363 86.5502 122.173 88.8839 125.638 88.8839Z" fill="url(#paint31_linear_3_3659)"/>
</g>
</g>
<defs>
<linearGradient id="paint0_linear_3_3659" x1="76.3419" y1="131.134" x2="14.3127" y2="-58.4133" gradientUnits="userSpaceOnUse">
<stop stop-color="white"/>
<stop offset="1" stop-color="white"/>
</linearGradient>
<linearGradient id="paint1_linear_3_3659" x1="76.3439" y1="131.134" x2="14.3147" y2="-58.4133" gradientUnits="userSpaceOnUse">
<stop stop-color="white"/>
<stop offset="1" stop-color="white"/>
</linearGradient>
<linearGradient id="paint2_linear_3_3659" x1="112.688" y1="131.134" x2="50.6584" y2="-58.4133" gradientUnits="userSpaceOnUse">
<stop stop-color="white"/>
<stop offset="1" stop-color="white"/>
</linearGradient>
<linearGradient id="paint3_linear_3_3659" x1="112.686" y1="131.134" x2="50.6565" y2="-58.4133" gradientUnits="userSpaceOnUse">
<stop stop-color="white"/>
<stop offset="1" stop-color="white"/>
</linearGradient>
<linearGradient id="paint4_linear_3_3659" x1="149.027" y1="131.134" x2="86.9983" y2="-58.4133" gradientUnits="userSpaceOnUse">
<stop stop-color="white"/>
<stop offset="1" stop-color="white"/>
</linearGradient>
<linearGradient id="paint5_linear_3_3659" x1="149.027" y1="131.134" x2="86.9983" y2="-58.4133" gradientUnits="userSpaceOnUse">
<stop stop-color="white"/>
<stop offset="1" stop-color="white"/>
</linearGradient>
<linearGradient id="paint6_linear_3_3659" x1="185.365" y1="131.134" x2="123.336" y2="-58.4133" gradientUnits="userSpaceOnUse">
<stop stop-color="white"/>
<stop offset="1" stop-color="white"/>
</linearGradient>
<linearGradient id="paint7_linear_3_3659" x1="185.365" y1="131.134" x2="123.336" y2="-58.4133" gradientUnits="userSpaceOnUse">
<stop stop-color="white"/>
<stop offset="1" stop-color="white"/>
</linearGradient>
<linearGradient id="paint8_linear_3_3659" x1="76.3419" y1="157.303" x2="14.3138" y2="-32.2422" gradientUnits="userSpaceOnUse">
<stop stop-color="white"/>
<stop offset="1" stop-color="white"/>
</linearGradient>
<linearGradient id="paint9_linear_3_3659" x1="76.3439" y1="157.303" x2="14.3158" y2="-32.2422" gradientUnits="userSpaceOnUse">
<stop stop-color="white"/>
<stop offset="1" stop-color="white"/>
</linearGradient>
<linearGradient id="paint10_linear_3_3659" x1="112.688" y1="157.303" x2="50.6595" y2="-32.2422" gradientUnits="userSpaceOnUse">
<stop stop-color="white"/>
<stop offset="1" stop-color="white"/>
</linearGradient>
<linearGradient id="paint11_linear_3_3659" x1="112.686" y1="157.303" x2="50.6576" y2="-32.2422" gradientUnits="userSpaceOnUse">
<stop stop-color="white"/>
<stop offset="1" stop-color="white"/>
</linearGradient>
<linearGradient id="paint12_linear_3_3659" x1="149.027" y1="157.303" x2="86.9994" y2="-32.2422" gradientUnits="userSpaceOnUse">
<stop stop-color="white"/>
<stop offset="1" stop-color="white"/>
</linearGradient>
<linearGradient id="paint13_linear_3_3659" x1="149.027" y1="157.303" x2="86.9994" y2="-32.2422" gradientUnits="userSpaceOnUse">
<stop stop-color="white"/>
<stop offset="1" stop-color="white"/>
</linearGradient>
<linearGradient id="paint14_linear_3_3659" x1="185.365" y1="157.303" x2="123.337" y2="-32.2422" gradientUnits="userSpaceOnUse">
<stop stop-color="white"/>
<stop offset="1" stop-color="white"/>
</linearGradient>
<linearGradient id="paint15_linear_3_3659" x1="185.365" y1="157.303" x2="123.337" y2="-32.2422" gradientUnits="userSpaceOnUse">
<stop stop-color="white"/>
<stop offset="1" stop-color="white"/>
</linearGradient>
<linearGradient id="paint16_linear_3_3659" x1="76.3419" y1="183.421" x2="14.3127" y2="-6.12617" gradientUnits="userSpaceOnUse">
<stop stop-color="white"/>
<stop offset="1" stop-color="white"/>
</linearGradient>
<linearGradient id="paint17_linear_3_3659" x1="76.3439" y1="183.421" x2="14.3147" y2="-6.12617" gradientUnits="userSpaceOnUse">
<stop stop-color="white"/>
<stop offset="1" stop-color="white"/>
</linearGradient>
<linearGradient id="paint18_linear_3_3659" x1="112.688" y1="183.421" x2="50.6584" y2="-6.12617" gradientUnits="userSpaceOnUse">
<stop stop-color="white"/>
<stop offset="1" stop-color="white"/>
</linearGradient>
<linearGradient id="paint19_linear_3_3659" x1="112.686" y1="183.421" x2="50.6565" y2="-6.12617" gradientUnits="userSpaceOnUse">
<stop stop-color="white"/>
<stop offset="1" stop-color="white"/>
</linearGradient>
<linearGradient id="paint20_linear_3_3659" x1="149.027" y1="183.421" x2="86.9983" y2="-6.12617" gradientUnits="userSpaceOnUse">
<stop stop-color="white"/>
<stop offset="1" stop-color="white"/>
</linearGradient>
<linearGradient id="paint21_linear_3_3659" x1="149.027" y1="183.421" x2="86.9983" y2="-6.12617" gradientUnits="userSpaceOnUse">
<stop stop-color="white"/>
<stop offset="1" stop-color="white"/>
</linearGradient>
<linearGradient id="paint22_linear_3_3659" x1="185.365" y1="183.421" x2="123.336" y2="-6.12617" gradientUnits="userSpaceOnUse">
<stop stop-color="white"/>
<stop offset="1" stop-color="white"/>
</linearGradient>
<linearGradient id="paint23_linear_3_3659" x1="185.365" y1="183.421" x2="123.336" y2="-6.12617" gradientUnits="userSpaceOnUse">
<stop stop-color="white"/>
<stop offset="1" stop-color="white"/>
</linearGradient>
<linearGradient id="paint24_linear_3_3659" x1="76.3419" y1="209.593" x2="14.3127" y2="20.0457" gradientUnits="userSpaceOnUse">
<stop stop-color="white"/>
<stop offset="1" stop-color="white"/>
</linearGradient>
<linearGradient id="paint25_linear_3_3659" x1="76.3439" y1="209.593" x2="14.3147" y2="20.0457" gradientUnits="userSpaceOnUse">
<stop stop-color="white"/>
<stop offset="1" stop-color="white"/>
</linearGradient>
<linearGradient id="paint26_linear_3_3659" x1="112.688" y1="209.593" x2="50.6584" y2="20.0457" gradientUnits="userSpaceOnUse">
<stop stop-color="white"/>
<stop offset="1" stop-color="white"/>
</linearGradient>
<linearGradient id="paint27_linear_3_3659" x1="112.686" y1="209.593" x2="50.6565" y2="20.0457" gradientUnits="userSpaceOnUse">
<stop stop-color="white"/>
<stop offset="1" stop-color="white"/>
</linearGradient>
<linearGradient id="paint28_linear_3_3659" x1="149.027" y1="209.593" x2="86.9983" y2="20.0457" gradientUnits="userSpaceOnUse">
<stop stop-color="white"/>
<stop offset="1" stop-color="white"/>
</linearGradient>
<linearGradient id="paint29_linear_3_3659" x1="149.027" y1="209.593" x2="86.9983" y2="20.0457" gradientUnits="userSpaceOnUse">
<stop stop-color="white"/>
<stop offset="1" stop-color="white"/>
</linearGradient>
<linearGradient id="paint30_linear_3_3659" x1="185.365" y1="209.593" x2="123.336" y2="20.0457" gradientUnits="userSpaceOnUse">
<stop stop-color="white"/>
<stop offset="1" stop-color="white"/>
</linearGradient>
<linearGradient id="paint31_linear_3_3659" x1="185.365" y1="209.593" x2="123.336" y2="20.0457" gradientUnits="userSpaceOnUse">
<stop stop-color="white"/>
<stop offset="1" stop-color="white"/>
</linearGradient>
</defs>
</svg>
